<?xml version="1.0" encoding="utf-8"?>
<!-- Generator: Adobe Illustrator 20.0.0, SVG Export Plug-In . SVG Version: 6.00 Build 0)  -->
<svg version="1.1" xmlns="http://www.w3.org/2000/svg" xmlns:xlink="http://www.w3.org/1999/xlink" x="0px" y="0px"
	 viewBox="0 0 750 181.6" style="enable-background:new 0 0 750 181.6;" xml:space="preserve">
<style type="text/css">
	.st0{fill:none;stroke:#000000;stroke-miterlimit:10;}
	.st1{fill:none;stroke:#000000;stroke-miterlimit:10;stroke-dasharray:5.952,5.952;}
	.st2{fill:none;stroke:#000000;stroke-miterlimit:10;stroke-dasharray:5.7436,5.7436;}
	.st3{fill:none;stroke:#000000;stroke-miterlimit:10;stroke-dasharray:6;}
	.st4{fill:none;}
	.st5{fill:#010101;}
</style>
<g id="Layer_1">
	<g>
		<polyline class="st0" points="750,135.1 750,138.1 747,138.1 		"/>
		<line class="st1" x1="741" y1="138.1" x2="6" y2="138.1"/>
		<polyline class="st0" points="3,138.1 0,138.1 0,135.1 		"/>
		<line class="st2" x1="0" y1="129.4" x2="0" y2="5.9"/>
		<polyline class="st0" points="0,3 0,0 3,0 		"/>
		<line class="st1" x1="9" y1="0" x2="744" y2="0"/>
		<polyline class="st0" points="747,0 750,0 750,3 		"/>
		<line class="st2" x1="750" y1="8.7" x2="750" y2="132.2"/>
	</g>
	<g>
		<path d="M12.4,17.9c-2.5,0-4.1-1.8-4.1-4.5c0-2.7,1.6-4.6,4.1-4.6c1,0,1.8,0.3,2.5,0.7l-0.2,1.2c-0.6-0.5-1.4-0.9-2.3-0.9
			c-1.8,0-2.8,1.4-2.8,3.5c0,2.1,1.1,3.5,2.8,3.5c0.9,0,1.8-0.4,2.5-0.9l0.2,1.1C14.4,17.5,13.4,17.9,12.4,17.9z"/>
		<path d="M19.3,17.8c-1.7,0-3.1-1.3-3.1-3.4c0-2.1,1.5-3.4,3.1-3.4c1.7,0,3.1,1.2,3.1,3.4C22.4,16.5,21,17.8,19.3,17.8z M19.3,12.1
			c-1.2,0-1.9,1-1.9,2.4c0,1.3,0.8,2.4,1.9,2.4c1.2,0,1.9-1,1.9-2.4C21.2,13.1,20.5,12.1,19.3,12.1z"/>
		<path d="M28.2,17.7l-3.2-4.8v4.8h-1v-6.5H25l3.1,4.6v-4.6h1v6.5H28.2z"/>
		<path d="M33.6,12.2v5.4h-1.2v-5.4h-2v-1h5.1l0.2,1H33.6z"/>
		<path d="M37,17.7h-1.1l2.5-6.5h1.3l2.5,6.4L41,17.8l-0.6-1.7h-2.9L37,17.7z M39,12.3L39,12.3l-1.1,2.8H40C40,15.1,39,12.3,39,12.3
			z"/>
		<path d="M46,17.8c-1.9,0-3.1-1.4-3.1-3.3c0-2,1.2-3.4,3.1-3.4c0.8,0,1.4,0.2,1.9,0.5l-0.2,1.1c-0.5-0.3-1-0.6-1.6-0.6
			c-1.2,0-2,0.9-2,2.4c0,1.5,0.8,2.4,2,2.4c0.6,0,1.2-0.2,1.7-0.6l0.2,1C47.4,17.6,46.8,17.8,46,17.8z"/>
		<path d="M51.8,12.2v5.4h-1.2v-5.4h-2v-1h5.1l0.2,1H51.8z"/>
		<path d="M60.6,17.8c-1.6,0-2.6-1-2.6-2.6v-4h1.1v3.9c0,1,0.5,1.7,1.5,1.7c1,0,1.5-0.6,1.5-1.7v-3.9h1.2v3.9
			C63.3,16.9,62.2,17.8,60.6,17.8z"/>
		<path d="M66.8,17.8c-0.8,0-1.6-0.2-2.2-0.5l0.2-1c0.6,0.3,1.4,0.6,2.1,0.6c0.7,0,1.3-0.3,1.3-0.9c0-0.5-0.3-0.7-1.3-1.1
			c-1.4-0.5-2-0.9-2-1.9c0-1.1,0.9-1.9,2.2-1.9c0.7,0,1.4,0.2,1.9,0.4l-0.2,1.1c-0.6-0.3-1.2-0.5-1.7-0.5c-0.6,0-1.1,0.3-1.1,0.8
			c0,0.5,0.4,0.7,1.4,1c1.4,0.5,1.9,0.9,1.9,1.9C69.2,17,68.2,17.8,66.8,17.8z"/>
		<path d="M80,17.7h-1.1l-1.5-5.1l-1.6,5.1h-1.1l-1.9-6.3l1.2-0.3l1.3,5l1.5-4.9h1.2l1.5,4.9l1.3-4.9h1.1L80,17.7z"/>
		<path d="M83.2,17.7v-6.5h1.2v6.5H83.2z"/>
		<path d="M88.9,12.2v5.4h-1.2v-5.4h-2v-1h5.1l0.2,1H88.9z"/>
		<path d="M96.3,17.7v-2.8h-3v2.8h-1.1v-6.5h1.1v2.6h3v-2.6h1.2v6.5H96.3z"/>
		<path d="M102.6,17.7h-1.1l2.5-6.5h1.3l2.5,6.4l-1.1,0.3l-0.6-1.7h-2.9L102.6,17.7z M104.6,12.3L104.6,12.3l-1.1,2.8h2.1
			C105.7,15.1,104.6,12.3,104.6,12.3z"/>
		<path d="M113.3,17.7l-3.2-4.8v4.8h-1v-6.5h1.1l3.1,4.6v-4.6h1v6.5H113.3z"/>
		<path d="M118.9,15.2v2.5h-1.2v-2.5l-2.3-3.8l1.2-0.3l1.7,3.1l1.7-2.9h1.3L118.9,15.2z"/>
		<path d="M129.1,17.5l1.8,0.6l-0.2,1l-3.6-1.3c-1.5-0.5-2.4-1.5-2.4-3.3c0-2.1,1.5-3.4,3.1-3.4c1.7,0,3.1,1.2,3.1,3.3
			C131,15.8,130.4,16.9,129.1,17.5z M127.9,12.1c-1.2,0-1.9,1-1.9,2.4c0,1.3,0.8,2.4,1.9,2.4c1.2,0,1.9-1.1,1.9-2.4
			C129.9,13.2,129.1,12.1,127.9,12.1z"/>
		<path d="M135.1,17.8c-1.6,0-2.6-1-2.6-2.6v-4h1.1v3.9c0,1,0.5,1.7,1.5,1.7c1,0,1.5-0.6,1.5-1.7v-3.9h1.2v3.9
			C137.8,16.9,136.8,17.8,135.1,17.8z"/>
		<path d="M139.6,17.7v-6.5h4v1h-2.9v1.6h2.3l0.2,1h-2.5v1.8h3v1H139.6z"/>
		<path d="M146.8,17.8c-0.8,0-1.6-0.2-2.2-0.5l0.2-1c0.6,0.3,1.4,0.6,2.1,0.6c0.7,0,1.3-0.3,1.3-0.9c0-0.5-0.3-0.7-1.3-1.1
			c-1.4-0.5-2-0.9-2-1.9c0-1.1,0.9-1.9,2.2-1.9c0.7,0,1.4,0.2,1.9,0.4l-0.2,1.1c-0.6-0.3-1.2-0.5-1.7-0.5c-0.6,0-1.1,0.3-1.1,0.8
			c0,0.5,0.4,0.7,1.4,1c1.4,0.5,1.9,0.9,1.9,1.9C149.2,17,148.3,17.8,146.8,17.8z"/>
		<path d="M153.1,12.2v5.4h-1.2v-5.4h-2v-1h5.1l0.2,1H153.1z"/>
		<path d="M156.5,17.7v-6.5h1.2v6.5H156.5z"/>
		<path d="M162.3,17.8c-1.7,0-3.1-1.3-3.1-3.4c0-2.1,1.5-3.4,3.1-3.4c1.7,0,3.1,1.2,3.1,3.4C165.4,16.5,164,17.8,162.3,17.8z
			 M162.3,12.1c-1.2,0-1.9,1-1.9,2.4c0,1.3,0.8,2.4,1.9,2.4c1.2,0,1.9-1,1.9-2.4C164.2,13.1,163.5,12.1,162.3,12.1z"/>
		<path d="M171.2,17.7l-3.2-4.8v4.8h-1v-6.5h1.1l3.1,4.6v-4.6h1v6.5H171.2z"/>
		<path d="M175.8,17.8c-0.8,0-1.6-0.2-2.2-0.5l0.2-1c0.6,0.3,1.4,0.6,2.1,0.6c0.7,0,1.3-0.3,1.3-0.9c0-0.5-0.3-0.7-1.3-1.1
			c-1.4-0.5-2-0.9-2-1.9c0-1.1,0.9-1.9,2.2-1.9c0.7,0,1.4,0.2,1.9,0.4l-0.2,1.1c-0.6-0.3-1.2-0.5-1.7-0.5c-0.6,0-1.1,0.3-1.1,0.8
			c0,0.5,0.4,0.7,1.4,1c1.4,0.5,1.9,0.9,1.9,1.9C178.1,17,177.2,17.8,175.8,17.8z"/>
		<path d="M179.5,17.7v-1.5h1.3v1.5H179.5z"/>
		<path d="M187.5,14.1h-0.9v3.6h-1.2V8.9h2.3c1.9,0,3,0.9,3,2.5C190.7,13.2,189.4,14.1,187.5,14.1z M187.7,10h-1.1v3.1h1
			c1.2,0,1.9-0.5,1.9-1.6C189.5,10.5,188.9,10,187.7,10z"/>
		<path d="M192.1,17.7v-6.5h1.1v5.5h2.4l0.2,1H192.1z"/>
		<path d="M197.2,17.7v-6.5h4v1h-2.9v1.6h2.3l0.2,1h-2.5v1.8h3v1H197.2z"/>
		<path d="M203.3,17.7h-1.1l2.5-6.5h1.3l2.5,6.4l-1.1,0.3l-0.6-1.7h-2.9L203.3,17.7z M205.3,12.3L205.3,12.3l-1.1,2.8h2.1
			C206.4,15.1,205.3,12.3,205.3,12.3z"/>
		<path d="M211.5,17.8c-0.8,0-1.6-0.2-2.2-0.5l0.2-1c0.6,0.3,1.4,0.6,2.1,0.6c0.7,0,1.3-0.3,1.3-0.9c0-0.5-0.3-0.7-1.3-1.1
			c-1.4-0.5-2-0.9-2-1.9c0-1.1,0.9-1.9,2.2-1.9c0.7,0,1.4,0.2,1.9,0.4l-0.2,1.1c-0.6-0.3-1.2-0.5-1.7-0.5c-0.6,0-1.1,0.3-1.1,0.8
			c0,0.5,0.4,0.7,1.4,1c1.4,0.5,1.9,0.9,1.9,1.9C213.8,17,212.9,17.8,211.5,17.8z"/>
		<path d="M215.3,17.7v-6.5h4v1h-2.9v1.6h2.3l0.2,1h-2.5v1.8h3v1H215.3z"/>
		<path d="M225.4,17.8c-0.8,0-1.6-0.2-2.2-0.5l0.2-1c0.6,0.3,1.4,0.6,2.1,0.6c0.7,0,1.3-0.3,1.3-0.9c0-0.5-0.3-0.7-1.3-1.1
			c-1.4-0.5-2-0.9-2-1.9c0-1.1,0.9-1.9,2.2-1.9c0.7,0,1.4,0.2,1.9,0.4l-0.2,1.1c-0.6-0.3-1.2-0.5-1.7-0.5c-0.6,0-1.1,0.3-1.1,0.8
			c0,0.5,0.4,0.7,1.4,1c1.4,0.5,1.9,0.9,1.9,1.9C227.8,17,226.8,17.8,225.4,17.8z"/>
		<path d="M233.3,17.7v-2.8h-3v2.8h-1.1v-6.5h1.1v2.6h3v-2.6h1.2v6.5H233.3z"/>
		<path d="M239.1,17.8c-1.7,0-3.1-1.3-3.1-3.4c0-2.1,1.5-3.4,3.1-3.4c1.7,0,3.1,1.2,3.1,3.4C242.2,16.5,240.7,17.8,239.1,17.8z
			 M239.1,12.1c-1.2,0-1.9,1-1.9,2.4c0,1.3,0.8,2.4,1.9,2.4c1.2,0,1.9-1,1.9-2.4C241,13.1,240.3,12.1,239.1,12.1z"/>
		<path d="M247.4,17.8l-1.9-2.6h-0.7v2.5h-1.1v-6.5h2c1.5,0,2.4,0.7,2.4,2c0,1-0.5,1.6-1.4,1.8l1.8,2.4L247.4,17.8z M245.6,12.2
			h-0.8v2.1h0.8c0.8,0,1.3-0.4,1.3-1.1C246.9,12.6,246.5,12.2,245.6,12.2z"/>
		<path d="M252.2,12.2v5.4H251v-5.4h-2v-1h5.1l0.2,1H252.2z"/>
		<path d="M260.3,15.2h-0.8v2.5h-1.1v-6.5h2.1c1.4,0,2.3,0.7,2.3,2C262.8,14.5,261.8,15.2,260.3,15.2z M260.3,12.2h-0.8v2.1h0.8
			c0.8,0,1.3-0.3,1.3-1C261.6,12.6,261.2,12.2,260.3,12.2z"/>
		<path d="M264.1,17.7H263l2.5-6.5h1.3l2.5,6.4l-1.1,0.3l-0.6-1.7h-2.9L264.1,17.7z M266.2,12.3L266.2,12.3l-1.1,2.8h2.1
			C267.2,15.1,266.2,12.3,266.2,12.3z"/>
		<path d="M272.8,15.2v2.5h-1.2v-2.5l-2.3-3.8l1.2-0.3l1.7,3.1l1.7-2.9h1.3L272.8,15.2z"/>
		<path d="M279.6,17.7h-1.1l2.5-6.5h1.3l2.5,6.4l-1.1,0.3l-0.6-1.7h-2.9L279.6,17.7z M281.6,12.3L281.6,12.3l-1.1,2.8h2.1
			C282.7,15.1,281.6,12.3,281.6,12.3z"/>
		<path d="M290.3,17.7l-3.2-4.8v4.8h-1v-6.5h1.1l3.1,4.6v-4.6h1v6.5H290.3z"/>
		<path d="M295.9,15.2v2.5h-1.2v-2.5l-2.3-3.8l1.2-0.3l1.7,3.1l1.7-2.9h1.3L295.9,15.2z"/>
		<path d="M304.9,17.8c-1.7,0-3.1-1.3-3.1-3.4c0-2.1,1.5-3.4,3.1-3.4c1.7,0,3.1,1.2,3.1,3.4C308,16.5,306.6,17.8,304.9,17.8z
			 M304.9,12.1c-1.2,0-1.9,1-1.9,2.4c0,1.3,0.8,2.4,1.9,2.4c1.2,0,1.9-1,1.9-2.4C306.9,13.1,306.1,12.1,304.9,12.1z"/>
		<path d="M311.5,15.2h-0.8v2.5h-1.1v-6.5h2.1c1.4,0,2.3,0.7,2.3,2C313.9,14.5,313,15.2,311.5,15.2z M311.5,12.2h-0.8v2.1h0.8
			c0.8,0,1.3-0.3,1.3-1C312.8,12.6,312.3,12.2,311.5,12.2z"/>
		<path d="M315.2,17.7v-6.5h4v1h-2.9v1.6h2.3l0.2,1h-2.5v1.8h3v1H315.2z"/>
		<path d="M325,17.7l-3.2-4.8v4.8h-1v-6.5h1.1l3.1,4.6v-4.6h1v6.5H325z"/>
		<path d="M330.8,17.7v-6.5h1.2v6.5H330.8z"/>
		<path d="M338.1,17.7l-3.2-4.8v4.8h-1v-6.5h1.1l3.1,4.6v-4.6h1v6.5H338.1z"/>
		<path d="M343.8,17.8h-1.1l-2.5-6.4l1.2-0.3l1.9,5.3l1.9-5.1h1.2L343.8,17.8z"/>
		<path d="M350.2,17.8c-1.7,0-3.1-1.3-3.1-3.4c0-2.1,1.5-3.4,3.1-3.4c1.7,0,3.1,1.2,3.1,3.4C353.3,16.5,351.8,17.8,350.2,17.8z
			 M350.2,12.1c-1.2,0-1.9,1-1.9,2.4c0,1.3,0.8,2.4,1.9,2.4c1.2,0,1.9-1,1.9-2.4C352.1,13.1,351.3,12.1,350.2,12.1z"/>
		<path d="M354.8,17.7v-6.5h1.2v6.5H354.8z"/>
		<path d="M360.6,17.8c-1.9,0-3.1-1.4-3.1-3.3c0-2,1.2-3.4,3.1-3.4c0.8,0,1.4,0.2,1.9,0.5l-0.2,1.1c-0.5-0.3-1-0.6-1.6-0.6
			c-1.2,0-2,0.9-2,2.4c0,1.5,0.8,2.4,2,2.4c0.6,0,1.2-0.2,1.7-0.6l0.2,1C362,17.6,361.4,17.8,360.6,17.8z"/>
		<path d="M364,17.7v-6.5h4v1h-2.9v1.6h2.3l0.2,1h-2.5v1.8h3v1H364z"/>
		<path d="M371.2,17.8c-0.8,0-1.6-0.2-2.2-0.5l0.2-1c0.6,0.3,1.4,0.6,2.1,0.6c0.7,0,1.3-0.3,1.3-0.9c0-0.5-0.3-0.7-1.3-1.1
			c-1.4-0.5-2-0.9-2-1.9c0-1.1,0.9-1.9,2.2-1.9c0.7,0,1.4,0.2,1.9,0.4l-0.2,1.1c-0.6-0.3-1.2-0.5-1.7-0.5c-0.6,0-1.1,0.3-1.1,0.8
			c0,0.5,0.4,0.7,1.4,1c1.4,0.5,2,0.9,2,1.9C373.6,17,372.6,17.8,371.2,17.8z"/>
		<path d="M384.4,17.7h-1.1l-1.5-5.1l-1.6,5.1h-1.1l-1.9-6.3l1.2-0.3l1.3,5l1.5-4.9h1.2l1.5,4.9l1.3-4.9h1.1L384.4,17.7z"/>
		<path d="M387.6,17.7v-6.5h1.2v6.5H387.6z"/>
		<path d="M393.3,12.2v5.4h-1.2v-5.4h-2v-1h5.1l0.2,1H393.3z"/>
		<path d="M400.7,17.7v-2.8h-3v2.8h-1.1v-6.5h1.1v2.6h3v-2.6h1.2v6.5H400.7z"/>
		<path d="M409.1,12.2v5.4h-1.2v-5.4h-2v-1h5.1l0.2,1H409.1z"/>
		<path d="M416.6,17.7v-2.8h-3v2.8h-1.1v-6.5h1.1v2.6h3v-2.6h1.2v6.5H416.6z"/>
		<path d="M419.6,17.7v-6.5h1.2v6.5H419.6z"/>
		<path d="M424.4,17.8c-0.8,0-1.6-0.2-2.2-0.5l0.2-1c0.6,0.3,1.4,0.6,2.1,0.6c0.7,0,1.3-0.3,1.3-0.9c0-0.5-0.3-0.7-1.3-1.1
			c-1.4-0.5-2-0.9-2-1.9c0-1.1,0.9-1.9,2.2-1.9c0.7,0,1.4,0.2,1.9,0.4l-0.2,1.1c-0.6-0.3-1.2-0.5-1.7-0.5c-0.6,0-1.1,0.3-1.1,0.8
			c0,0.5,0.4,0.7,1.4,1c1.4,0.5,2,0.9,2,1.9C426.8,17,425.8,17.8,424.4,17.8z"/>
		<path d="M433.8,17.8c-1.9,0-3.1-1.4-3.1-3.3c0-2,1.2-3.4,3.1-3.4c0.8,0,1.4,0.2,1.9,0.5l-0.2,1.1c-0.5-0.3-1-0.6-1.6-0.6
			c-1.2,0-2,0.9-2,2.4c0,1.5,0.8,2.4,2,2.4c0.6,0,1.2-0.2,1.7-0.6l0.2,1C435.2,17.6,434.5,17.8,433.8,17.8z"/>
		<path d="M440.9,17.8l-1.9-2.6h-0.7v2.5h-1.1v-6.5h2c1.5,0,2.4,0.7,2.4,2c0,1-0.5,1.6-1.4,1.8l1.8,2.4L440.9,17.8z M439.1,12.2
			h-0.8v2.1h0.8c0.8,0,1.3-0.4,1.3-1.1C440.4,12.6,440,12.2,439.1,12.2z"/>
		<path d="M443.2,17.7v-6.5h4v1h-2.9v1.6h2.3l0.2,1h-2.5v1.8h3v1H443.2z"/>
		<path d="M450.8,17.7h-2v-6.5h2c2.3,0,3.6,1.4,3.6,3.2C454.3,16.3,453.1,17.7,450.8,17.7z M450.9,12.2H450v4.4h0.9
			c1.5,0,2.3-0.8,2.3-2.2C453.2,13.1,452.2,12.2,450.9,12.2z"/>
		<path d="M455.9,17.7v-6.5h1.2v6.5H455.9z"/>
		<path d="M461.5,12.2v5.4h-1.2v-5.4h-2v-1h5.1l0.2,1H461.5z"/>
		<path d="M471.9,17.7l-3.2-4.8v4.8h-1v-6.5h1.1l3.1,4.6v-4.6h1v6.5H471.9z"/>
		<path d="M477.5,17.8c-1.7,0-3.1-1.3-3.1-3.4c0-2.1,1.5-3.4,3.1-3.4c1.7,0,3.1,1.2,3.1,3.4C480.6,16.5,479.2,17.8,477.5,17.8z
			 M477.5,12.1c-1.2,0-1.9,1-1.9,2.4c0,1.3,0.8,2.4,1.9,2.4c1.2,0,1.9-1,1.9-2.4C479.5,13.1,478.7,12.1,477.5,12.1z"/>
		<path d="M484.5,12.2v5.4h-1.2v-5.4h-2v-1h5.1l0.2,1H484.5z"/>
		<path d="M487.9,17.7v-6.5h4v1H489v1.6h2.3l0.2,1H489v1.8h3v1H487.9z"/>
	</g>
	<g>
		<path d="M65.6,58.9c-1.6-1.3-2.4-2.6-2.4-4.4c0-1.9,1.1-3.4,3-4.5l0.2,1.1c-1.1,0.8-1.8,1.9-1.8,3.4c0,1.5,0.7,2.7,2.3,4.2
			L65.6,58.9z"/>
		<path d="M68.9,60.7c-0.6,0-1,0-1.3-0.1l-0.2-1.3c0.5,0.1,0.9,0.2,1.6,0.2c1.9,0,3.2-0.9,3.2-2.2c0-1-0.7-1.4-2-1.4
			c-0.4,0-0.6,0-1,0l-0.3,0v-1.1l0.5-0.1c1.9-0.2,2.6-1,2.6-2c0-0.8-0.6-1.4-1.6-1.4c-1,0-1.9,0.4-2.7,1l-0.2-1.2c0.7-0.6,1.8-1,3-1
			c1.9,0,2.8,1.1,2.8,2.4c0,1.3-0.9,2.1-1.9,2.5c1.1,0.2,2.1,0.8,2.1,2.2C73.5,59.3,71.6,60.7,68.9,60.7z"/>
		<path d="M74.8,57.9v-1.1l3.3-2.5c0.8-0.6,1.2-1.1,1.2-1.7c0-0.7-0.5-1.2-1.4-1.2c-0.9,0-1.7,0.3-2.7,0.9L75,51.1
			c0.8-0.5,1.8-0.9,2.9-0.9c1.7,0,2.7,0.9,2.7,2.2c0,1.1-0.6,1.8-2,2.8l-2.2,1.5h4.1l0.2,1.2H74.8z"/>
		<path d="M83.4,60.7c-0.6,0-1,0-1.3-0.1l-0.2-1.3c0.5,0.1,0.9,0.2,1.6,0.2c1.9,0,3.2-0.9,3.2-2.2c0-1-0.7-1.4-2-1.4
			c-0.4,0-0.6,0-1,0l-0.3,0v-1.1l0.5-0.1c1.9-0.2,2.6-1,2.6-2c0-0.8-0.6-1.4-1.6-1.4c-1,0-1.9,0.4-2.7,1l-0.2-1.2c0.7-0.6,1.8-1,3-1
			c1.9,0,2.8,1.1,2.8,2.4c0,1.3-0.9,2.1-1.9,2.5c1.1,0.2,2.1,0.8,2.1,2.2C87.9,59.3,86,60.7,83.4,60.7z"/>
		<path d="M89.5,59l-0.2-1.1c1.1-0.7,1.8-1.9,1.8-3.4c0-1.5-0.7-2.7-2.3-4.2L90,50c1.6,1.3,2.4,2.6,2.4,4.4
			C92.4,56.4,91.4,57.9,89.5,59z"/>
		<path d="M102.8,57.9v2.6l-1.2,0.2v-2.8h-4.7v-1l4.4-6.7h1.6v6.5h1.6v1.1H102.8z M101.6,51.7l-3.4,5.1h3.4V51.7z"/>
		<path d="M108.7,58c-1.9,0-3.4-1.5-3.4-3.9c0-2.4,1.5-3.9,3.4-3.9c1.9,0,3.4,1.5,3.4,3.9C112.1,56.5,110.6,58,108.7,58z
			 M108.7,51.3c-1.3,0-2.1,1.3-2.1,2.8c0,1.5,0.7,2.8,2.1,2.8c1.4,0,2.1-1.3,2.1-2.8C110.8,52.6,110,51.3,108.7,51.3z"/>
		<path d="M119.2,57.9v2.6l-1.2,0.2v-2.8h-4.7v-1l4.4-6.7h1.6v6.5h1.6v1.1H119.2z M118,51.7l-3.4,5.1h3.4V51.7z"/>
		<path d="M122,54.3V53h3.7v1.3H122z"/>
		<path d="M130,56.8c-1.7,0-2.9-1.1-2.9-3.1c0-2,1.5-3.5,3.4-3.5c2,0,3.4,1.5,3.4,4.3c0,3.5-2,5.4-5.2,6.2l-0.2-1.2
			c2.4-0.6,3.5-1.8,3.9-3.4C131.6,56.5,130.9,56.8,130,56.8z M132.6,54.6c0-2.1-0.8-3.3-2.1-3.3c-1.2,0-2,1-2,2.3c0,1.3,0.6,2,1.8,2
			c0.9,0,1.6-0.3,2.3-0.7C132.6,54.8,132.6,54.7,132.6,54.6z"/>
		<path d="M136.4,60.7c-0.6,0-1,0-1.3-0.1l-0.2-1.3c0.5,0.1,0.9,0.2,1.6,0.2c1.9,0,3.2-0.9,3.2-2.2c0-1-0.7-1.4-2-1.4
			c-0.4,0-0.6,0-1,0l-0.3,0v-1.1l0.5-0.1c1.9-0.2,2.6-1,2.6-2c0-0.8-0.6-1.4-1.6-1.4c-1,0-1.9,0.4-2.7,1l-0.2-1.2c0.7-0.6,1.8-1,3-1
			c1.9,0,2.8,1.1,2.8,2.4c0,1.3-0.9,2.1-1.9,2.5c1.1,0.2,2.1,0.8,2.1,2.2C141,59.3,139.1,60.7,136.4,60.7z"/>
		<path d="M144.4,60.7l-1.3-0.3l3.7-8.8h-4.6l-0.2-1.2h6.2v1L144.4,60.7z"/>
		<path d="M149.6,57.9v-1.1l3.3-2.5c0.8-0.6,1.2-1.1,1.2-1.7c0-0.7-0.5-1.2-1.4-1.2c-0.9,0-1.7,0.3-2.7,0.9l-0.2-1.2
			c0.8-0.5,1.8-0.9,2.9-0.9c1.7,0,2.7,0.9,2.7,2.2c0,1.1-0.6,1.8-2,2.8l-2.2,1.5h4.1l0.2,1.2H149.6z"/>
	</g>
	<g>
		<path d="M65.9,111.5h-1v2.9h-1.3v-7.5h2.5c1.6,0,2.7,0.8,2.7,2.3C68.8,110.8,67.6,111.5,65.9,111.5z M65.9,108h-1v2.4h1
			c1,0,1.5-0.4,1.5-1.2C67.4,108.4,66.9,108,65.9,108z"/>
		<path d="M70.2,114.4v-7.5h1.3v6.4h2.9l0.2,1.2H70.2z"/>
		<path d="M76.2,114.4v-7.5h4.7v1.2h-3.3v1.9h2.7l0.2,1.2h-2.9v2.2H81v1.2H76.2z"/>
		<path d="M83.3,114.4h-1.3l3-7.6h1.5l2.9,7.5l-1.3,0.3l-0.7-2H84L83.3,114.4z M85.6,108.1L85.6,108.1l-1.2,3.3h2.5
			C86.9,111.4,85.6,108.1,85.6,108.1z"/>
		<path d="M92.8,114.5c-0.9,0-1.8-0.2-2.6-0.6l0.2-1.2c0.7,0.4,1.7,0.7,2.5,0.7c0.9,0,1.5-0.4,1.5-1c0-0.6-0.4-0.9-1.5-1.2
			c-1.6-0.6-2.4-1-2.4-2.2c0-1.3,1.1-2.2,2.5-2.2c0.9,0,1.6,0.2,2.2,0.4l-0.2,1.2c-0.7-0.4-1.4-0.6-2-0.6c-0.7,0-1.2,0.4-1.2,0.9
			c0,0.6,0.4,0.8,1.6,1.2c1.6,0.6,2.3,1.1,2.3,2.3C95.6,113.6,94.4,114.5,92.8,114.5z"/>
		<path d="M97.2,114.4v-7.5h4.7v1.2h-3.3v1.9h2.7l0.2,1.2h-2.9v2.2h3.5v1.2H97.2z"/>
		<path d="M114.7,114.4l-0.5-6.1l-2.2,6.1h-1.3l-2.2-6.1l-0.4,6.1h-1.2l0.6-7.5h1.9l2.1,6.1l2.1-6.1h1.9l0.6,7.5H114.7z"/>
		<path d="M118.6,114.4h-1.3l3-7.6h1.5l2.9,7.5l-1.3,0.3l-0.7-2h-3.3L118.6,114.4z M121,108.1L121,108.1l-1.2,3.3h2.5
			C122.2,111.4,121,108.1,121,108.1z"/>
		<path d="M130.8,114.6l-3.3-3.8v3.7h-1.3v-7.5h1.3v3.4l3-3.4h1.5l-3.2,3.5l3.4,3.8L130.8,114.6z"/>
		<path d="M133.4,114.4v-7.5h4.7v1.2h-3.3v1.9h2.7l0.2,1.2h-2.9v2.2h3.5v1.2H133.4z"/>
		<path d="M146.4,114.6c-2.2,0-3.6-1.6-3.6-3.9c0-2.4,1.5-3.9,3.6-3.9c0.9,0,1.6,0.2,2.2,0.6l-0.2,1.2c-0.5-0.4-1.1-0.7-1.9-0.7
			c-1.5,0-2.3,1.1-2.3,2.8c0,1.7,0.9,2.8,2.3,2.8c0.7,0,1.4-0.3,2-0.7l0.2,1.1C148.1,114.3,147.3,114.6,146.4,114.6z"/>
		<path d="M155.1,114.4v-3.3h-3.5v3.3h-1.3v-7.5h1.3v3h3.5v-3h1.4v7.5H155.1z"/>
		<path d="M158.6,114.4v-7.5h4.7v1.2H160v1.9h2.7l0.2,1.2H160v2.2h3.5v1.2H158.6z"/>
		<path d="M168.2,114.6c-2.2,0-3.6-1.6-3.6-3.9c0-2.4,1.5-3.9,3.6-3.9c0.9,0,1.6,0.2,2.2,0.6l-0.2,1.2c-0.5-0.4-1.1-0.7-1.9-0.7
			c-1.5,0-2.3,1.1-2.3,2.8c0,1.7,0.9,2.8,2.3,2.8c0.7,0,1.4-0.3,2-0.7l0.2,1.1C169.9,114.3,169.1,114.6,168.2,114.6z"/>
		<path d="M176.8,114.6l-3.3-3.8v3.7h-1.3v-7.5h1.3v3.4l3-3.4h1.5l-3.2,3.5l3.4,3.8L176.8,114.6z"/>
		<path d="M181.3,114.5c-0.9,0-1.8-0.2-2.6-0.6l0.2-1.2c0.7,0.4,1.7,0.7,2.5,0.7c0.9,0,1.5-0.4,1.5-1c0-0.6-0.4-0.9-1.5-1.2
			c-1.6-0.6-2.4-1-2.4-2.2c0-1.3,1.1-2.2,2.5-2.2c0.9,0,1.6,0.2,2.2,0.4l-0.2,1.2c-0.7-0.4-1.4-0.6-2-0.6c-0.7,0-1.2,0.4-1.2,0.9
			c0,0.6,0.4,0.8,1.6,1.2c1.6,0.6,2.3,1.1,2.3,2.3C184.1,113.6,183,114.5,181.3,114.5z"/>
		<path d="M191.3,111.5h-1v2.9H189v-7.5h2.5c1.6,0,2.7,0.8,2.7,2.3C194.2,110.8,193.1,111.5,191.3,111.5z M191.4,108h-1v2.4h1
			c1,0,1.5-0.4,1.5-1.2C192.9,108.4,192.3,108,191.4,108z"/>
		<path d="M195.8,114.4h-1.3l3-7.6h1.5l2.9,7.5l-1.3,0.3l-0.7-2h-3.3L195.8,114.4z M198.2,108.1L198.2,108.1l-1.2,3.3h2.5
			C199.4,111.4,198.2,108.1,198.2,108.1z"/>
		<path d="M205.9,111.5v2.9h-1.4v-2.9l-2.7-4.5l1.4-0.3l2,3.6l2-3.4h1.5L205.9,111.5z"/>
		<path d="M209.9,114.4h-1.3l3-7.6h1.5l2.9,7.5l-1.3,0.3l-0.7-2h-3.3L209.9,114.4z M212.3,108.1L212.3,108.1l-1.2,3.3h2.5
			C213.5,111.4,212.3,108.1,212.3,108.1z"/>
		<path d="M219.8,114.4h-2.5v-7.5h2.4c1.7,0,2.5,0.8,2.5,1.9c0,0.9-0.4,1.4-1.1,1.6c0.8,0.3,1.4,0.8,1.4,1.8
			C222.7,113.7,221.5,114.4,219.8,114.4z M219.8,108h-1.1v1.9h1.1c0.9,0,1.4-0.4,1.4-1C221.1,108.3,220.7,108,219.8,108z M219.9,111
			h-1.2v2.3h1.2c1,0,1.6-0.3,1.6-1.1C221.4,111.4,220.9,111,219.9,111z"/>
		<path d="M224.4,114.4v-7.5h1.3v6.4h2.9l0.2,1.2H224.4z"/>
		<path d="M230.4,114.4v-7.5h4.7v1.2h-3.3v1.9h2.7l0.2,1.2h-2.9v2.2h3.5v1.2H230.4z"/>
		<path d="M243.2,108.1v6.4h-1.4v-6.4h-2.4v-1.2h6l0.2,1.2H243.2z"/>
		<path d="M250.1,114.6c-1.9,0-3.6-1.5-3.6-3.9c0-2.5,1.7-3.9,3.6-3.9c1.9,0,3.6,1.5,3.6,3.9C253.8,113.1,252.1,114.6,250.1,114.6z
			 M250.1,107.9c-1.4,0-2.3,1.2-2.3,2.8c0,1.5,0.9,2.8,2.3,2.8c1.4,0,2.2-1.2,2.2-2.8C252.4,109.1,251.5,107.9,250.1,107.9z"/>
		<path d="M255.4,109.1v-1.8h1.5v1.8H255.4z M255.4,114.4v-1.8h1.5v1.8H255.4z"/>
	</g>
	<g>
		<path d="M343.6,57.9h-2.7v-7.6h2.8c1.7,0,2.7,0.7,2.7,2c0,0.9-0.5,1.4-1.1,1.7c0.8,0.3,1.4,0.8,1.4,1.8
			C346.7,57.2,345.4,57.9,343.6,57.9z M343.6,51.6h-1v1.8h0.9c0.8,0,1.2-0.3,1.2-1C344.7,51.9,344.3,51.6,343.6,51.6z M343.6,54.5
			h-1v2.1h1c0.8,0,1.4-0.3,1.4-1C345,54.9,344.5,54.5,343.6,54.5z"/>
		<path d="M348.2,57.9v-7.6h1.8v7.6H348.2z"/>
		<path d="M351.9,57.9v-7.6h1.8v6.1h2.7l0.2,1.5H351.9z"/>
		<path d="M357.9,57.9v-7.6h1.8v6.1h2.7l0.2,1.5H357.9z"/>
		<path d="M364,57.9v-7.6h1.8v7.6H364z"/>
		<path d="M372.6,57.9l-3.3-5v5h-1.6v-7.6h1.7l3.2,4.8v-4.8h1.6v7.6H372.6z"/>
		<path d="M379.4,58c-2.4,0-3.8-1.6-3.8-3.9c0-2.4,1.5-4,3.8-4c1,0,1.7,0.2,2.4,0.6l-0.2,1.5c-0.6-0.4-1.3-0.7-2.1-0.7
			c-1.3,0-2.1,0.9-2.1,2.5c0,1.6,0.7,2.5,2.1,2.5c0.5,0,0.8-0.1,1.1-0.3v-1.5h-1.4l-0.2-1.3h3.2v3.7C381.5,57.7,380.6,58,379.4,58z"
			/>
		<path d="M387.8,57.3c-0.9,0-1.6-0.6-1.6-1.9c0-2.5,1.7-4.3,3.5-4.3c0.8,0,1.6,0.2,2.2,0.4l-0.6,3.2c0,0.2-0.1,0.6-0.1,0.8
			c0,0.5,0.3,0.9,0.9,0.9c1,0,1.8-1.1,1.8-3.1c0-2.9-1.8-4.3-4.3-4.3c-2.9,0-5.5,2.6-5.5,6.1c0,3.1,1.8,4.4,4.3,4.4
			c1.2,0,2.3-0.3,3.2-0.7l0.1,0.5c-0.8,0.4-2,0.7-3.3,0.7c-3,0-4.9-1.7-4.9-4.9c0-3.6,2.7-6.7,6.2-6.7c2.9,0,4.9,1.8,4.9,4.9
			c0,2.3-1.1,3.9-2.8,3.9c-1,0-1.8-0.5-2-1.3C389.1,56.9,388.5,57.3,387.8,57.3z M390.3,52.4c-0.2-0.1-0.4-0.1-0.7-0.1
			c-0.9,0-1.9,1.2-1.9,2.8c0,0.7,0.3,0.9,0.7,0.9s0.8-0.3,1.6-1.2L390.3,52.4z"/>
		<path d="M403.9,57.9l-0.4-5.9l-1.8,5.9h-1.7l-1.8-5.9l-0.4,5.9h-1.5l0.6-7.6h2.4l1.7,5.5l1.7-5.5h2.4l0.5,7.6H403.9z"/>
		<path d="M407.4,57.9v-7.6h1.8v6.1h2.7l0.2,1.5H407.4z"/>
		<path d="M416.6,58h-1.9l-2.7-7.5l1.8-0.3l1.9,5.9l1.9-5.7h1.8L416.6,58z"/>
		<path d="M420.6,57.9v-7.6h5v1.4h-3.2v1.6h2.5l0.2,1.4h-2.7v1.8h3.3v1.4H420.6z"/>
		<path d="M430.5,58c-2.4,0-3.8-1.6-3.8-3.9c0-2.4,1.5-4,3.8-4c1,0,1.7,0.2,2.4,0.6l-0.2,1.5c-0.6-0.4-1.3-0.7-2.1-0.7
			c-1.3,0-2.1,0.9-2.1,2.5c0,1.6,0.7,2.5,2.1,2.5c0.5,0,0.8-0.1,1.1-0.3v-1.5h-1.4l-0.2-1.3h3.2v3.7C432.5,57.7,431.6,58,430.5,58z"
			/>
		<path d="M435.9,57.9h-1.7l2.8-7.7h2.1l2.7,7.5l-1.7,0.3l-0.6-1.8h-3.1L435.9,57.9z M438,51.7L438,51.7l-1.1,3.1h2.1L438,51.7z"/>
		<path d="M448,57.9l-3.3-5v5H443v-7.6h1.7l3.2,4.8v-4.8h1.6v7.6H448z"/>
		<path d="M455.9,58l-2.8-3.8v3.6h-1.8v-7.6h1.8v3.4l2.6-3.4h2l-2.8,3.5l3,3.9L455.9,58z"/>
		<path d="M458.9,57.9v-7.6h1.8v7.6H458.9z"/>
		<path d="M466,51.8v6.1h-1.8v-6.1h-2.2v-1.5h6.1l0.2,1.5H466z"/>
		<path d="M472.7,58c-2.3,0-3.7-1.5-3.7-3.9c0-2.4,1.5-4,3.7-4c0.9,0,1.6,0.2,2.2,0.5l-0.2,1.6c-0.5-0.4-1.1-0.6-1.8-0.6
			c-1.2,0-2.1,0.9-2.1,2.5c0,1.6,0.8,2.5,2.1,2.5c0.7,0,1.3-0.2,1.9-0.6l0.2,1.5C474.4,57.8,473.6,58,472.7,58z"/>
		<path d="M481.1,57.9v-3.2h-2.9v3.2h-1.8v-7.6h1.8v2.9h2.9v-2.9h1.8v7.6H481.1z"/>
		<path d="M484.7,57.9v-7.6h5v1.4h-3.2v1.6h2.5l0.2,1.4h-2.7v1.8h3.3v1.4H484.7z"/>
		<path d="M496.2,57.9l-3.3-5v5h-1.6v-7.6h1.7l3.2,4.8v-4.8h1.6v7.6H496.2z"/>
		<path d="M499.5,57.9v-2.2h1.9v2.2H499.5z"/>
		<path d="M506.6,58c-2.3,0-3.7-1.5-3.7-3.9c0-2.4,1.5-4,3.7-4c0.9,0,1.6,0.2,2.2,0.5l-0.2,1.6c-0.5-0.4-1.1-0.6-1.8-0.6
			c-1.2,0-2.1,0.9-2.1,2.5c0,1.6,0.8,2.5,2.1,2.5c0.7,0,1.3-0.2,1.9-0.6l0.2,1.5C508.2,57.8,507.4,58,506.6,58z"/>
		<path d="M513.4,58c-2,0-3.7-1.5-3.7-4c0-2.4,1.7-4,3.7-4c2,0,3.7,1.5,3.7,4C517.1,56.5,515.4,58,513.4,58z M513.4,51.6
			c-1.2,0-1.9,1.1-1.9,2.5c0,1.4,0.7,2.5,1.9,2.5c1.2,0,1.9-1.1,1.9-2.5C515.3,52.7,514.6,51.6,513.4,51.6z"/>
		<path d="M526.1,57.9l-0.4-5.9l-1.8,5.9h-1.7l-1.8-5.9l-0.4,5.9h-1.5l0.6-7.6h2.4l1.7,5.5l1.7-5.5h2.4l0.5,7.6H526.1z"/>
	</g>
	<g>
		<path d="M298,114.4l-0.4-5.9l-1.8,5.9H294l-1.8-5.9l-0.4,5.9h-1.5l0.6-7.6h2.4l1.7,5.5l1.7-5.5h2.4l0.6,7.6H298z"/>
		<path d="M301.4,114.4v-7.6h1.8v6.1h2.7l0.2,1.5H301.4z"/>
		<path d="M314.6,114.5h-1.9L310,107l1.8-0.3l1.9,5.9l1.9-5.7h1.8L314.6,114.5z"/>
		<path d="M318.6,114.4v-7.6h5v1.4h-3.2v1.6h2.5l0.2,1.4h-2.7v1.8h3.3v1.4H318.6z"/>
		<path d="M328.4,114.6c-2.4,0-3.8-1.6-3.8-3.9c0-2.4,1.5-4,3.8-4c1,0,1.7,0.2,2.4,0.6l-0.2,1.5c-0.6-0.4-1.3-0.7-2.1-0.7
			c-1.3,0-2.1,0.9-2.1,2.5c0,1.6,0.7,2.5,2.1,2.5c0.5,0,0.8-0.1,1.1-0.3v-1.5h-1.4l-0.2-1.3h3.2v3.7
			C330.5,114.3,329.6,114.6,328.4,114.6z"/>
		<path d="M333.9,114.4h-1.7l2.8-7.7h2.1l2.7,7.5l-1.7,0.3l-0.6-1.8h-3.1L333.9,114.4z M336,108.2L336,108.2l-1.1,3.1h2.1L336,108.2
			z"/>
		<path d="M345.9,114.4l-3.3-5v5H341v-7.6h1.7l3.2,4.8v-4.8h1.6v7.6H345.9z"/>
		<path d="M357.1,114.6l-2.8-3.8v3.6h-1.8v-7.6h1.8v3.4l2.6-3.4h2l-2.8,3.5l3,3.9L357.1,114.6z"/>
		<path d="M360,114.4v-7.6h1.8v7.6H360z"/>
		<path d="M367.1,108.3v6.1h-1.8v-6.1h-2.2v-1.5h6.1l0.2,1.5H367.1z"/>
		<path d="M373.9,114.6c-2.3,0-3.7-1.5-3.7-3.9c0-2.4,1.5-4,3.7-4c0.9,0,1.6,0.2,2.2,0.5l-0.2,1.6c-0.5-0.4-1.1-0.6-1.8-0.6
			c-1.2,0-2.1,0.9-2.1,2.5c0,1.6,0.8,2.5,2.1,2.5c0.7,0,1.3-0.2,1.9-0.6l0.2,1.5C375.5,114.3,374.7,114.6,373.9,114.6z"/>
		<path d="M382.2,114.4v-3.2h-2.9v3.2h-1.8v-7.6h1.8v2.9h2.9v-2.9h1.8v7.6H382.2z"/>
		<path d="M385.8,114.4v-7.6h5v1.4h-3.2v1.6h2.5l0.2,1.4h-2.7v1.8h3.3v1.4H385.8z"/>
		<path d="M397.4,114.4l-3.3-5v5h-1.6v-7.6h1.7l3.2,4.8v-4.8h1.6v7.6H397.4z"/>
		<path d="M403.7,111v-1.7h3.8v1.7H403.7z"/>
		<path d="M413.4,117.2c-0.6,0-1,0-1.4-0.1l-0.3-1.6c0.5,0.1,1.1,0.2,1.7,0.2c1.7,0,2.8-0.8,2.8-1.8c0-0.8-0.6-1.2-1.7-1.2
			c-0.3,0-0.7,0-1,0.1l-0.4,0v-1.5l0.6-0.1c1.7-0.2,2.2-0.9,2.2-1.7c0-0.7-0.5-1.2-1.4-1.2c-0.9,0-1.8,0.4-2.6,1l-0.2-1.5
			c0.8-0.6,1.9-1,3.1-1c1.9,0,2.9,1,2.9,2.5c0,1.3-0.9,2.1-1.8,2.5c1.1,0.2,2,0.8,2,2.2C418.1,115.9,416.1,117.2,413.4,117.2z"/>
		<path d="M419.3,114.4v-1.4l3.2-2.5c0.7-0.5,1-0.9,1-1.5c0-0.6-0.4-1-1.2-1c-0.8,0-1.7,0.3-2.6,0.9l-0.3-1.5
			c0.9-0.5,1.9-0.8,3.1-0.8c1.7,0,2.8,0.9,2.8,2.2c0,1.1-0.6,1.7-1.8,2.6l-1.9,1.4h3.7l0.2,1.5H419.3z"/>
		<path d="M430.9,107.9c1.7,0,2.9,1.1,2.9,3.1c0,2.1-1.5,3.6-3.5,3.6c-2.1,0-3.5-1.5-3.5-4.3c0-3.6,2.3-5.6,5.4-6.3l0.3,1.6
			c-2.2,0.5-3.4,1.6-3.8,3C429.3,108.2,430.1,107.9,430.9,107.9z M428.5,110.3c0,1.8,0.7,2.9,1.8,2.9c1,0,1.7-0.8,1.7-2
			c0-1.2-0.5-1.8-1.6-1.8c-0.7,0-1.4,0.3-2,0.6C428.5,110.1,428.5,110.2,428.5,110.3z"/>
		<path d="M438.4,114.6c-2,0-3.5-1.5-3.5-4c0-2.4,1.5-4,3.5-4c2,0,3.6,1.5,3.6,4C442,113.1,440.4,114.6,438.4,114.6z M438.4,108.1
			c-1.1,0-1.7,1-1.7,2.5c0,1.5,0.7,2.5,1.7,2.5c1.1,0,1.8-1,1.8-2.5C440.2,109.1,439.5,108.1,438.4,108.1z"/>
		<path d="M450,114.6c-2.3,0-3.7-1.5-3.7-3.9c0-2.4,1.5-4,3.7-4c0.9,0,1.6,0.2,2.2,0.5l-0.2,1.6c-0.5-0.4-1.1-0.6-1.8-0.6
			c-1.2,0-2.1,0.9-2.1,2.5c0,1.6,0.8,2.5,2.1,2.5c0.7,0,1.3-0.2,1.9-0.6l0.2,1.5C451.6,114.3,450.8,114.6,450,114.6z"/>
		<path d="M454.6,114.4H453l2.8-7.7h2.1l2.7,7.5l-1.7,0.3l-0.6-1.8h-3.1L454.6,114.4z M456.8,108.2L456.8,108.2l-1.1,3.1h2.1
			L456.8,108.2z"/>
		<path d="M464.1,114.5c-1,0-2-0.2-2.8-0.6l0.3-1.5c0.7,0.4,1.8,0.7,2.6,0.7c0.8,0,1.2-0.3,1.2-0.8c0-0.5-0.3-0.7-1.3-1
			c-1.7-0.5-2.6-1-2.6-2.3c0-1.4,1.1-2.3,2.7-2.3c1,0,1.8,0.2,2.4,0.5l-0.3,1.5c-0.7-0.3-1.4-0.6-2.1-0.6c-0.7,0-1.1,0.3-1.1,0.7
			c0,0.5,0.3,0.7,1.3,1c1.8,0.6,2.5,1.1,2.5,2.4C467,113.6,465.8,114.5,464.1,114.5z"/>
		<path d="M468.5,114.4v-7.6h1.8v7.6H468.5z"/>
		<path d="M475.6,108.3v6.1h-1.8v-6.1h-2.2v-1.5h6.1l0.2,1.5H475.6z"/>
		<path d="M479.7,114.4H478l2.8-7.7h2.1l2.7,7.5l-1.7,0.3l-0.6-1.8h-3.1L479.7,114.4z M481.8,108.2L481.8,108.2l-1.1,3.1h2.1
			L481.8,108.2z"/>
		<path d="M489.1,114.5c-1,0-2-0.2-2.8-0.6l0.3-1.5c0.7,0.4,1.8,0.7,2.6,0.7c0.8,0,1.2-0.3,1.2-0.8c0-0.5-0.3-0.7-1.3-1
			c-1.7-0.5-2.6-1-2.6-2.3c0-1.4,1.1-2.3,2.7-2.3c1,0,1.8,0.2,2.4,0.5l-0.3,1.5c-0.7-0.3-1.4-0.6-2.1-0.6c-0.7,0-1.1,0.3-1.1,0.7
			c0,0.5,0.3,0.7,1.3,1c1.8,0.6,2.5,1.1,2.5,2.4C492,113.6,490.9,114.5,489.1,114.5z"/>
		<path d="M497.6,114.4h-1.7l2.8-7.7h2.1l2.7,7.5l-1.7,0.3l-0.6-1.8h-3.1L497.6,114.4z M499.8,108.2L499.8,108.2l-1.1,3.1h2.1
			L499.8,108.2z"/>
		<path d="M508.4,114.5h-1.9l-2.7-7.5l1.8-0.3l1.9,5.9l1.9-5.7h1.8L508.4,114.5z"/>
		<path d="M512.4,114.4v-7.6h5v1.4h-3.2v1.6h2.5l0.2,1.4h-2.7v1.8h3.3v1.4H512.4z"/>
		<path d="M519.5,116.5l-1-0.3l0.7-4h2L519.5,116.5z"/>
		<path d="M525.8,114.4v-7.6h1.8v6.1h2.7l0.2,1.5H525.8z"/>
		<path d="M534.7,114.6c-2,0-3.7-1.5-3.7-4c0-2.4,1.7-4,3.7-4c2,0,3.7,1.5,3.7,4C538.4,113,536.8,114.6,534.7,114.6z M534.7,108.1
			c-1.2,0-1.9,1.1-1.9,2.5c0,1.4,0.7,2.5,1.9,2.5c1.2,0,1.9-1.1,1.9-2.5C536.6,109.2,535.9,108.1,534.7,108.1z"/>
		<path d="M542.2,114.5c-1,0-2-0.2-2.8-0.6l0.3-1.5c0.7,0.4,1.8,0.7,2.6,0.7c0.8,0,1.2-0.3,1.2-0.8c0-0.5-0.3-0.7-1.3-1
			c-1.7-0.5-2.6-1-2.6-2.3c0-1.4,1.1-2.3,2.7-2.3c1,0,1.8,0.2,2.4,0.5l-0.3,1.5c-0.7-0.3-1.4-0.6-2.1-0.6c-0.7,0-1.1,0.3-1.1,0.7
			c0,0.5,0.3,0.7,1.3,1c1.8,0.6,2.5,1.1,2.5,2.4C545.1,113.6,543.9,114.5,542.2,114.5z"/>
		<path d="M550.7,114.4H549l2.8-7.7h2.1l2.7,7.5l-1.7,0.3l-0.6-1.8h-3.1L550.7,114.4z M552.8,108.2L552.8,108.2l-1.1,3.1h2.1
			L552.8,108.2z"/>
		<path d="M562.8,114.4l-3.3-5v5h-1.6v-7.6h1.7l3.2,4.8v-4.8h1.6v7.6H562.8z"/>
		<path d="M569.5,114.6c-2.4,0-3.8-1.6-3.8-3.9c0-2.4,1.5-4,3.8-4c1,0,1.7,0.2,2.4,0.6l-0.2,1.5c-0.6-0.4-1.3-0.7-2.1-0.7
			c-1.3,0-2.1,0.9-2.1,2.5c0,1.6,0.7,2.5,2.1,2.5c0.5,0,0.8-0.1,1.1-0.3v-1.5h-1.4l-0.2-1.3h3.2v3.7
			C571.6,114.3,570.7,114.6,569.5,114.6z"/>
		<path d="M574,114.4v-7.6h5v1.4h-3.2v1.6h2.5l0.2,1.4h-2.7v1.8h3.3v1.4H574z"/>
		<path d="M580.6,114.4v-7.6h1.8v6.1h2.7l0.2,1.5H580.6z"/>
		<path d="M586.6,114.4v-7.6h5v1.4h-3.2v1.6h2.5l0.2,1.4h-2.7v1.8h3.3v1.4H586.6z"/>
		<path d="M595.5,114.5c-1,0-2-0.2-2.8-0.6l0.3-1.5c0.7,0.4,1.8,0.7,2.6,0.7c0.8,0,1.2-0.3,1.2-0.8c0-0.5-0.3-0.7-1.3-1
			c-1.7-0.5-2.6-1-2.6-2.3c0-1.4,1.1-2.3,2.7-2.3c1,0,1.8,0.2,2.4,0.5l-0.3,1.5c-0.7-0.3-1.4-0.6-2.1-0.6c-0.7,0-1.1,0.3-1.1,0.7
			c0,0.5,0.3,0.7,1.3,1c1.8,0.6,2.5,1.1,2.5,2.4C598.4,113.6,597.2,114.5,595.5,114.5z"/>
		<path d="M600.3,116.5l-1-0.3l0.7-4h2L600.3,116.5z"/>
		<path d="M610,114.6c-2.3,0-3.7-1.5-3.7-3.9c0-2.4,1.5-4,3.7-4c0.9,0,1.6,0.2,2.2,0.5l-0.2,1.6c-0.5-0.4-1.1-0.6-1.8-0.6
			c-1.2,0-2.1,0.9-2.1,2.5c0,1.6,0.8,2.5,2.1,2.5c0.7,0,1.3-0.2,1.9-0.6l0.2,1.5C611.6,114.3,610.8,114.6,610,114.6z"/>
		<path d="M614.6,114.4h-1.7l2.8-7.7h2.1l2.7,7.5l-1.7,0.3l-0.6-1.8h-3.1L614.6,114.4z M616.8,108.2L616.8,108.2l-1.1,3.1h2.1
			L616.8,108.2z"/>
		<path d="M627.4,113.4c-1.7,0-2.9-1.1-2.9-3.1c0-2.1,1.5-3.6,3.5-3.6c2.1,0,3.6,1.5,3.6,4.3c0,3.6-2.2,5.6-5.5,6.2l-0.2-1.6
			c2.2-0.5,3.4-1.5,3.8-2.9C629,113.2,628.2,113.4,627.4,113.4z M629.9,111c0-1.8-0.7-2.9-1.8-2.9c-1,0-1.7,0.8-1.7,2
			c0,1.2,0.5,1.8,1.6,1.8c0.7,0,1.4-0.2,2-0.6C629.9,111.2,629.9,111.1,629.9,111z"/>
		<path d="M636.3,114.6c-2,0-3.5-1.5-3.5-4c0-2.4,1.5-4,3.5-4c2,0,3.6,1.5,3.6,4C639.9,113.1,638.4,114.6,636.3,114.6z M636.3,108.1
			c-1.1,0-1.7,1-1.7,2.5c0,1.5,0.7,2.5,1.7,2.5c1.1,0,1.8-1,1.8-2.5C638.1,109.1,637.4,108.1,636.3,108.1z"/>
		<path d="M644.5,114.6c-2,0-3.5-1.5-3.5-4c0-2.4,1.5-4,3.5-4c2,0,3.6,1.5,3.6,4C648.1,113.1,646.5,114.6,644.5,114.6z M644.5,108.1
			c-1.1,0-1.7,1-1.7,2.5c0,1.5,0.7,2.5,1.7,2.5c1.1,0,1.8-1,1.8-2.5C646.3,109.1,645.6,108.1,644.5,108.1z"/>
		<path d="M650.6,117.2c-0.6,0-1,0-1.4-0.1l-0.3-1.6c0.5,0.1,1.1,0.2,1.7,0.2c1.7,0,2.8-0.8,2.8-1.8c0-0.8-0.6-1.2-1.7-1.2
			c-0.3,0-0.7,0-1,0.1l-0.4,0v-1.5l0.6-0.1c1.7-0.2,2.2-0.9,2.2-1.7c0-0.7-0.5-1.2-1.4-1.2c-0.9,0-1.8,0.4-2.6,1l-0.2-1.5
			c0.8-0.6,1.9-1,3.1-1c1.9,0,2.9,1,2.9,2.5c0,1.3-0.9,2.1-1.8,2.5c1.1,0.2,2,0.8,2,2.2C655.2,115.9,653.2,117.2,650.6,117.2z"/>
		<path d="M659.3,113.4c-1.7,0-2.9-1.1-2.9-3.1c0-2.1,1.5-3.6,3.5-3.6c2.1,0,3.6,1.5,3.6,4.3c0,3.6-2.2,5.6-5.5,6.2l-0.2-1.6
			c2.2-0.5,3.4-1.5,3.8-2.9C660.8,113.2,660.1,113.4,659.3,113.4z M661.7,111c0-1.8-0.7-2.9-1.8-2.9c-1,0-1.7,0.8-1.7,2
			c0,1.2,0.5,1.8,1.6,1.8c0.7,0,1.4-0.2,2-0.6C661.7,111.2,661.7,111.1,661.7,111z"/>
	</g>
	<line class="st3" x1="0" y1="25.7" x2="750" y2="25.7"/>
	<path d="M17.2,51.8c1.5,3,4,5.5,7,7l2.3-2.3c0.3-0.3,0.7-0.4,1.1-0.3c1.2,0.4,2.5,0.6,3.8,0.6c0.6,0,1.1,0.5,1.1,1.1v3.7
		c0,0.6-0.5,1.1-1.1,1.1c-10,0-18.1-8.1-18.1-18.1c0-0.6,0.5-1.1,1.1-1.1h3.7c0.6,0,1.1,0.5,1.1,1.1c0,1.3,0.2,2.6,0.6,3.8
		c0.1,0.4,0,0.8-0.3,1.1L17.2,51.8z"/>
	<line class="st3" x1="0" y1="81.9" x2="750" y2="81.9"/>
	<line class="st3" x1="45.6" y1="25.7" x2="45.6" y2="138.1"/>
	<line class="st3" x1="274.5" y1="25.7" x2="274.5" y2="138.1"/>
	<line class="st3" x1="324.3" y1="25.7" x2="324.3" y2="81.9"/>
	<path d="M308.6,44.6h-17c-1.2,0-2.1,1-2.1,2.1l0,12.7c0,1.2,1,2.1,2.1,2.1h17c1.2,0,2.1-1,2.1-2.1V46.7
		C310.7,45.6,309.7,44.6,308.6,44.6z M308.6,59.5h-17V48.9l8.5,5.3l8.5-5.3V59.5z M300.1,52l-8.5-5.3h17L300.1,52z"/>
	<path d="M32.4,104.3H21.8v6.4h-2.1v-8.5H26V98h-8.5v6.4h-2.1c-1.2,0-2.1,1-2.1,2.1v12.7c0,1.2,1,2.1,2.1,2.1h17
		c1.2,0,2.1-1,2.1-2.1v-12.7C34.5,105.3,33.6,104.3,32.4,104.3z"/>
	<g>
		<path class="st4" d="M315,167.9c0.1,0.2,0.2,0.3,0.3,0.5l0.4,0.4c0.1-0.1,0.3-0.2,0.5-0.3c0.2-0.1,0.3-0.3,0.5-0.4
			s0.3-0.3,0.3-0.5c0.1-0.2,0.1-0.4,0.1-0.6c0-0.3-0.1-0.6-0.3-0.8c-0.2-0.2-0.5-0.3-0.9-0.3c-0.3,0-0.6,0.1-0.8,0.3
			c-0.3,0.2-0.4,0.5-0.4,0.9c0,0.2,0,0.3,0.1,0.5C314.8,167.6,314.9,167.7,315,167.9z"/>
		<path class="st4" d="M428.1,179.7c0,0.3,0,0.6,0.2,0.8c0.2,0.2,0.4,0.3,0.8,0.3c0.6,0,1.1-0.4,1.6-1.1c0.5-0.7,1.1-1.8,1.6-3.2
			C429.7,177.5,428.3,178.6,428.1,179.7z"/>
		<path class="st4" d="M314.5,170.6c-0.2,0.2-0.4,0.3-0.6,0.5c-0.2,0.2-0.3,0.4-0.4,0.6c-0.1,0.2-0.2,0.5-0.2,0.8
			c0,0.3,0.1,0.5,0.2,0.7c0.1,0.2,0.3,0.4,0.5,0.6c0.2,0.2,0.4,0.3,0.7,0.4c0.2,0.1,0.5,0.1,0.8,0.1c0.5,0,0.9-0.1,1.3-0.3
			c0.4-0.2,0.7-0.5,1-0.9l-2.5-2.9C315,170.3,314.8,170.5,314.5,170.6z"/>
		<path class="st4" d="M425.4,167.8c0.1-0.7-0.1-1.1-0.7-1.1c-0.5,0-1.1,0.4-1.6,1.2c-0.6,0.8-0.9,1.8-1.1,3
			C424.1,170.3,425.2,169.3,425.4,167.8z"/>
		<path class="st4" d="M364.2,167.6c-0.6-0.2-1.3-0.3-2.3-0.3h-0.6v6.8h0.1c0.9,0,1.7,0,2.1-0.1c0.5-0.1,0.9-0.3,1.4-0.6
			c0.4-0.3,0.8-0.7,1-1.1c0.3-0.5,0.4-1,0.4-1.6c0-0.7-0.2-1.4-0.6-1.9C365.2,168.2,364.7,167.8,364.2,167.6z"/>
		<polygon class="st4" points="373.7,171.9 376.7,171.9 375.2,168.6 		"/>
		<polygon class="st4" points="272.6,171.9 275.6,171.9 274.1,168.6 		"/>
		<path class="st4" d="M527.4,167.7c0.1-0.7-0.1-1.1-0.6-1.1c-0.5,0-1.1,0.4-1.7,1.2c-0.6,0.8-1,1.8-1.2,3
			C526,170.2,527.1,169.2,527.4,167.7z"/>
		<path class="st4" d="M240.4,168.8c0-0.4-0.1-0.7-0.3-1c-0.2-0.3-0.5-0.4-0.9-0.5c-0.4-0.1-0.9-0.1-1.6-0.1v3.2
			C239.5,170.5,240.4,169.9,240.4,168.8z"/>
		<path class="st4" d="M518.9,160.5c-0.4,0-1.2,0.8-2.2,2.3c-1,1.5-2,3.3-2.9,5.5c3.3-3.2,5.1-5.5,5.3-7
			C519.3,160.7,519.2,160.5,518.9,160.5z"/>
		<path class="st4" d="M434.5,166.8c-0.8,0-1.6,0.6-2.4,1.7c-0.8,1.1-1.2,2.2-1.4,3.4c-0.1,0.5,0,0.9,0.2,1.2
			c0.2,0.3,0.5,0.4,0.8,0.4c0.6,0,1.1-0.4,1.6-1c0.5-0.7,1-1.5,1.3-2.5c0.4-1,0.6-1.7,0.6-2.1c0-0.4,0-0.7-0.2-0.9
			C435,166.9,434.8,166.8,434.5,166.8z"/>
		<path class="st4" d="M446.3,166.6c-0.8,0-1.6,0.7-2.5,2c-0.9,1.3-1.4,2.5-1.5,3.6c-0.1,0.4,0,0.7,0.2,1c0.2,0.3,0.4,0.4,0.7,0.4
			c0.8,0,1.6-0.7,2.5-2c0.9-1.3,1.4-2.5,1.5-3.6c0.1-0.4,0-0.8-0.2-1C446.9,166.7,446.6,166.6,446.3,166.6z"/>
		<polygon class="st4" points="226.1,171.9 229.1,171.9 227.6,168.6 		"/>
		<polygon class="st5" points="214.4,172.6 211.5,165.7 208.9,175.4 210.2,175.4 211.7,169.4 214.4,175.7 217,169.4 218.6,175.4 
			219.8,175.4 217.3,165.7 		"/>
		<path class="st5" d="M223.2,175.4h1.3l1.1-2.4h3.9l1.1,2.4h1.3l-4.4-9.7L223.2,175.4z M226.1,171.9l1.5-3.3l1.5,3.3H226.1z"/>
		<path class="st5" d="M241.1,170.4c0.4-0.5,0.6-1,0.6-1.6c0-0.8-0.3-1.4-0.9-1.9c-0.6-0.5-1.4-0.7-2.4-0.7h-2v9.3h1.3v-3.8h0.3
			l2.6,3.8h1.5l-2.7-4C240.1,171.2,240.7,170.8,241.1,170.4z M237.6,170.4v-3.2c0.7,0,1.2,0,1.6,0.1c0.4,0.1,0.7,0.3,0.9,0.5
			c0.2,0.3,0.3,0.6,0.3,1C240.4,169.9,239.5,170.5,237.6,170.4z"/>
		<path class="st5" d="M252.5,171.9h2.5c-0.5,1.6-1.6,2.4-3.5,2.4c-1.2,0-2.2-0.4-2.9-1.1c-0.7-0.7-1.1-1.6-1.1-2.5
			c0-1,0.4-1.9,1.1-2.6c0.7-0.7,1.6-1.1,2.7-1.1c1.2,0,2.3,0.5,3.3,1.4l0.9-0.9c-0.7-0.7-1.4-1.2-2.1-1.4c-0.7-0.3-1.4-0.4-2.3-0.4
			c-1.4,0-2.6,0.5-3.6,1.4c-1,1-1.5,2.1-1.5,3.5c0,1.3,0.5,2.5,1.4,3.5c1,1,2.2,1.5,3.8,1.5c0.7,0,1.3-0.1,1.8-0.2
			c0.5-0.2,1-0.4,1.4-0.8c0.4-0.4,0.8-0.8,1.1-1.2c0.3-0.5,0.4-0.9,0.5-1.3c0.1-0.4,0.1-0.9,0.1-1.5h-4V171.9z"/>
		<polygon class="st5" points="261,175.4 266.1,175.4 266.1,174.1 262.2,174.1 262.2,170.9 266.1,170.9 266.1,169.6 262.2,169.6 
			262.2,167.3 266.1,167.3 266.1,166.1 261,166.1 		"/>
		<path class="st5" d="M269.7,175.4h1.3l1.1-2.4h3.9l1.1,2.4h1.3l-4.4-9.7L269.7,175.4z M272.6,171.9l1.5-3.3l1.5,3.3H272.6z"/>
		<path class="st5" d="M288.1,172c0,0.8-0.2,1.4-0.6,1.8s-1,0.6-1.7,0.6c-0.7,0-1.3-0.2-1.7-0.7c-0.4-0.5-0.6-1.1-0.6-2v-5.7h-1.3
			v5.5c0,1.3,0.3,2.4,1,3.1c0.7,0.7,1.5,1,2.7,1c1.1,0,1.9-0.3,2.6-1c0.6-0.7,1-1.6,1-2.7v-5.8h-1.3V172z"/>
		<polygon class="st5" points="300.8,166.1 299.4,166.1 297.3,169.4 295.2,166.1 293.8,166.1 296.6,170.6 293.7,175.4 295.2,175.4 
			297.3,171.8 299.5,175.4 300.9,175.4 298,170.6 		"/>
		<path class="st5" d="M319.4,172.3c0.1-0.2,0.1-0.4,0.2-0.6c0.1-0.2,0.1-0.4,0.1-0.6c0-0.2,0.1-0.5,0.1-0.8h-1.2
			c0,0.5-0.1,1.1-0.3,1.7l-1.9-2.3c0.3-0.1,0.5-0.3,0.7-0.5c0.2-0.2,0.5-0.4,0.6-0.6c0.2-0.2,0.3-0.5,0.4-0.8
			c0.1-0.3,0.2-0.6,0.2-0.9c0-0.4-0.1-0.7-0.2-0.9c-0.1-0.3-0.3-0.5-0.6-0.7c-0.2-0.2-0.5-0.3-0.8-0.4c-0.3-0.1-0.6-0.1-1-0.1
			c-0.4,0-0.7,0.1-1,0.2c-0.3,0.1-0.6,0.3-0.8,0.5c-0.2,0.2-0.4,0.4-0.5,0.7c-0.1,0.3-0.2,0.5-0.2,0.8c0,0.3,0,0.5,0.1,0.7
			c0.1,0.2,0.2,0.4,0.3,0.6c0.1,0.2,0.2,0.4,0.4,0.6c0.1,0.2,0.3,0.4,0.4,0.6c-0.3,0.2-0.7,0.4-1,0.6c-0.3,0.2-0.6,0.4-0.8,0.7
			c-0.2,0.3-0.4,0.5-0.5,0.9c-0.1,0.3-0.2,0.7-0.2,1.1c0,0.2,0,0.5,0.1,0.8c0.1,0.3,0.2,0.6,0.5,1c0.2,0.3,0.6,0.6,1,0.8
			c0.4,0.2,1,0.3,1.7,0.3c0.6,0,1.2-0.1,1.7-0.4c0.6-0.2,1-0.6,1.3-1.1l1.1,1.3h1.7l-2.1-2.4C319.2,172.7,319.3,172.5,319.4,172.3z
			 M315,166.1c0.3-0.2,0.5-0.3,0.8-0.3c0.4,0,0.7,0.1,0.9,0.3c0.2,0.2,0.3,0.5,0.3,0.8c0,0.2,0,0.4-0.1,0.6
			c-0.1,0.2-0.2,0.4-0.3,0.5s-0.3,0.3-0.5,0.4c-0.2,0.1-0.3,0.2-0.5,0.3l-0.4-0.4c-0.1-0.1-0.2-0.3-0.3-0.5
			c-0.1-0.2-0.2-0.3-0.2-0.5c-0.1-0.2-0.1-0.3-0.1-0.5C314.6,166.5,314.8,166.3,315,166.1z M316.7,174.1c-0.4,0.2-0.8,0.3-1.3,0.3
			c-0.3,0-0.5,0-0.8-0.1c-0.2-0.1-0.5-0.2-0.7-0.4c-0.2-0.2-0.3-0.3-0.5-0.6c-0.1-0.2-0.2-0.5-0.2-0.7c0-0.3,0.1-0.6,0.2-0.8
			c0.1-0.2,0.2-0.4,0.4-0.6c0.2-0.2,0.4-0.4,0.6-0.5c0.2-0.1,0.5-0.3,0.7-0.4l2.5,2.9C317.4,173.5,317.1,173.8,316.7,174.1z"/>
		<polygon class="st5" points="333.5,166.1 332.2,166.1 332.2,175.4 336.5,175.4 336.5,174.1 333.5,174.1 		"/>
		<rect x="340.8" y="166.1" class="st5" width="1.3" height="9.3"/>
		<polygon class="st5" points="353.8,172.7 347,165.7 347,175.4 348.2,175.4 348.2,168.7 355.1,175.8 355.1,166.1 353.8,166.1 		"/>
		<path class="st5" d="M362.3,166.1H360v9.3h2.3c1.7,0,3-0.5,3.9-1.4c0.9-0.9,1.3-2,1.3-3.2c0-1.2-0.4-2.3-1.3-3.2
			C365.4,166.5,364.1,166.1,362.3,166.1z M365.9,172.3c-0.3,0.5-0.6,0.9-1,1.1c-0.4,0.3-0.9,0.5-1.4,0.6c-0.5,0.1-1.2,0.1-2.1,0.1
			h-0.1v-6.8h0.6c0.9,0,1.7,0.1,2.3,0.3c0.6,0.2,1,0.6,1.4,1.2c0.4,0.6,0.6,1.2,0.6,1.9C366.2,171.3,366.1,171.8,365.9,172.3z"/>
		<path class="st5" d="M370.8,175.4h1.3l1.1-2.4h3.9l1.1,2.4h1.3l-4.4-9.7L370.8,175.4z M373.7,171.9l1.5-3.3l1.5,3.3H373.7z"/>
		<path class="st5" d="M382.2,167.5h0.8c0,0.5-0.3,1-0.7,1.5l0.6,0.5c0.3-0.3,0.5-0.6,0.7-1c0.2-0.4,0.3-0.7,0.3-1v-1.7h-1.6V167.5z
			"/>
		<path class="st5" d="M393.9,171.1c-0.2-0.3-0.5-0.5-0.8-0.7c-0.3-0.2-0.8-0.5-1.4-0.7c-0.6-0.3-1-0.5-1.3-0.7
			c-0.2-0.2-0.4-0.5-0.4-0.7c0-0.3,0.1-0.6,0.4-0.8s0.7-0.3,1.1-0.3c0.4,0,0.7,0.1,1,0.2c0.2,0.1,0.5,0.3,0.7,0.6l1-0.8
			c-0.3-0.4-0.8-0.8-1.3-1s-1-0.3-1.5-0.3c-0.8,0-1.4,0.2-1.9,0.7c-0.5,0.5-0.8,1-0.8,1.7c0,0.3,0,0.5,0.1,0.8
			c0.1,0.2,0.2,0.5,0.4,0.7c0.2,0.2,0.4,0.5,0.7,0.6c0.3,0.2,0.7,0.4,1.2,0.6c0.5,0.2,0.9,0.4,1.1,0.6c0.2,0.2,0.4,0.4,0.6,0.6
			c0.2,0.3,0.2,0.5,0.2,0.8c0,0.4-0.2,0.8-0.5,1c-0.3,0.3-0.7,0.4-1.2,0.4c-1,0-1.7-0.5-2.1-1.6l-1.3,0.4c0.3,0.9,0.8,1.5,1.4,1.9
			c0.6,0.4,1.3,0.6,2.1,0.6c0.8,0,1.5-0.3,2-0.8c0.6-0.5,0.8-1.2,0.8-2c0-0.3-0.1-0.6-0.2-0.9C394.3,171.6,394.1,171.4,393.9,171.1z
			"/>
		<path class="st5" d="M541.1,171.6c-1.5,1.5-2.5,2.2-3.1,2.2c-0.4,0-0.5-0.2-0.4-0.7c0.1-0.3,0.4-1.1,1.1-2.3
			c1-1.7,1.5-2.9,1.6-3.6c0.1-0.4,0-0.8-0.2-1.1c-0.2-0.3-0.5-0.4-0.9-0.4c-0.6,0-1.3,0.3-2.1,0.8c-0.8,0.5-2,1.5-3.5,2.9
			c0.3-0.9,1-2.2,1.8-3.7c0,0,0,0-0.1,0c-0.5,0.1-2.7,0.5-2.8,0.5l-0.1,0.1c-0.9,1.4-1.6,2.6-2,3.7c-0.2,0.5-0.4,1.1-0.6,1.7l0,0
			c-1.1,0.9-1.9,1.5-2.4,1.8c-0.5,0.3-1,0.4-1.5,0.4c-1.3,0-2-0.7-2-2.2c3.5-1,5.5-2.3,5.7-3.9c0.1-0.6,0-1.1-0.4-1.4
			c-0.4-0.4-0.9-0.5-1.6-0.5c-1.4,0-2.7,0.7-4.1,2c-1.2,1.2-2,2.5-2.3,4c-1.6,1.4-2.6,2.2-3.1,2.2c-0.1,0-0.2-0.1-0.3-0.2
			c-0.1-0.1-0.1-0.3-0.1-0.4c0.1-0.4,0.5-1.3,1.3-2.7c0.8-1.4,1.3-2.5,1.4-3.2c0.1-0.5,0-0.8-0.2-1.1c-0.2-0.3-0.5-0.4-0.9-0.4
			c-0.4,0-0.7,0.1-1.1,0.2c-0.4,0.2-1.1,0.5-2.2,1.1c1.3-1.4,2.3-2.6,3-3.6c2.7-3.9-0.5-6.4-3.6-2.7c-1.8,2.1-2.9,4-3.8,6
			c-0.8,1.5-1.3,3.2-1.8,4.9c-0.8,0.7-1.5,1.2-2.1,1.6c-0.6,0.4-1.2,0.5-1.8,0.5c-0.7,0-1.3-0.3-1.6-0.8c-0.3-0.5-0.4-1.3-0.3-2.2
			c0.2-1.1,0.6-2,1.2-2.8s1.2-1.2,1.8-1.2c0.2,0,0.4,0.1,0.5,0.3c0.1,0.2,0.1,0.5,0.1,0.8c0,0.1-0.1,0.3-0.2,0.6
			c-0.1,0.3-0.2,0.5-0.2,0.6c0,0.2,0,0.2,0.1,0.2c0.1,0,0.2,0,0.4-0.1l1.4-0.6c0.2-0.1,0.4-0.2,0.5-0.3c0.1-0.1,0.2-0.3,0.2-0.5
			c0.1-0.6,0-1.1-0.4-1.5c-0.4-0.4-0.9-0.6-1.6-0.6c-1.4,0-2.8,0.7-4.2,2.1c-1.2,1.2-2,2.5-2.4,3.9c-0.9,0.8-1.5,1.3-1.9,1.5
			c-0.4,0.2-0.8,0.4-1.2,0.4c-0.3,0-0.5-0.1-0.6-0.3c-0.1-0.2-0.2-0.5-0.1-0.9c0.1-0.5,0.4-1.2,0.8-2.1l1.2-2.6l1.8-0.1l0,0
			c0.1-0.2,0.7-1.7,0.7-1.7l0,0l-1.6,0.1l1.9-4l0,0l-3.1,0.6l-0.1,0l-1.7,3.6l-0.9,0l0,0l-0.9,1.8l0,0l0.9,0l-0.8,1.7
			c-0.4,0.8-0.7,1.5-0.8,2.1c-0.8,0.7-1.3,1.2-1.7,1.4c-0.3,0.2-0.7,0.3-1,0.3c-0.2,0-0.3-0.1-0.4-0.2c-0.1-0.2-0.1-0.4-0.1-0.6
			c0.1-0.6,0.5-1.7,1.3-3.2l1.8-3.6l0,0l-0.1,0l-2.9,0.6l-0.1,0.1c-1.2,2.1-2,3.9-2.5,5.4l0-0.1c-1.5,1.5-2.6,2.2-3.4,2.2
			c-0.7,0-1-0.4-0.8-1.3c0-0.2,0.1-0.5,0.2-0.8c0.1-0.4,0.2-0.7,0.2-0.8c0.2-0.9,0.1-1.6-0.2-2.1c-0.3-0.5-0.7-1-1.4-1.4
			c0.5-0.2,0.9-0.5,1.4-1c0.5-0.5,1-1.5,1.6-2.9c0.6-1.4,1.2-2.1,1.9-2.1c0.3,0,0.6,0.1,0.7,0.4c0.1,0.3,0.2,0.4,0.3,0.4
			c0.2,0,0.4-0.3,0.8-0.8c0.4-0.6,0.6-0.9,0.6-1.1c0.1-0.3-0.1-0.6-0.3-0.8c-0.3-0.3-0.6-0.4-0.9-0.4c-1.5,0-2.9,1.5-4.2,4.6
			c-0.5,1.2-1,2.1-1.4,2.5c-0.4,0.5-0.9,0.7-1.3,0.7l-0.5,0c-0.5,0-0.8,0.2-0.8,0.7c-0.1,0.3,0.1,0.5,0.5,0.5c0.2,0,0.3,0,0.4,0
			c0.2,0.3,0.3,0.8,0.2,1.5c0,0.2-0.2,0.7-0.4,1.6c-0.3,0.9-0.4,1.4-0.4,1.5c-0.2,0.9,0,1.6,0.4,2.2c0.4,0.6,1,0.9,1.8,0.9
			c0.8,0,1.5-0.2,2.3-0.7c0.7-0.4,1.6-1.1,2.7-2c0,0,0,0.1,0,0.1c-0.1,0.8-0.1,1.4,0.2,1.9c0.2,0.5,0.6,0.8,1.1,0.8
			c0.9,0,2.3-0.9,4.4-2.7c-0.1,0.8,0,1.4,0.3,1.9c0.3,0.6,0.8,0.8,1.5,0.8c0.6,0,1.3-0.2,2.1-0.7c0.8-0.4,1.7-1.1,2.8-2.1
			c0,0.7,0.2,1.3,0.6,1.8c0.5,0.6,1.3,1,2.3,1c0.9,0,1.8-0.2,2.7-0.7c0.9-0.4,1.8-1.1,2.9-2c0,0,0,0.1,0,0.1
			c-0.2,0.9-0.3,1.8-0.3,2.6l0,0l2.6-0.6l0,0c0.3-2,0.8-3.7,1.3-5.1c0.8-0.7,1.5-1.3,2.1-1.7c0.7-0.4,1.1-0.6,1.4-0.6
			c0.3,0,0.4,0.2,0.4,0.5c0,0.3-0.3,0.9-0.9,1.8c-1,1.7-1.6,3-1.7,3.9c-0.1,0.5,0,1,0.3,1.3c0.3,0.4,0.7,0.5,1.2,0.5
			c1.2,0,2.8-0.9,5-2.8c0,0.7,0.2,1.3,0.6,1.8c0.5,0.7,1.3,1,2.3,1c0.9,0,1.8-0.2,2.7-0.7c0.8-0.4,1.8-1.1,2.9-2
			c0,0.1-0.1,0.3-0.1,0.4c-0.1,0.5-0.2,1.3-0.3,2.3l2.6-0.6c0.1-0.7,0.2-1.2,0.3-1.6c0.1-0.5,0.3-1.1,0.5-1.8
			c0.1-0.4,0.4-0.7,0.7-1.1l0.8-0.7c0.3-0.3,0.6-0.5,0.8-0.7c0.3-0.3,0.5-0.5,0.8-0.6c0.2-0.2,0.5-0.3,0.6-0.4
			c0.2-0.1,0.3-0.2,0.5-0.2c0.2,0,0.3,0.1,0.2,0.4c0,0.2-0.3,0.8-0.8,1.7c-1,1.7-1.5,2.9-1.7,3.8c-0.1,0.6,0,1.1,0.2,1.4
			c0.2,0.4,0.6,0.5,1.1,0.5c1.3,0,2.9-0.9,5-2.8l0,0C540.9,172.7,541.1,171.6,541.1,171.6L541.1,171.6z M525.1,167.8
			c0.6-0.8,1.1-1.2,1.7-1.2c0.5,0,0.7,0.4,0.6,1.1c-0.3,1.5-1.4,2.5-3.5,3.1C524.1,169.6,524.5,168.6,525.1,167.8z M513.8,168.2
			c0.9-2.1,1.8-3.9,2.9-5.5c1-1.5,1.8-2.3,2.2-2.3c0.3,0,0.3,0.2,0.3,0.7C518.9,162.7,517.1,165,513.8,168.2z"/>
		<path class="st5" d="M483,162.2c0.3-0.6,0.8-1.2,1.3-1.8c0.5-0.5,0.8-0.9,0.8-0.9c0-0.1-0.1-0.2-0.3-0.3c-0.2-0.1-0.4-0.1-0.5-0.1
			c-0.1,0-0.2,0.1-0.4,0.2c-0.4,0.4-0.9,0.6-1.3,0.6c-0.3,0-0.8-0.1-1.4-0.4s-1.2-0.4-1.6-0.4c-1.2,0-2.4,0.5-3.6,1.6
			c-1.2,1.1-1.9,2.2-2.1,3.4c-0.1,0.5,0,0.9,0.2,1.4c0.2,0.5,0.4,0.7,0.7,0.7c0.2,0,0.6-0.2,1-0.5c0.4-0.4,0.6-0.6,0.6-0.7
			c0-0.1-0.1-0.2-0.2-0.4c-0.5-0.5-0.7-1.1-0.6-1.7c0.1-0.6,0.4-1,0.8-1.4c0.4-0.4,0.9-0.6,1.4-0.6c0.3,0,0.7,0.1,1.3,0.4
			c0.6,0.2,1.1,0.4,1.5,0.4c0.6,0,1.3-0.2,2.2-0.5c-2.2,1.8-3.6,3.2-4.2,4.4c-0.6,1.1-1.2,2.5-1.7,4c-1.1,3.6-2.5,5.4-4.1,5.4
			c-1,0-1.4-0.8-1.1-2.4c0.1-0.6,0-0.9-0.4-0.9c-0.2,0-0.6,0.2-1.2,0.7c-0.6,0.5-0.9,0.8-1,1.1c-0.1,0.6,0.2,1.2,0.9,1.6
			c0.7,0.5,1.6,0.7,2.6,0.7c1.1,0,2.1-0.3,3.2-0.8c1-0.6,2-1.4,2.8-2.6c0.8-1.1,1.7-3.1,2.7-5.9l0.5-1.4
			C482.2,163.7,482.6,162.8,483,162.2z"/>
		<path class="st5" d="M495.5,161.9L495.5,161.9l0.1-0.1l0,0c0.2-0.5,0.5-0.9,0.9-1.3c-0.2,0-0.4,0.1-0.6,0.1
			c-1.7,0.5-3.2,1.8-3.7,3.5l0.1,0C493.6,164.1,494.9,163.1,495.5,161.9z"/>
		<path class="st5" d="M421,160.5c-0.2-0.8-0.4-1.1-0.6-1.1c-0.2,0-0.7,0.2-1.5,0.6c-0.7,0.4-1.1,0.7-1.2,1c0,0.2,0.1,0.5,0.2,0.9
			c0.6,1.4,0.8,2.8,0.6,4c-0.2,1.3-0.6,2.6-1.4,4c-0.7,1.4-1.6,2.5-2.5,3.4c-0.9,0.8-1.8,1.2-2.5,1.2c-0.5,0-0.9-0.2-1.1-0.6
			c-0.3-0.4-0.4-0.8-0.3-1.4c0.1-0.8,0.6-2,1.4-3.6c0.8-1.6,1.4-2.7,1.6-3.5c0.3-0.7,0.4-1.4,0.5-2c0.2-1.3,0-2.3-0.5-3.1
			c-0.5-0.8-1.3-1.2-2.3-1.3c-1.3-0.1-2.6,0.4-3.8,1.6c-1.2,1.2-1.9,2.4-2,3.8c-0.1,0.5,0,1.1,0.2,1.5c0.2,0.5,0.5,0.7,0.8,0.8
			c0.3,0,0.6-0.1,1-0.4c0.4-0.3,0.6-0.6,0.6-0.9c0-0.2-0.1-0.4-0.4-0.8c-0.3-0.4-0.4-0.9-0.3-1.5c0.1-0.8,0.5-1.5,1.1-2.2
			c0.7-0.6,1.3-0.9,1.9-0.9c0.4,0,0.7,0.2,0.9,0.6c0.2,0.3,0.2,0.8,0.2,1.4c-0.1,0.9-0.7,2.4-1.8,4.4c-1.1,2.1-1.8,3.8-2,4.9
			c-0.2,1.2,0,2.3,0.6,3.1c0.6,0.8,1.4,1.3,2.5,1.3c1.3,0.1,2.7-0.5,4.2-1.8c1.4-1.3,2.7-3,3.8-5.2s1.8-4.1,2-5.9
			C421.2,162,421.1,161.2,421,160.5z"/>
		<path class="st5" d="M463.3,172.4c-1.4,1.3-2.4,1.9-3,1.9c-0.4,0-0.5-0.3-0.5-0.7c0-0.3,0.4-1.1,1-2.2c0.9-1.6,1.4-2.8,1.5-3.5
			c0.1-0.4,0-0.8-0.2-1.2c-0.2-0.3-0.5-0.5-0.9-0.5c-0.6-0.1-1.3,0.1-2.1,0.6c-0.8,0.5-2,1.4-3.4,2.7c0.3-0.9,0.9-2.1,1.7-3.7
			l-0.1,0c-0.9,0.1-1.8,0.2-2.7,0.4l-0.1,0c-0.8,1.4-1.5,2.6-1.9,3.7c-0.2,0.6-0.4,1.2-0.6,1.8c-0.7,0.6-1.3,1.1-1.7,1.4
			c-0.4,0.3-0.8,0.5-1.1,0.5c-0.5,0-0.7-0.3-0.6-1c0.1-0.6,0.5-1.8,1.3-3.5c0.5-1.1,1-2.2,1.5-3.3c0-0.1,0-0.2-1.1,0.3
			c-1.3,0.6-1.6,0.7-2.1,0.9c-0.3-0.9-0.9-1.3-1.9-1.3c-0.8,0-1.7,0.3-2.8,1c-1.1,0.7-2,1.5-2.8,2.6c-0.6,0.8-1,1.7-1.3,2.5
			c-1.2,1.3-2.4,2.1-3.5,2.5c0.6-1.9,1.3-3.9,1.9-5.8c0.3-0.9,0.6-1.8,1.1-2.7c0-0.1-0.1-0.1-0.3,0c-0.3,0.1-0.6,0.3-0.9,0.4
			c-0.6,0.3-1.1,0.5-1.5,0.6c-0.5-0.6-1.1-0.9-1.9-0.9c-1.4,0-2.8,0.8-4.2,2.2c-1.1,1.1-1.8,2.3-2.2,3.5c0,0,0-0.1,0-0.1
			c-1.1,1-1.9,1.6-2.4,1.9c-0.5,0.3-1,0.4-1.5,0.4c-1.3,0-2-0.7-2.1-2.2c3.6-1,5.5-2.4,5.7-4c0.1-0.6-0.1-1.1-0.5-1.4
			c-0.4-0.4-0.9-0.5-1.7-0.5c-1.4,0-2.8,0.7-4.1,2c-1.3,1.3-2.1,2.8-2.3,4.4c-0.1,1.1,0.1,2,0.6,2.6c0.6,0.7,1.4,1,2.4,1
			c1,0,1.9-0.3,2.7-0.7c0.8-0.5,1.8-1.2,2.9-2.1c-0.1,0.8,0,1.4,0.3,2c0.3,0.6,0.8,0.9,1.5,0.8c0.6,0,1.1-0.2,1.7-0.6
			c0.6-0.4,1.3-1,2.2-1.9c-0.3,0.8-0.5,1.5-0.8,2.3c-1.9,0.7-3.2,1.3-4.1,2c-0.8,0.7-1.3,1.4-1.4,2.2c-0.1,0.6,0,1.1,0.4,1.5
			c0.3,0.4,0.8,0.5,1.4,0.5c1.1,0,2.3-0.6,3.4-1.7c1.1-1.1,2.2-2.7,3.1-4.7c1.4-0.5,2.6-1.3,3.8-2.3c0,0.7,0.1,1.3,0.4,1.8
			c0.4,0.6,0.9,0.9,1.6,0.9c0.7,0,1.4-0.3,2.2-0.8c0.7-0.5,1.6-1.3,2.5-2.4c-0.4,2.1,0.1,3.2,1.3,3.2c0.5,0,1-0.2,1.6-0.5
			c0.6-0.3,1.5-1.1,2.8-2.1c0,0.1,0,0.2-0.1,0.3c-0.1,0.5-0.1,1.3-0.2,2.3l0.1,0c0.9-0.2,1.7-0.4,2.6-0.5l0,0
			c0.1-0.7,0.2-1.2,0.2-1.6c0.1-0.5,0.3-1.1,0.5-1.8c0.1-0.4,0.3-0.7,0.7-1.1c0.3-0.2,0.5-0.5,0.8-0.7c0.3-0.3,0.5-0.5,0.8-0.7
			c0.3-0.2,0.5-0.4,0.7-0.6c0.2-0.2,0.5-0.3,0.6-0.4c0.2-0.1,0.3-0.1,0.4-0.1c0.2,0,0.3,0.1,0.2,0.4c0,0.2-0.3,0.8-0.8,1.7
			c-0.9,1.6-1.4,2.9-1.5,3.7c-0.1,0.6,0,1.1,0.3,1.5c0.3,0.4,0.7,0.6,1.2,0.6c1.3,0.1,2.9-0.7,4.9-2.3l0,0
			C463.2,173.3,463.3,172.8,463.3,172.4L463.3,172.4L463.3,172.4z M423.1,167.9c0.6-0.8,1.1-1.2,1.6-1.2c0.5,0,0.8,0.4,0.7,1.1
			c-0.2,1.5-1.3,2.5-3.4,3.1C422.2,169.6,422.5,168.6,423.1,167.9z M430.7,179.8c-0.5,0.7-1,1.1-1.6,1.1c-0.3,0-0.6-0.1-0.8-0.3
			c-0.2-0.2-0.2-0.5-0.2-0.8c0.2-1.2,1.6-2.2,4.2-3.2C431.7,178,431.2,179.1,430.7,179.8z M434.7,170.1c-0.4,1-0.8,1.8-1.3,2.5
			c-0.5,0.7-1.1,1-1.6,1c-0.4,0-0.6-0.1-0.8-0.4c-0.2-0.3-0.2-0.7-0.2-1.2c0.2-1.1,0.6-2.3,1.4-3.4c0.8-1.1,1.6-1.7,2.4-1.7
			c0.3,0,0.5,0.1,0.6,0.3c0.2,0.2,0.2,0.5,0.2,0.9C435.3,168.4,435,169.1,434.7,170.1z M447.2,167.9c-0.1,1.1-0.7,2.3-1.5,3.6
			c-0.9,1.3-1.7,2-2.5,2c-0.3,0-0.6-0.1-0.7-0.4c-0.2-0.3-0.2-0.6-0.2-1c0.1-1.1,0.7-2.3,1.5-3.6c0.9-1.3,1.7-2,2.5-2
			c0.3,0,0.6,0.1,0.7,0.4C447.2,167.2,447.2,167.5,447.2,167.9z"/>
	</g>
	<path class="st5" d="M750,178.8L750,178.8c0-0.1,0-0.1,0-0.2l0,0c-0.2-1.2-1.2-2.1-2.5-2.2h-9.4v-6.6c4.6-0.2,8.4-3.3,9.6-7.5l0,0
		c0-0.2,0.1-0.3,0.1-0.5l0,0c0.5-1.6,1.2-3.1,2.2-4.5c-0.7,0.1-1.4,0.2-2.1,0.4c-5,1.4-8.9,5.4-10.3,10.3c-1.4-5-5.3-8.9-10.3-10.3
		c-0.7-0.2-1.4-0.3-2.1-0.4c1,1.4,1.8,3,2.3,4.7c0,0,0,0.1,0,0.1c1.2,4.3,5,7.5,9.7,7.7v0.2h0v6.4h-9.4c-0.7,0-1.2,0.3-1.7,0.7
		c-0.4,0.4-0.7,1-0.8,1.6v0c0,0.1,0,0.2,0,0.3c0,1.4,1.1,2.6,2.6,2.6c0,0,0.1,0,0.1,0h0c0,0,0.1,0,0.1,0h0c0,0,0.1,0,0.1,0l0,0
		c0,0,0,0,0.1,0l0.1,0l0,0c0,0,0,0,0.1,0l0,0c0,0,0.1,0,0.1,0l0,0c0.6-0.2,1.1-0.5,1.4-1l0,0c0,0,0-0.1,0.1-0.1l0,0l0-0.1
		c0,0,0-0.1,0-0.1l0,0c0.1-0.3,0.2-0.6,0.3-0.9l0,0v0c0-0.2-0.2-0.4-0.4-0.4c0,0-0.1,0-0.1,0c-0.2,0-0.3,0.2-0.3,0.4
		c0,0.4-0.2,0.7-0.4,0.9c-0.3,0.4-0.8,0.6-1.3,0.6c0,0-0.1,0-0.1,0c0,0,0,0-0.1,0c-0.9,0-1.7-0.8-1.7-1.8c0-0.9,0.7-1.7,1.6-1.7
		c0,0,0.1,0,0.1,0h19.6c0,0,0.1,0,0.1,0c0.9,0.1,1.6,0.8,1.6,1.7c0,0.9-0.7,1.7-1.7,1.8c0,0,0,0-0.1,0c0,0-0.1,0-0.1,0
		c-0.5,0-1-0.3-1.3-0.6c-0.2-0.3-0.4-0.6-0.4-0.9h0c0-0.2-0.1-0.3-0.3-0.4c0,0-0.1,0-0.1,0c-0.2,0-0.4,0.2-0.4,0.4h0l0,0l0,0
		c0,0.3,0.1,0.6,0.3,0.9l0,0c0,0,0,0.1,0,0.1l0,0.1l0,0c0,0,0,0.1,0.1,0.1l0,0c0.3,0.5,0.8,0.8,1.4,1h0c0,0,0.1,0,0.1,0l0,0
		c0,0,0,0,0.1,0l0,0l0.1,0l0.1,0l0,0c0,0,0.1,0,0.1,0h0c0,0,0.1,0,0.1,0h0c0,0,0.1,0,0.1,0c0.7,0,1.3-0.3,1.8-0.7
		c0.5-0.5,0.7-1.1,0.7-1.8C750,179,750,178.9,750,178.8L750,178.8z"/>
</g>
<g id="Layer_2">
</g>
</svg>
