<?xml version="1.0" encoding="utf-8"?>
<!-- Generator: Adobe Illustrator 20.0.0, SVG Export Plug-In . SVG Version: 6.00 Build 0)  -->
<svg version="1.1" xmlns="http://www.w3.org/2000/svg" xmlns:xlink="http://www.w3.org/1999/xlink" x="0px" y="0px"
	 viewBox="0 0 750 181.6" style="enable-background:new 0 0 750 181.6;" xml:space="preserve">
<style type="text/css">
	.st0{fill:none;stroke:#000000;stroke-miterlimit:10;}
	.st1{fill:none;stroke:#000000;stroke-miterlimit:10;stroke-dasharray:5.952,5.952;}
	.st2{fill:none;stroke:#000000;stroke-miterlimit:10;stroke-dasharray:5.7436,5.7436;}
	.st3{font-family:'WhitneyHTF-MediumSC';}
	.st4{font-size:12.7479px;}
	.st5{font-size:14.8725px;}
	.st6{font-family:'WhitneyHTF-SemiBoldSC';}
	.st7{fill:none;stroke:#000000;stroke-miterlimit:10;stroke-dasharray:6;}
	.st8{fill:none;}
	.st9{fill:#010101;}
</style>
<g id="Layer_1">
	<g>
		<polyline class="st0" points="750,135.1 750,138.1 747,138.1 		"/>
		<line class="st1" x1="741" y1="138.1" x2="6" y2="138.1"/>
		<polyline class="st0" points="3,138.1 0,138.1 0,135.1 		"/>
		<line class="st2" x1="0" y1="129.4" x2="0" y2="5.9"/>
		<polyline class="st0" points="0,3 0,0 3,0 		"/>
		<line class="st1" x1="9" y1="0" x2="744" y2="0"/>
		<polyline class="st0" points="747,0 750,0 750,3 		"/>
		<line class="st2" x1="750" y1="8.7" x2="750" y2="132.2"/>
	</g>
	<text transform="matrix(1 0 0 1 7.6367 17.6851)" class="st3 st4">Contact us with any questions. Please email us confirmation once purchase order is processed</text>
	<text transform="matrix(1 0 0 1 62.5356 57.8999)" class="st3 st5">(323) 404-9372</text>
	<text transform="matrix(1 0 0 1 62.5356 114.4356)" class="st3 st5">please mail invoices to:</text>
	<text transform="matrix(1 0 0 1 294.9541 57.8999)" class="st6 st5">billing@mlvegankitchen.com</text>
	<text transform="matrix(1 0 0 1 244.4292 114.4361)" class="st6 st5">ml vegan kitchen - 3260 casitas ave, los angeles, ca 90039</text>
	<line class="st7" x1="0" y1="25.7" x2="750" y2="25.7"/>
	<path d="M17.2,51.8c1.5,3,4,5.5,7,7l2.3-2.3c0.3-0.3,0.7-0.4,1.1-0.3c1.2,0.4,2.5,0.6,3.8,0.6c0.6,0,1.1,0.5,1.1,1.1v3.7
		c0,0.6-0.5,1.1-1.1,1.1c-10,0-18.1-8.1-18.1-18.1c0-0.6,0.5-1.1,1.1-1.1h3.7c0.6,0,1.1,0.5,1.1,1.1c0,1.3,0.2,2.6,0.6,3.8
		c0.1,0.4,0,0.8-0.3,1.1L17.2,51.8z"/>
	<line class="st7" x1="0" y1="81.9" x2="750" y2="81.9"/>
	<line class="st7" x1="45.6" y1="25.7" x2="45.6" y2="138.1"/>
	<line class="st7" x1="229.5" y1="25.7" x2="229.5" y2="138.1"/>
	<line class="st7" x1="279.3" y1="25.7" x2="279.3" y2="81.9"/>
	<path d="M263.6,44.6h-17c-1.2,0-2.1,1-2.1,2.1l0,12.7c0,1.2,1,2.1,2.1,2.1h17c1.2,0,2.1-1,2.1-2.1V46.7
		C265.7,45.6,264.7,44.6,263.6,44.6z M263.6,59.5h-17V48.9l8.5,5.3l8.5-5.3V59.5z M255.1,52l-8.5-5.3h17L255.1,52z"/>
	<path d="M32.4,104.3H21.8v6.4h-2.1v-8.5H26V98h-8.5v6.4h-2.1c-1.2,0-2.1,1-2.1,2.1v12.7c0,1.2,1,2.1,2.1,2.1h17
		c1.2,0,2.1-1,2.1-2.1v-12.7C34.5,105.3,33.6,104.3,32.4,104.3z"/>
	<g>
		<path class="st8" d="M315,167.9c0.1,0.2,0.2,0.3,0.3,0.5l0.4,0.4c0.1-0.1,0.3-0.2,0.5-0.3c0.2-0.1,0.3-0.3,0.5-0.4
			s0.3-0.3,0.3-0.5c0.1-0.2,0.1-0.4,0.1-0.6c0-0.3-0.1-0.6-0.3-0.8c-0.2-0.2-0.5-0.3-0.9-0.3c-0.3,0-0.6,0.1-0.8,0.3
			c-0.3,0.2-0.4,0.5-0.4,0.9c0,0.2,0,0.3,0.1,0.5C314.8,167.6,314.9,167.7,315,167.9z"/>
		<path class="st8" d="M428.1,179.7c0,0.3,0,0.6,0.2,0.8c0.2,0.2,0.4,0.3,0.8,0.3c0.6,0,1.1-0.4,1.6-1.1c0.5-0.7,1.1-1.8,1.6-3.2
			C429.7,177.5,428.3,178.6,428.1,179.7z"/>
		<path class="st8" d="M314.5,170.6c-0.2,0.2-0.4,0.3-0.6,0.5c-0.2,0.2-0.3,0.4-0.4,0.6c-0.1,0.2-0.2,0.5-0.2,0.8
			c0,0.3,0.1,0.5,0.2,0.7c0.1,0.2,0.3,0.4,0.5,0.6c0.2,0.2,0.4,0.3,0.7,0.4c0.2,0.1,0.5,0.1,0.8,0.1c0.5,0,0.9-0.1,1.3-0.3
			c0.4-0.2,0.7-0.5,1-0.9l-2.5-2.9C315,170.3,314.8,170.5,314.5,170.6z"/>
		<path class="st8" d="M425.4,167.8c0.1-0.7-0.1-1.1-0.7-1.1c-0.5,0-1.1,0.4-1.6,1.2c-0.6,0.8-0.9,1.8-1.1,3
			C424.1,170.3,425.2,169.3,425.4,167.8z"/>
		<path class="st8" d="M364.2,167.6c-0.6-0.2-1.3-0.3-2.3-0.3h-0.6v6.8h0.1c0.9,0,1.7,0,2.1-0.1c0.5-0.1,0.9-0.3,1.4-0.6
			c0.4-0.3,0.8-0.7,1-1.1c0.3-0.5,0.4-1,0.4-1.6c0-0.7-0.2-1.4-0.6-1.9C365.2,168.2,364.7,167.8,364.2,167.6z"/>
		<polygon class="st8" points="373.7,171.9 376.7,171.9 375.2,168.6 		"/>
		<polygon class="st8" points="272.6,171.9 275.6,171.9 274.1,168.6 		"/>
		<path class="st8" d="M527.4,167.7c0.1-0.7-0.1-1.1-0.6-1.1c-0.5,0-1.1,0.4-1.7,1.2c-0.6,0.8-1,1.8-1.2,3
			C526,170.2,527.1,169.2,527.4,167.7z"/>
		<path class="st8" d="M240.4,168.8c0-0.4-0.1-0.7-0.3-1c-0.2-0.3-0.5-0.4-0.9-0.5c-0.4-0.1-0.9-0.1-1.6-0.1v3.2
			C239.5,170.5,240.4,169.9,240.4,168.8z"/>
		<path class="st8" d="M518.9,160.5c-0.4,0-1.2,0.8-2.2,2.3c-1,1.5-2,3.3-2.9,5.5c3.3-3.2,5.1-5.5,5.3-7
			C519.3,160.7,519.2,160.5,518.9,160.5z"/>
		<path class="st8" d="M434.5,166.8c-0.8,0-1.6,0.6-2.4,1.7c-0.8,1.1-1.2,2.2-1.4,3.4c-0.1,0.5,0,0.9,0.2,1.2
			c0.2,0.3,0.5,0.4,0.8,0.4c0.6,0,1.1-0.4,1.6-1c0.5-0.7,1-1.5,1.3-2.5c0.4-1,0.6-1.7,0.6-2.1c0-0.4,0-0.7-0.2-0.9
			C435,166.9,434.8,166.8,434.5,166.8z"/>
		<path class="st8" d="M446.3,166.6c-0.8,0-1.6,0.7-2.5,2c-0.9,1.3-1.4,2.5-1.5,3.6c-0.1,0.4,0,0.7,0.2,1c0.2,0.3,0.4,0.4,0.7,0.4
			c0.8,0,1.6-0.7,2.5-2c0.9-1.3,1.4-2.5,1.5-3.6c0.1-0.4,0-0.8-0.2-1C446.9,166.7,446.6,166.6,446.3,166.6z"/>
		<polygon class="st8" points="226.1,171.9 229.1,171.9 227.6,168.6 		"/>
		<polygon class="st9" points="214.4,172.6 211.5,165.7 208.9,175.4 210.2,175.4 211.7,169.4 214.4,175.7 217,169.4 218.6,175.4 
			219.8,175.4 217.3,165.7 		"/>
		<path class="st9" d="M223.2,175.4h1.3l1.1-2.4h3.9l1.1,2.4h1.3l-4.4-9.7L223.2,175.4z M226.1,171.9l1.5-3.3l1.5,3.3H226.1z"/>
		<path class="st9" d="M241.1,170.4c0.4-0.5,0.6-1,0.6-1.6c0-0.8-0.3-1.4-0.9-1.9c-0.6-0.5-1.4-0.7-2.4-0.7h-2v9.3h1.3v-3.8h0.3
			l2.6,3.8h1.5l-2.7-4C240.1,171.2,240.7,170.8,241.1,170.4z M237.6,170.4v-3.2c0.7,0,1.2,0,1.6,0.1c0.4,0.1,0.7,0.3,0.9,0.5
			c0.2,0.3,0.3,0.6,0.3,1C240.4,169.9,239.5,170.5,237.6,170.4z"/>
		<path class="st9" d="M252.5,171.9h2.5c-0.5,1.6-1.6,2.4-3.5,2.4c-1.2,0-2.2-0.4-2.9-1.1c-0.7-0.7-1.1-1.6-1.1-2.5
			c0-1,0.4-1.9,1.1-2.6c0.7-0.7,1.6-1.1,2.7-1.1c1.2,0,2.3,0.5,3.3,1.4l0.9-0.9c-0.7-0.7-1.4-1.2-2.1-1.4c-0.7-0.3-1.4-0.4-2.3-0.4
			c-1.4,0-2.6,0.5-3.6,1.4c-1,1-1.5,2.1-1.5,3.5c0,1.3,0.5,2.5,1.4,3.5c1,1,2.2,1.5,3.8,1.5c0.7,0,1.3-0.1,1.8-0.2
			c0.5-0.2,1-0.4,1.4-0.8c0.4-0.4,0.8-0.8,1.1-1.2c0.3-0.5,0.4-0.9,0.5-1.3c0.1-0.4,0.1-0.9,0.1-1.5h-4V171.9z"/>
		<polygon class="st9" points="261,175.4 266.1,175.4 266.1,174.1 262.2,174.1 262.2,170.9 266.1,170.9 266.1,169.6 262.2,169.6 
			262.2,167.3 266.1,167.3 266.1,166.1 261,166.1 		"/>
		<path class="st9" d="M269.7,175.4h1.3l1.1-2.4h3.9l1.1,2.4h1.3l-4.4-9.7L269.7,175.4z M272.6,171.9l1.5-3.3l1.5,3.3H272.6z"/>
		<path class="st9" d="M288.1,172c0,0.8-0.2,1.4-0.6,1.8s-1,0.6-1.7,0.6c-0.7,0-1.3-0.2-1.7-0.7c-0.4-0.5-0.6-1.1-0.6-2v-5.7h-1.3
			v5.5c0,1.3,0.3,2.4,1,3.1c0.7,0.7,1.5,1,2.7,1c1.1,0,1.9-0.3,2.6-1c0.6-0.7,1-1.6,1-2.7v-5.8h-1.3V172z"/>
		<polygon class="st9" points="300.8,166.1 299.4,166.1 297.3,169.4 295.2,166.1 293.8,166.1 296.6,170.6 293.7,175.4 295.2,175.4 
			297.3,171.8 299.5,175.4 300.9,175.4 298,170.6 		"/>
		<path class="st9" d="M319.4,172.3c0.1-0.2,0.1-0.4,0.2-0.6c0.1-0.2,0.1-0.4,0.1-0.6c0-0.2,0.1-0.5,0.1-0.8h-1.2
			c0,0.5-0.1,1.1-0.3,1.7l-1.9-2.3c0.3-0.1,0.5-0.3,0.7-0.5c0.2-0.2,0.5-0.4,0.6-0.6c0.2-0.2,0.3-0.5,0.4-0.8
			c0.1-0.3,0.2-0.6,0.2-0.9c0-0.4-0.1-0.7-0.2-0.9c-0.1-0.3-0.3-0.5-0.6-0.7c-0.2-0.2-0.5-0.3-0.8-0.4c-0.3-0.1-0.6-0.1-1-0.1
			c-0.4,0-0.7,0.1-1,0.2c-0.3,0.1-0.6,0.3-0.8,0.5c-0.2,0.2-0.4,0.4-0.5,0.7c-0.1,0.3-0.2,0.5-0.2,0.8c0,0.3,0,0.5,0.1,0.7
			c0.1,0.2,0.2,0.4,0.3,0.6c0.1,0.2,0.2,0.4,0.4,0.6c0.1,0.2,0.3,0.4,0.4,0.6c-0.3,0.2-0.7,0.4-1,0.6c-0.3,0.2-0.6,0.4-0.8,0.7
			c-0.2,0.3-0.4,0.5-0.5,0.9c-0.1,0.3-0.2,0.7-0.2,1.1c0,0.2,0,0.5,0.1,0.8c0.1,0.3,0.2,0.6,0.5,1c0.2,0.3,0.6,0.6,1,0.8
			c0.4,0.2,1,0.3,1.7,0.3c0.6,0,1.2-0.1,1.7-0.4c0.6-0.2,1-0.6,1.3-1.1l1.1,1.3h1.7l-2.1-2.4C319.2,172.7,319.3,172.5,319.4,172.3z
			 M315,166.1c0.3-0.2,0.5-0.3,0.8-0.3c0.4,0,0.7,0.1,0.9,0.3c0.2,0.2,0.3,0.5,0.3,0.8c0,0.2,0,0.4-0.1,0.6
			c-0.1,0.2-0.2,0.4-0.3,0.5s-0.3,0.3-0.5,0.4c-0.2,0.1-0.3,0.2-0.5,0.3l-0.4-0.4c-0.1-0.1-0.2-0.3-0.3-0.5
			c-0.1-0.2-0.2-0.3-0.2-0.5c-0.1-0.2-0.1-0.3-0.1-0.5C314.6,166.5,314.8,166.3,315,166.1z M316.7,174.1c-0.4,0.2-0.8,0.3-1.3,0.3
			c-0.3,0-0.5,0-0.8-0.1c-0.2-0.1-0.5-0.2-0.7-0.4c-0.2-0.2-0.3-0.3-0.5-0.6c-0.1-0.2-0.2-0.5-0.2-0.7c0-0.3,0.1-0.6,0.2-0.8
			c0.1-0.2,0.2-0.4,0.4-0.6c0.2-0.2,0.4-0.4,0.6-0.5c0.2-0.1,0.5-0.3,0.7-0.4l2.5,2.9C317.4,173.5,317.1,173.8,316.7,174.1z"/>
		<polygon class="st9" points="333.5,166.1 332.2,166.1 332.2,175.4 336.5,175.4 336.5,174.1 333.5,174.1 		"/>
		<rect x="340.8" y="166.1" class="st9" width="1.3" height="9.3"/>
		<polygon class="st9" points="353.8,172.7 347,165.7 347,175.4 348.2,175.4 348.2,168.7 355.1,175.8 355.1,166.1 353.8,166.1 		"/>
		<path class="st9" d="M362.3,166.1H360v9.3h2.3c1.7,0,3-0.5,3.9-1.4c0.9-0.9,1.3-2,1.3-3.2c0-1.2-0.4-2.3-1.3-3.2
			C365.4,166.5,364.1,166.1,362.3,166.1z M365.9,172.3c-0.3,0.5-0.6,0.9-1,1.1c-0.4,0.3-0.9,0.5-1.4,0.6c-0.5,0.1-1.2,0.1-2.1,0.1
			h-0.1v-6.8h0.6c0.9,0,1.7,0.1,2.3,0.3c0.6,0.2,1,0.6,1.4,1.2c0.4,0.6,0.6,1.2,0.6,1.9C366.2,171.3,366.1,171.8,365.9,172.3z"/>
		<path class="st9" d="M370.8,175.4h1.3l1.1-2.4h3.9l1.1,2.4h1.3l-4.4-9.7L370.8,175.4z M373.7,171.9l1.5-3.3l1.5,3.3H373.7z"/>
		<path class="st9" d="M382.2,167.5h0.8c0,0.5-0.3,1-0.7,1.5l0.6,0.5c0.3-0.3,0.5-0.6,0.7-1c0.2-0.4,0.3-0.7,0.3-1v-1.7h-1.6V167.5z
			"/>
		<path class="st9" d="M393.9,171.1c-0.2-0.3-0.5-0.5-0.8-0.7c-0.3-0.2-0.8-0.5-1.4-0.7c-0.6-0.3-1-0.5-1.3-0.7
			c-0.2-0.2-0.4-0.5-0.4-0.7c0-0.3,0.1-0.6,0.4-0.8s0.7-0.3,1.1-0.3c0.4,0,0.7,0.1,1,0.2c0.2,0.1,0.5,0.3,0.7,0.6l1-0.8
			c-0.3-0.4-0.8-0.8-1.3-1s-1-0.3-1.5-0.3c-0.8,0-1.4,0.2-1.9,0.7c-0.5,0.5-0.8,1-0.8,1.7c0,0.3,0,0.5,0.1,0.8
			c0.1,0.2,0.2,0.5,0.4,0.7c0.2,0.2,0.4,0.5,0.7,0.6c0.3,0.2,0.7,0.4,1.2,0.6c0.5,0.2,0.9,0.4,1.1,0.6c0.2,0.2,0.4,0.4,0.6,0.6
			c0.2,0.3,0.2,0.5,0.2,0.8c0,0.4-0.2,0.8-0.5,1c-0.3,0.3-0.7,0.4-1.2,0.4c-1,0-1.7-0.5-2.1-1.6l-1.3,0.4c0.3,0.9,0.8,1.5,1.4,1.9
			c0.6,0.4,1.3,0.6,2.1,0.6c0.8,0,1.5-0.3,2-0.8c0.6-0.5,0.8-1.2,0.8-2c0-0.3-0.1-0.6-0.2-0.9C394.3,171.6,394.1,171.4,393.9,171.1z
			"/>
		<path class="st9" d="M541.1,171.6c-1.5,1.5-2.5,2.2-3.1,2.2c-0.4,0-0.5-0.2-0.4-0.7c0.1-0.3,0.4-1.1,1.1-2.3
			c1-1.7,1.5-2.9,1.6-3.6c0.1-0.4,0-0.8-0.2-1.1c-0.2-0.3-0.5-0.4-0.9-0.4c-0.6,0-1.3,0.3-2.1,0.8c-0.8,0.5-2,1.5-3.5,2.9
			c0.3-0.9,1-2.2,1.8-3.7c0,0,0,0-0.1,0c-0.5,0.1-2.7,0.5-2.8,0.5l-0.1,0.1c-0.9,1.4-1.6,2.6-2,3.7c-0.2,0.5-0.4,1.1-0.6,1.7l0,0
			c-1.1,0.9-1.9,1.5-2.4,1.8c-0.5,0.3-1,0.4-1.5,0.4c-1.3,0-2-0.7-2-2.2c3.5-1,5.5-2.3,5.7-3.9c0.1-0.6,0-1.1-0.4-1.4
			c-0.4-0.4-0.9-0.5-1.6-0.5c-1.4,0-2.7,0.7-4.1,2c-1.2,1.2-2,2.5-2.3,4c-1.6,1.4-2.6,2.2-3.1,2.2c-0.1,0-0.2-0.1-0.3-0.2
			c-0.1-0.1-0.1-0.3-0.1-0.4c0.1-0.4,0.5-1.3,1.3-2.7c0.8-1.4,1.3-2.5,1.4-3.2c0.1-0.5,0-0.8-0.2-1.1c-0.2-0.3-0.5-0.4-0.9-0.4
			c-0.4,0-0.7,0.1-1.1,0.2c-0.4,0.2-1.1,0.5-2.2,1.1c1.3-1.4,2.3-2.6,3-3.6c2.7-3.9-0.5-6.4-3.6-2.7c-1.8,2.1-2.9,4-3.8,6
			c-0.8,1.5-1.3,3.2-1.8,4.9c-0.8,0.7-1.5,1.2-2.1,1.6c-0.6,0.4-1.2,0.5-1.8,0.5c-0.7,0-1.3-0.3-1.6-0.8c-0.3-0.5-0.4-1.3-0.3-2.2
			c0.2-1.1,0.6-2,1.2-2.8s1.2-1.2,1.8-1.2c0.2,0,0.4,0.1,0.5,0.3c0.1,0.2,0.1,0.5,0.1,0.8c0,0.1-0.1,0.3-0.2,0.6
			c-0.1,0.3-0.2,0.5-0.2,0.6c0,0.2,0,0.2,0.1,0.2c0.1,0,0.2,0,0.4-0.1l1.4-0.6c0.2-0.1,0.4-0.2,0.5-0.3c0.1-0.1,0.2-0.3,0.2-0.5
			c0.1-0.6,0-1.1-0.4-1.5c-0.4-0.4-0.9-0.6-1.6-0.6c-1.4,0-2.8,0.7-4.2,2.1c-1.2,1.2-2,2.5-2.4,3.9c-0.9,0.8-1.5,1.3-1.9,1.5
			c-0.4,0.2-0.8,0.4-1.2,0.4c-0.3,0-0.5-0.1-0.6-0.3c-0.1-0.2-0.2-0.5-0.1-0.9c0.1-0.5,0.4-1.2,0.8-2.1l1.2-2.6l1.8-0.1l0,0
			c0.1-0.2,0.7-1.7,0.7-1.7l0,0l-1.6,0.1l1.9-4l0,0l-3.1,0.6l-0.1,0l-1.7,3.6l-0.9,0l0,0l-0.9,1.8l0,0l0.9,0l-0.8,1.7
			c-0.4,0.8-0.7,1.5-0.8,2.1c-0.8,0.7-1.3,1.2-1.7,1.4c-0.3,0.2-0.7,0.3-1,0.3c-0.2,0-0.3-0.1-0.4-0.2c-0.1-0.2-0.1-0.4-0.1-0.6
			c0.1-0.6,0.5-1.7,1.3-3.2l1.8-3.6l0,0l-0.1,0l-2.9,0.6l-0.1,0.1c-1.2,2.1-2,3.9-2.5,5.4l0-0.1c-1.5,1.5-2.6,2.2-3.4,2.2
			c-0.7,0-1-0.4-0.8-1.3c0-0.2,0.1-0.5,0.2-0.8c0.1-0.4,0.2-0.7,0.2-0.8c0.2-0.9,0.1-1.6-0.2-2.1c-0.3-0.5-0.7-1-1.4-1.4
			c0.5-0.2,0.9-0.5,1.4-1c0.5-0.5,1-1.5,1.6-2.9c0.6-1.4,1.2-2.1,1.9-2.1c0.3,0,0.6,0.1,0.7,0.4c0.1,0.3,0.2,0.4,0.3,0.4
			c0.2,0,0.4-0.3,0.8-0.8c0.4-0.6,0.6-0.9,0.6-1.1c0.1-0.3-0.1-0.6-0.3-0.8c-0.3-0.3-0.6-0.4-0.9-0.4c-1.5,0-2.9,1.5-4.2,4.6
			c-0.5,1.2-1,2.1-1.4,2.5c-0.4,0.5-0.9,0.7-1.3,0.7l-0.5,0c-0.5,0-0.8,0.2-0.8,0.7c-0.1,0.3,0.1,0.5,0.5,0.5c0.2,0,0.3,0,0.4,0
			c0.2,0.3,0.3,0.8,0.2,1.5c0,0.2-0.2,0.7-0.4,1.6c-0.3,0.9-0.4,1.4-0.4,1.5c-0.2,0.9,0,1.6,0.4,2.2c0.4,0.6,1,0.9,1.8,0.9
			c0.8,0,1.5-0.2,2.3-0.7c0.7-0.4,1.6-1.1,2.7-2c0,0,0,0.1,0,0.1c-0.1,0.8-0.1,1.4,0.2,1.9c0.2,0.5,0.6,0.8,1.1,0.8
			c0.9,0,2.3-0.9,4.4-2.7c-0.1,0.8,0,1.4,0.3,1.9c0.3,0.6,0.8,0.8,1.5,0.8c0.6,0,1.3-0.2,2.1-0.7c0.8-0.4,1.7-1.1,2.8-2.1
			c0,0.7,0.2,1.3,0.6,1.8c0.5,0.6,1.3,1,2.3,1c0.9,0,1.8-0.2,2.7-0.7c0.9-0.4,1.8-1.1,2.9-2c0,0,0,0.1,0,0.1
			c-0.2,0.9-0.3,1.8-0.3,2.6l0,0l2.6-0.6l0,0c0.3-2,0.8-3.7,1.3-5.1c0.8-0.7,1.5-1.3,2.1-1.7c0.7-0.4,1.1-0.6,1.4-0.6
			c0.3,0,0.4,0.2,0.4,0.5c0,0.3-0.3,0.9-0.9,1.8c-1,1.7-1.6,3-1.7,3.9c-0.1,0.5,0,1,0.3,1.3c0.3,0.4,0.7,0.5,1.2,0.5
			c1.2,0,2.8-0.9,5-2.8c0,0.7,0.2,1.3,0.6,1.8c0.5,0.7,1.3,1,2.3,1c0.9,0,1.8-0.2,2.7-0.7c0.8-0.4,1.8-1.1,2.9-2
			c0,0.1-0.1,0.3-0.1,0.4c-0.1,0.5-0.2,1.3-0.3,2.3l2.6-0.6c0.1-0.7,0.2-1.2,0.3-1.6c0.1-0.5,0.3-1.1,0.5-1.8
			c0.1-0.4,0.4-0.7,0.7-1.1l0.8-0.7c0.3-0.3,0.6-0.5,0.8-0.7c0.3-0.3,0.5-0.5,0.8-0.6c0.2-0.2,0.5-0.3,0.6-0.4
			c0.2-0.1,0.3-0.2,0.5-0.2c0.2,0,0.3,0.1,0.2,0.4c0,0.2-0.3,0.8-0.8,1.7c-1,1.7-1.5,2.9-1.7,3.8c-0.1,0.6,0,1.1,0.2,1.4
			c0.2,0.4,0.6,0.5,1.1,0.5c1.3,0,2.9-0.9,5-2.8l0,0C540.9,172.7,541.1,171.6,541.1,171.6L541.1,171.6z M525.1,167.8
			c0.6-0.8,1.1-1.2,1.7-1.2c0.5,0,0.7,0.4,0.6,1.1c-0.3,1.5-1.4,2.5-3.5,3.1C524.1,169.6,524.5,168.6,525.1,167.8z M513.8,168.2
			c0.9-2.1,1.8-3.9,2.9-5.5c1-1.5,1.8-2.3,2.2-2.3c0.3,0,0.3,0.2,0.3,0.7C518.9,162.7,517.1,165,513.8,168.2z"/>
		<path class="st9" d="M483,162.2c0.3-0.6,0.8-1.2,1.3-1.8c0.5-0.5,0.8-0.9,0.8-0.9c0-0.1-0.1-0.2-0.3-0.3c-0.2-0.1-0.4-0.1-0.5-0.1
			c-0.1,0-0.2,0.1-0.4,0.2c-0.4,0.4-0.9,0.6-1.3,0.6c-0.3,0-0.8-0.1-1.4-0.4s-1.2-0.4-1.6-0.4c-1.2,0-2.4,0.5-3.6,1.6
			c-1.2,1.1-1.9,2.2-2.1,3.4c-0.1,0.5,0,0.9,0.2,1.4c0.2,0.5,0.4,0.7,0.7,0.7c0.2,0,0.6-0.2,1-0.5c0.4-0.4,0.6-0.6,0.6-0.7
			c0-0.1-0.1-0.2-0.2-0.4c-0.5-0.5-0.7-1.1-0.6-1.7c0.1-0.6,0.4-1,0.8-1.4c0.4-0.4,0.9-0.6,1.4-0.6c0.3,0,0.7,0.1,1.3,0.4
			c0.6,0.2,1.1,0.4,1.5,0.4c0.6,0,1.3-0.2,2.2-0.5c-2.2,1.8-3.6,3.2-4.2,4.4c-0.6,1.1-1.2,2.5-1.7,4c-1.1,3.6-2.5,5.4-4.1,5.4
			c-1,0-1.4-0.8-1.1-2.4c0.1-0.6,0-0.9-0.4-0.9c-0.2,0-0.6,0.2-1.2,0.7c-0.6,0.5-0.9,0.8-1,1.1c-0.1,0.6,0.2,1.2,0.9,1.6
			c0.7,0.5,1.6,0.7,2.6,0.7c1.1,0,2.1-0.3,3.2-0.8c1-0.6,2-1.4,2.8-2.6c0.8-1.1,1.7-3.1,2.7-5.9l0.5-1.4
			C482.2,163.7,482.6,162.8,483,162.2z"/>
		<path class="st9" d="M495.5,161.9L495.5,161.9l0.1-0.1l0,0c0.2-0.5,0.5-0.9,0.9-1.3c-0.2,0-0.4,0.1-0.6,0.1
			c-1.7,0.5-3.2,1.8-3.7,3.5l0.1,0C493.6,164.1,494.9,163.1,495.5,161.9z"/>
		<path class="st9" d="M421,160.5c-0.2-0.8-0.4-1.1-0.6-1.1c-0.2,0-0.7,0.2-1.5,0.6c-0.7,0.4-1.1,0.7-1.2,1c0,0.2,0.1,0.5,0.2,0.9
			c0.6,1.4,0.8,2.8,0.6,4c-0.2,1.3-0.6,2.6-1.4,4c-0.7,1.4-1.6,2.5-2.5,3.4c-0.9,0.8-1.8,1.2-2.5,1.2c-0.5,0-0.9-0.2-1.1-0.6
			c-0.3-0.4-0.4-0.8-0.3-1.4c0.1-0.8,0.6-2,1.4-3.6c0.8-1.6,1.4-2.7,1.6-3.5c0.3-0.7,0.4-1.4,0.5-2c0.2-1.3,0-2.3-0.5-3.1
			c-0.5-0.8-1.3-1.2-2.3-1.3c-1.3-0.1-2.6,0.4-3.8,1.6c-1.2,1.2-1.9,2.4-2,3.8c-0.1,0.5,0,1.1,0.2,1.5c0.2,0.5,0.5,0.7,0.8,0.8
			c0.3,0,0.6-0.1,1-0.4c0.4-0.3,0.6-0.6,0.6-0.9c0-0.2-0.1-0.4-0.4-0.8c-0.3-0.4-0.4-0.9-0.3-1.5c0.1-0.8,0.5-1.5,1.1-2.2
			c0.7-0.6,1.3-0.9,1.9-0.9c0.4,0,0.7,0.2,0.9,0.6c0.2,0.3,0.2,0.8,0.2,1.4c-0.1,0.9-0.7,2.4-1.8,4.4c-1.1,2.1-1.8,3.8-2,4.9
			c-0.2,1.2,0,2.3,0.6,3.1c0.6,0.8,1.4,1.3,2.5,1.3c1.3,0.1,2.7-0.5,4.2-1.8c1.4-1.3,2.7-3,3.8-5.2s1.8-4.1,2-5.9
			C421.2,162,421.1,161.2,421,160.5z"/>
		<path class="st9" d="M463.3,172.4c-1.4,1.3-2.4,1.9-3,1.9c-0.4,0-0.5-0.3-0.5-0.7c0-0.3,0.4-1.1,1-2.2c0.9-1.6,1.4-2.8,1.5-3.5
			c0.1-0.4,0-0.8-0.2-1.2c-0.2-0.3-0.5-0.5-0.9-0.5c-0.6-0.1-1.3,0.1-2.1,0.6c-0.8,0.5-2,1.4-3.4,2.7c0.3-0.9,0.9-2.1,1.7-3.7
			l-0.1,0c-0.9,0.1-1.8,0.2-2.7,0.4l-0.1,0c-0.8,1.4-1.5,2.6-1.9,3.7c-0.2,0.6-0.4,1.2-0.6,1.8c-0.7,0.6-1.3,1.1-1.7,1.4
			c-0.4,0.3-0.8,0.5-1.1,0.5c-0.5,0-0.7-0.3-0.6-1c0.1-0.6,0.5-1.8,1.3-3.5c0.5-1.1,1-2.2,1.5-3.3c0-0.1,0-0.2-1.1,0.3
			c-1.3,0.6-1.6,0.7-2.1,0.9c-0.3-0.9-0.9-1.3-1.9-1.3c-0.8,0-1.7,0.3-2.8,1c-1.1,0.7-2,1.5-2.8,2.6c-0.6,0.8-1,1.7-1.3,2.5
			c-1.2,1.3-2.4,2.1-3.5,2.5c0.6-1.9,1.3-3.9,1.9-5.8c0.3-0.9,0.6-1.8,1.1-2.7c0-0.1-0.1-0.1-0.3,0c-0.3,0.1-0.6,0.3-0.9,0.4
			c-0.6,0.3-1.1,0.5-1.5,0.6c-0.5-0.6-1.1-0.9-1.9-0.9c-1.4,0-2.8,0.8-4.2,2.2c-1.1,1.1-1.8,2.3-2.2,3.5c0,0,0-0.1,0-0.1
			c-1.1,1-1.9,1.6-2.4,1.9c-0.5,0.3-1,0.4-1.5,0.4c-1.3,0-2-0.7-2.1-2.2c3.6-1,5.5-2.4,5.7-4c0.1-0.6-0.1-1.1-0.5-1.4
			c-0.4-0.4-0.9-0.5-1.7-0.5c-1.4,0-2.8,0.7-4.1,2c-1.3,1.3-2.1,2.8-2.3,4.4c-0.1,1.1,0.1,2,0.6,2.6c0.6,0.7,1.4,1,2.4,1
			c1,0,1.9-0.3,2.7-0.7c0.8-0.5,1.8-1.2,2.9-2.1c-0.1,0.8,0,1.4,0.3,2c0.3,0.6,0.8,0.9,1.5,0.8c0.6,0,1.1-0.2,1.7-0.6
			c0.6-0.4,1.3-1,2.2-1.9c-0.3,0.8-0.5,1.5-0.8,2.3c-1.9,0.7-3.2,1.3-4.1,2c-0.8,0.7-1.3,1.4-1.4,2.2c-0.1,0.6,0,1.1,0.4,1.5
			c0.3,0.4,0.8,0.5,1.4,0.5c1.1,0,2.3-0.6,3.4-1.7c1.1-1.1,2.2-2.7,3.1-4.7c1.4-0.5,2.6-1.3,3.8-2.3c0,0.7,0.1,1.3,0.4,1.8
			c0.4,0.6,0.9,0.9,1.6,0.9c0.7,0,1.4-0.3,2.2-0.8c0.7-0.5,1.6-1.3,2.5-2.4c-0.4,2.1,0.1,3.2,1.3,3.2c0.5,0,1-0.2,1.6-0.5
			c0.6-0.3,1.5-1.1,2.8-2.1c0,0.1,0,0.2-0.1,0.3c-0.1,0.5-0.1,1.3-0.2,2.3l0.1,0c0.9-0.2,1.7-0.4,2.6-0.5l0,0
			c0.1-0.7,0.2-1.2,0.2-1.6c0.1-0.5,0.3-1.1,0.5-1.8c0.1-0.4,0.3-0.7,0.7-1.1c0.3-0.2,0.5-0.5,0.8-0.7c0.3-0.3,0.5-0.5,0.8-0.7
			c0.3-0.2,0.5-0.4,0.7-0.6c0.2-0.2,0.5-0.3,0.6-0.4c0.2-0.1,0.3-0.1,0.4-0.1c0.2,0,0.3,0.1,0.2,0.4c0,0.2-0.3,0.8-0.8,1.7
			c-0.9,1.6-1.4,2.9-1.5,3.7c-0.1,0.6,0,1.1,0.3,1.5c0.3,0.4,0.7,0.6,1.2,0.6c1.3,0.1,2.9-0.7,4.9-2.3l0,0
			C463.2,173.3,463.3,172.8,463.3,172.4L463.3,172.4L463.3,172.4z M423.1,167.9c0.6-0.8,1.1-1.2,1.6-1.2c0.5,0,0.8,0.4,0.7,1.1
			c-0.2,1.5-1.3,2.5-3.4,3.1C422.2,169.6,422.5,168.6,423.1,167.9z M430.7,179.8c-0.5,0.7-1,1.1-1.6,1.1c-0.3,0-0.6-0.1-0.8-0.3
			c-0.2-0.2-0.2-0.5-0.2-0.8c0.2-1.2,1.6-2.2,4.2-3.2C431.7,178,431.2,179.1,430.7,179.8z M434.7,170.1c-0.4,1-0.8,1.8-1.3,2.5
			c-0.5,0.7-1.1,1-1.6,1c-0.4,0-0.6-0.1-0.8-0.4c-0.2-0.3-0.2-0.7-0.2-1.2c0.2-1.1,0.6-2.3,1.4-3.4c0.8-1.1,1.6-1.7,2.4-1.7
			c0.3,0,0.5,0.1,0.6,0.3c0.2,0.2,0.2,0.5,0.2,0.9C435.3,168.4,435,169.1,434.7,170.1z M447.2,167.9c-0.1,1.1-0.7,2.3-1.5,3.6
			c-0.9,1.3-1.7,2-2.5,2c-0.3,0-0.6-0.1-0.7-0.4c-0.2-0.3-0.2-0.6-0.2-1c0.1-1.1,0.7-2.3,1.5-3.6c0.9-1.3,1.7-2,2.5-2
			c0.3,0,0.6,0.1,0.7,0.4C447.2,167.2,447.2,167.5,447.2,167.9z"/>
	</g>
	<path class="st9" d="M750,178.8L750,178.8c0-0.1,0-0.1,0-0.2l0,0c-0.2-1.2-1.2-2.1-2.5-2.2h-9.4v-6.6c4.6-0.2,8.4-3.3,9.6-7.5l0,0
		c0-0.2,0.1-0.3,0.1-0.5l0,0c0.5-1.6,1.2-3.1,2.2-4.5c-0.7,0.1-1.4,0.2-2.1,0.4c-5,1.4-8.9,5.4-10.3,10.3c-1.4-5-5.3-8.9-10.3-10.3
		c-0.7-0.2-1.4-0.3-2.1-0.4c1,1.4,1.8,3,2.3,4.7c0,0,0,0.1,0,0.1c1.2,4.3,5,7.5,9.7,7.7v0.2h0v6.4h-9.4c-0.7,0-1.2,0.3-1.7,0.7
		c-0.4,0.4-0.7,1-0.8,1.6v0c0,0.1,0,0.2,0,0.3c0,1.4,1.1,2.6,2.6,2.6c0,0,0.1,0,0.1,0h0c0,0,0.1,0,0.1,0h0c0,0,0.1,0,0.1,0l0,0
		c0,0,0,0,0.1,0l0.1,0l0,0c0,0,0,0,0.1,0l0,0c0,0,0.1,0,0.1,0l0,0c0.6-0.2,1.1-0.5,1.4-1l0,0c0,0,0-0.1,0.1-0.1l0,0l0-0.1
		c0,0,0-0.1,0-0.1l0,0c0.1-0.3,0.2-0.6,0.3-0.9l0,0v0c0-0.2-0.2-0.4-0.4-0.4c0,0-0.1,0-0.1,0c-0.2,0-0.3,0.2-0.3,0.4
		c0,0.4-0.2,0.7-0.4,0.9c-0.3,0.4-0.8,0.6-1.3,0.6c0,0-0.1,0-0.1,0c0,0,0,0-0.1,0c-0.9,0-1.7-0.8-1.7-1.8c0-0.9,0.7-1.7,1.6-1.7
		c0,0,0.1,0,0.1,0h19.6c0,0,0.1,0,0.1,0c0.9,0.1,1.6,0.8,1.6,1.7c0,0.9-0.7,1.7-1.7,1.8c0,0,0,0-0.1,0c0,0-0.1,0-0.1,0
		c-0.5,0-1-0.3-1.3-0.6c-0.2-0.3-0.4-0.6-0.4-0.9h0c0-0.2-0.1-0.3-0.3-0.4c0,0-0.1,0-0.1,0c-0.2,0-0.4,0.2-0.4,0.4h0l0,0l0,0
		c0,0.3,0.1,0.6,0.3,0.9l0,0c0,0,0,0.1,0,0.1l0,0.1l0,0c0,0,0,0.1,0.1,0.1l0,0c0.3,0.5,0.8,0.8,1.4,1h0c0,0,0.1,0,0.1,0l0,0
		c0,0,0,0,0.1,0l0,0l0.1,0l0.1,0l0,0c0,0,0.1,0,0.1,0h0c0,0,0.1,0,0.1,0h0c0,0,0.1,0,0.1,0c0.7,0,1.3-0.3,1.8-0.7
		c0.5-0.5,0.7-1.1,0.7-1.8C750,179,750,178.9,750,178.8L750,178.8z"/>
</g>
<g id="Layer_2">
</g>
</svg>
