<?xml version="1.0" encoding="utf-8"?>
<!-- Generator: Adobe Illustrator 20.0.0, SVG Export Plug-In . SVG Version: 6.00 Build 0)  -->
<svg version="1.1" xmlns="http://www.w3.org/2000/svg" xmlns:xlink="http://www.w3.org/1999/xlink" x="0px" y="0px"
	 viewBox="0 0 750 181.6" style="enable-background:new 0 0 750 181.6;" xml:space="preserve">
<style type="text/css">
	.st0{fill:none;stroke:#000000;stroke-miterlimit:10;}
	.st1{fill:none;stroke:#000000;stroke-miterlimit:10;stroke-dasharray:5.952,5.952;}
	.st2{fill:none;stroke:#000000;stroke-miterlimit:10;stroke-dasharray:5.7436,5.7436;}
	.st3{fill:none;stroke:#000000;stroke-miterlimit:10;stroke-dasharray:6;}
	.st4{fill:none;}
	.st5{fill:#010101;}
</style>
<g id="Layer_1">
	<g>
		<polyline class="st0" points="750,135.1 750,138.1 747,138.1 		"/>
		<line class="st1" x1="741" y1="138.1" x2="6" y2="138.1"/>
		<polyline class="st0" points="3,138.1 0,138.1 0,135.1 		"/>
		<line class="st2" x1="0" y1="129.4" x2="0" y2="5.9"/>
		<polyline class="st0" points="0,3 0,0 3,0 		"/>
		<line class="st1" x1="9" y1="0" x2="744" y2="0"/>
		<polyline class="st0" points="747,0 750,0 750,3 		"/>
		<line class="st2" x1="750" y1="8.7" x2="750" y2="132.2"/>
	</g>
	<g>
		<path d="M12.4,17.9c-2.5,0-4.1-1.8-4.1-4.5c0-2.7,1.6-4.6,4.1-4.6c1,0,1.8,0.3,2.5,0.7l-0.2,1.2c-0.6-0.5-1.4-0.9-2.3-0.9
			c-1.8,0-2.8,1.4-2.8,3.5c0,2.1,1.1,3.5,2.8,3.5c0.9,0,1.8-0.4,2.5-0.9l0.2,1.1C14.4,17.5,13.4,17.9,12.4,17.9z"/>
		<path d="M19.3,17.8c-1.7,0-3.1-1.3-3.1-3.4c0-2.1,1.5-3.4,3.1-3.4c1.7,0,3.1,1.2,3.1,3.4C22.4,16.5,21,17.8,19.3,17.8z M19.3,12.1
			c-1.2,0-1.9,1-1.9,2.4c0,1.3,0.8,2.4,1.9,2.4c1.2,0,1.9-1,1.9-2.4C21.2,13.1,20.5,12.1,19.3,12.1z"/>
		<path d="M28.2,17.7l-3.2-4.8v4.8h-1v-6.5H25l3.1,4.6v-4.6h1v6.5H28.2z"/>
		<path d="M33.6,12.2v5.4h-1.2v-5.4h-2v-1h5.1l0.2,1H33.6z"/>
		<path d="M37,17.7h-1.1l2.5-6.5h1.3l2.5,6.4L41,17.8l-0.6-1.7h-2.9L37,17.7z M39,12.3L39,12.3l-1.1,2.8H40C40,15.1,39,12.3,39,12.3
			z"/>
		<path d="M46,17.8c-1.9,0-3.1-1.4-3.1-3.3c0-2,1.2-3.4,3.1-3.4c0.8,0,1.4,0.2,1.9,0.5l-0.2,1.1c-0.5-0.3-1-0.6-1.6-0.6
			c-1.2,0-2,0.9-2,2.4c0,1.5,0.8,2.4,2,2.4c0.6,0,1.2-0.2,1.7-0.6l0.2,1C47.4,17.6,46.8,17.8,46,17.8z"/>
		<path d="M51.8,12.2v5.4h-1.2v-5.4h-2v-1h5.1l0.2,1H51.8z"/>
		<path d="M60.6,17.8c-1.6,0-2.6-1-2.6-2.6v-4h1.1v3.9c0,1,0.5,1.7,1.5,1.7c1,0,1.5-0.6,1.5-1.7v-3.9h1.2v3.9
			C63.3,16.9,62.2,17.8,60.6,17.8z"/>
		<path d="M66.8,17.8c-0.8,0-1.6-0.2-2.2-0.5l0.2-1c0.6,0.3,1.4,0.6,2.1,0.6c0.7,0,1.3-0.3,1.3-0.9c0-0.5-0.3-0.7-1.3-1.1
			c-1.4-0.5-2-0.9-2-1.9c0-1.1,0.9-1.9,2.2-1.9c0.7,0,1.4,0.2,1.9,0.4l-0.2,1.1c-0.6-0.3-1.2-0.5-1.7-0.5c-0.6,0-1.1,0.3-1.1,0.8
			c0,0.5,0.4,0.7,1.4,1c1.4,0.5,1.9,0.9,1.9,1.9C69.2,17,68.2,17.8,66.8,17.8z"/>
		<path d="M80,17.7h-1.1l-1.5-5.1l-1.6,5.1h-1.1l-1.9-6.3l1.2-0.3l1.3,5l1.5-4.9h1.2l1.5,4.9l1.3-4.9h1.1L80,17.7z"/>
		<path d="M83.2,17.7v-6.5h1.2v6.5H83.2z"/>
		<path d="M88.9,12.2v5.4h-1.2v-5.4h-2v-1h5.1l0.2,1H88.9z"/>
		<path d="M96.3,17.7v-2.8h-3v2.8h-1.1v-6.5h1.1v2.6h3v-2.6h1.2v6.5H96.3z"/>
		<path d="M102.6,17.7h-1.1l2.5-6.5h1.3l2.5,6.4l-1.1,0.3l-0.6-1.7h-2.9L102.6,17.7z M104.6,12.3L104.6,12.3l-1.1,2.8h2.1
			C105.7,15.1,104.6,12.3,104.6,12.3z"/>
		<path d="M113.3,17.7l-3.2-4.8v4.8h-1v-6.5h1.1l3.1,4.6v-4.6h1v6.5H113.3z"/>
		<path d="M118.9,15.2v2.5h-1.2v-2.5l-2.3-3.8l1.2-0.3l1.7,3.1l1.7-2.9h1.3L118.9,15.2z"/>
		<path d="M129.1,17.5l1.8,0.6l-0.2,1l-3.6-1.3c-1.5-0.5-2.4-1.5-2.4-3.3c0-2.1,1.5-3.4,3.1-3.4c1.7,0,3.1,1.2,3.1,3.3
			C131,15.8,130.4,16.9,129.1,17.5z M127.9,12.1c-1.2,0-1.9,1-1.9,2.4c0,1.3,0.8,2.4,1.9,2.4c1.2,0,1.9-1.1,1.9-2.4
			C129.9,13.2,129.1,12.1,127.9,12.1z"/>
		<path d="M135.1,17.8c-1.6,0-2.6-1-2.6-2.6v-4h1.1v3.9c0,1,0.5,1.7,1.5,1.7c1,0,1.5-0.6,1.5-1.7v-3.9h1.2v3.9
			C137.8,16.9,136.8,17.8,135.1,17.8z"/>
		<path d="M139.6,17.7v-6.5h4v1h-2.9v1.6h2.3l0.2,1h-2.5v1.8h3v1H139.6z"/>
		<path d="M146.8,17.8c-0.8,0-1.6-0.2-2.2-0.5l0.2-1c0.6,0.3,1.4,0.6,2.1,0.6c0.7,0,1.3-0.3,1.3-0.9c0-0.5-0.3-0.7-1.3-1.1
			c-1.4-0.5-2-0.9-2-1.9c0-1.1,0.9-1.9,2.2-1.9c0.7,0,1.4,0.2,1.9,0.4l-0.2,1.1c-0.6-0.3-1.2-0.5-1.7-0.5c-0.6,0-1.1,0.3-1.1,0.8
			c0,0.5,0.4,0.7,1.4,1c1.4,0.5,1.9,0.9,1.9,1.9C149.2,17,148.3,17.8,146.8,17.8z"/>
		<path d="M153.1,12.2v5.4h-1.2v-5.4h-2v-1h5.1l0.2,1H153.1z"/>
		<path d="M156.5,17.7v-6.5h1.2v6.5H156.5z"/>
		<path d="M162.3,17.8c-1.7,0-3.1-1.3-3.1-3.4c0-2.1,1.5-3.4,3.1-3.4c1.7,0,3.1,1.2,3.1,3.4C165.4,16.5,164,17.8,162.3,17.8z
			 M162.3,12.1c-1.2,0-1.9,1-1.9,2.4c0,1.3,0.8,2.4,1.9,2.4c1.2,0,1.9-1,1.9-2.4C164.2,13.1,163.5,12.1,162.3,12.1z"/>
		<path d="M171.2,17.7l-3.2-4.8v4.8h-1v-6.5h1.1l3.1,4.6v-4.6h1v6.5H171.2z"/>
		<path d="M175.8,17.8c-0.8,0-1.6-0.2-2.2-0.5l0.2-1c0.6,0.3,1.4,0.6,2.1,0.6c0.7,0,1.3-0.3,1.3-0.9c0-0.5-0.3-0.7-1.3-1.1
			c-1.4-0.5-2-0.9-2-1.9c0-1.1,0.9-1.9,2.2-1.9c0.7,0,1.4,0.2,1.9,0.4l-0.2,1.1c-0.6-0.3-1.2-0.5-1.7-0.5c-0.6,0-1.1,0.3-1.1,0.8
			c0,0.5,0.4,0.7,1.4,1c1.4,0.5,1.9,0.9,1.9,1.9C178.1,17,177.2,17.8,175.8,17.8z"/>
		<path d="M179.5,17.7v-1.5h1.3v1.5H179.5z"/>
		<path d="M187.5,14.1h-0.9v3.6h-1.2V8.9h2.3c1.9,0,3,0.9,3,2.5C190.7,13.2,189.4,14.1,187.5,14.1z M187.7,10h-1.1v3.1h1
			c1.2,0,1.9-0.5,1.9-1.6C189.5,10.5,188.9,10,187.7,10z"/>
		<path d="M192.1,17.7v-6.5h1.1v5.5h2.4l0.2,1H192.1z"/>
		<path d="M197.2,17.7v-6.5h4v1h-2.9v1.6h2.3l0.2,1h-2.5v1.8h3v1H197.2z"/>
		<path d="M203.3,17.7h-1.1l2.5-6.5h1.3l2.5,6.4l-1.1,0.3l-0.6-1.7h-2.9L203.3,17.7z M205.3,12.3L205.3,12.3l-1.1,2.8h2.1
			C206.4,15.1,205.3,12.3,205.3,12.3z"/>
		<path d="M211.5,17.8c-0.8,0-1.6-0.2-2.2-0.5l0.2-1c0.6,0.3,1.4,0.6,2.1,0.6c0.7,0,1.3-0.3,1.3-0.9c0-0.5-0.3-0.7-1.3-1.1
			c-1.4-0.5-2-0.9-2-1.9c0-1.1,0.9-1.9,2.2-1.9c0.7,0,1.4,0.2,1.9,0.4l-0.2,1.1c-0.6-0.3-1.2-0.5-1.7-0.5c-0.6,0-1.1,0.3-1.1,0.8
			c0,0.5,0.4,0.7,1.4,1c1.4,0.5,1.9,0.9,1.9,1.9C213.8,17,212.9,17.8,211.5,17.8z"/>
		<path d="M215.3,17.7v-6.5h4v1h-2.9v1.6h2.3l0.2,1h-2.5v1.8h3v1H215.3z"/>
		<path d="M223.7,17.7v-6.5h4v1h-2.9v1.6h2.3l0.2,1h-2.5v1.8h3v1H223.7z"/>
		<path d="M235.8,17.7l-0.4-5.2l-1.8,5.2h-1.1l-1.8-5.2l-0.4,5.2h-1l0.5-6.5h1.6l1.8,5.2l1.8-5.2h1.6l0.5,6.5H235.8z"/>
		<path d="M239.2,17.7h-1.1l2.5-6.5h1.3l2.5,6.4l-1.1,0.3l-0.6-1.7h-2.9L239.2,17.7z M241.2,12.3L241.2,12.3l-1.1,2.8h2.1
			C242.3,15.1,241.2,12.3,241.2,12.3z"/>
		<path d="M245.7,17.7v-6.5h1.2v6.5H245.7z"/>
		<path d="M248.7,17.7v-6.5h1.1v5.5h2.4l0.2,1H248.7z"/>
		<path d="M259.2,17.8c-1.6,0-2.6-1-2.6-2.6v-4h1.1v3.9c0,1,0.5,1.7,1.5,1.7c1,0,1.5-0.6,1.5-1.7v-3.9h1.2v3.9
			C261.9,16.9,260.9,17.8,259.2,17.8z"/>
		<path d="M265.5,17.8c-0.8,0-1.6-0.2-2.2-0.5l0.2-1c0.6,0.3,1.4,0.6,2.1,0.6c0.7,0,1.3-0.3,1.3-0.9c0-0.5-0.3-0.7-1.3-1.1
			c-1.4-0.5-2-0.9-2-1.9c0-1.1,0.9-1.9,2.2-1.9c0.7,0,1.4,0.2,1.9,0.4l-0.2,1.1c-0.6-0.3-1.2-0.5-1.7-0.5c-0.6,0-1.1,0.3-1.1,0.8
			c0,0.5,0.4,0.7,1.4,1c1.4,0.5,1.9,0.9,1.9,1.9C267.8,17,266.9,17.8,265.5,17.8z"/>
		<path d="M274.8,17.8c-1.9,0-3.1-1.4-3.1-3.3c0-2,1.2-3.4,3.1-3.4c0.8,0,1.4,0.2,1.9,0.5l-0.2,1.1c-0.5-0.3-1-0.6-1.6-0.6
			c-1.2,0-2,0.9-2,2.4c0,1.5,0.8,2.4,2,2.4c0.6,0,1.2-0.2,1.7-0.6l0.2,1C276.3,17.6,275.6,17.8,274.8,17.8z"/>
		<path d="M280.8,17.8c-1.7,0-3.1-1.3-3.1-3.4c0-2.1,1.5-3.4,3.1-3.4c1.7,0,3.1,1.2,3.1,3.4C283.9,16.5,282.5,17.8,280.8,17.8z
			 M280.8,12.1c-1.2,0-1.9,1-1.9,2.4c0,1.3,0.8,2.4,1.9,2.4c1.2,0,1.9-1,1.9-2.4C282.8,13.1,282,12.1,280.8,12.1z"/>
		<path d="M289.7,17.7l-3.2-4.8v4.8h-1v-6.5h1.1l3.1,4.6v-4.6h1v6.5H289.7z"/>
		<path d="M293.7,12.2v1.7h2.2l0.2,1h-2.3v2.8h-1.1v-6.5h3.9v1H293.7z"/>
		<path d="M297.8,17.7v-6.5h1.2v6.5H297.8z"/>
		<path d="M304.6,17.8l-1.9-2.6H302v2.5h-1.1v-6.5h2c1.5,0,2.4,0.7,2.4,2c0,1-0.5,1.6-1.4,1.8l1.8,2.4L304.6,17.8z M302.9,12.2H302
			v2.1h0.8c0.8,0,1.3-0.4,1.3-1.1C304.2,12.6,303.7,12.2,302.9,12.2z"/>
		<path d="M313.5,17.7l-0.4-5.2l-1.8,5.2h-1.1l-1.8-5.2l-0.4,5.2h-1l0.5-6.5h1.6l1.8,5.2l1.8-5.2h1.6l0.5,6.5H313.5z"/>
		<path d="M316.9,17.7h-1.1l2.5-6.5h1.3l2.5,6.4l-1.1,0.3l-0.6-1.7h-2.9L316.9,17.7z M319,12.3L319,12.3l-1.1,2.8h2.1
			C320,15.1,319,12.3,319,12.3z"/>
		<path d="M325.4,12.2v5.4h-1.2v-5.4h-2v-1h5.1l0.2,1H325.4z"/>
		<path d="M328.9,17.7v-6.5h1.2v6.5H328.9z"/>
		<path d="M334.7,17.8c-1.7,0-3.1-1.3-3.1-3.4c0-2.1,1.5-3.4,3.1-3.4c1.7,0,3.1,1.2,3.1,3.4C337.7,16.5,336.3,17.8,334.7,17.8z
			 M334.7,12.1c-1.2,0-1.9,1-1.9,2.4c0,1.3,0.8,2.4,1.9,2.4c1.2,0,1.9-1,1.9-2.4C336.6,13.1,335.8,12.1,334.7,12.1z"/>
		<path d="M343.5,17.7l-3.2-4.8v4.8h-1v-6.5h1.1l3.1,4.6v-4.6h1v6.5H343.5z"/>
		<path d="M351.9,17.8c-1.7,0-3.1-1.3-3.1-3.4c0-2.1,1.5-3.4,3.1-3.4c1.7,0,3.1,1.2,3.1,3.4C355,16.5,353.6,17.8,351.9,17.8z
			 M351.9,12.1c-1.2,0-1.9,1-1.9,2.4c0,1.3,0.8,2.4,1.9,2.4c1.2,0,1.9-1,1.9-2.4C353.8,13.1,353.1,12.1,351.9,12.1z"/>
		<path d="M360.8,17.7l-3.2-4.8v4.8h-1v-6.5h1.1l3.1,4.6v-4.6h1v6.5H360.8z"/>
		<path d="M366.4,17.8c-1.9,0-3.1-1.4-3.1-3.3c0-2,1.2-3.4,3.1-3.4c0.8,0,1.4,0.2,1.9,0.5l-0.2,1.1c-0.5-0.3-1-0.6-1.6-0.6
			c-1.2,0-2,0.9-2,2.4c0,1.5,0.8,2.4,2,2.4c0.6,0,1.2-0.2,1.7-0.6l0.2,1C367.8,17.6,367.1,17.8,366.4,17.8z"/>
		<path d="M369.7,17.7v-6.5h4v1h-2.9v1.6h2.3l0.2,1h-2.5v1.8h3v1H369.7z"/>
		<path d="M380.1,15.2h-0.8v2.5h-1.1v-6.5h2.1c1.4,0,2.3,0.7,2.3,2C382.6,14.5,381.6,15.2,380.1,15.2z M380.1,12.2h-0.8v2.1h0.8
			c0.8,0,1.3-0.3,1.3-1C381.4,12.6,381,12.2,380.1,12.2z"/>
		<path d="M386.4,17.8c-1.6,0-2.6-1-2.6-2.6v-4h1.1v3.9c0,1,0.5,1.7,1.5,1.7c1,0,1.5-0.6,1.5-1.7v-3.9h1.2v3.9
			C389.1,16.9,388,17.8,386.4,17.8z"/>
		<path d="M394.6,17.8l-1.9-2.6H392v2.5h-1.1v-6.5h2c1.5,0,2.4,0.7,2.4,2c0,1-0.5,1.6-1.4,1.8l1.8,2.4L394.6,17.8z M392.8,12.2H392
			v2.1h0.8c0.8,0,1.3-0.4,1.3-1.1C394.1,12.6,393.7,12.2,392.8,12.2z"/>
		<path d="M399.6,17.8c-1.9,0-3.1-1.4-3.1-3.3c0-2,1.2-3.4,3.1-3.4c0.8,0,1.4,0.2,1.9,0.5l-0.2,1.1c-0.5-0.3-1-0.6-1.6-0.6
			c-1.2,0-2,0.9-2,2.4c0,1.5,0.8,2.4,2,2.4c0.6,0,1.2-0.2,1.7-0.6l0.2,1C401.1,17.6,400.4,17.8,399.6,17.8z"/>
		<path d="M407.1,17.7v-2.8h-3v2.8H403v-6.5h1.1v2.6h3v-2.6h1.2v6.5H407.1z"/>
		<path d="M410.6,17.7h-1.1l2.5-6.5h1.3l2.5,6.4l-1.1,0.3l-0.6-1.7h-2.9L410.6,17.7z M412.6,12.3L412.6,12.3l-1.1,2.8h2.1
			C413.7,15.1,412.6,12.3,412.6,12.3z"/>
		<path d="M418.8,17.8c-0.8,0-1.6-0.2-2.2-0.5l0.2-1c0.6,0.3,1.4,0.6,2.1,0.6c0.7,0,1.3-0.3,1.3-0.9c0-0.5-0.3-0.7-1.3-1.1
			c-1.4-0.5-2-0.9-2-1.9c0-1.1,0.9-1.9,2.2-1.9c0.7,0,1.4,0.2,1.9,0.4l-0.2,1.1c-0.6-0.3-1.2-0.5-1.7-0.5c-0.6,0-1.1,0.3-1.1,0.8
			c0,0.5,0.4,0.7,1.4,1c1.4,0.5,2,0.9,2,1.9C421.1,17,420.2,17.8,418.8,17.8z"/>
		<path d="M422.6,17.7v-6.5h4v1h-2.9v1.6h2.3l0.2,1h-2.5v1.8h3v1H422.6z"/>
		<path d="M433.7,17.8c-1.7,0-3.1-1.3-3.1-3.4c0-2.1,1.5-3.4,3.1-3.4c1.7,0,3.1,1.2,3.1,3.4C436.8,16.5,435.4,17.8,433.7,17.8z
			 M433.7,12.1c-1.2,0-1.9,1-1.9,2.4c0,1.3,0.8,2.4,1.9,2.4c1.2,0,1.9-1,1.9-2.4C435.7,13.1,434.9,12.1,433.7,12.1z"/>
		<path d="M442,17.8l-1.9-2.6h-0.7v2.5h-1.1v-6.5h2c1.5,0,2.4,0.7,2.4,2c0,1-0.5,1.6-1.4,1.8l1.8,2.4L442,17.8z M440.3,12.2h-0.8
			v2.1h0.8c0.8,0,1.3-0.4,1.3-1.1C441.6,12.6,441.1,12.2,440.3,12.2z"/>
		<path d="M446.3,17.7h-2v-6.5h2c2.3,0,3.6,1.4,3.6,3.2C449.9,16.3,448.6,17.7,446.3,17.7z M446.4,12.2h-0.9v4.4h0.9
			c1.5,0,2.3-0.8,2.3-2.2C448.7,13.1,447.8,12.2,446.4,12.2z"/>
		<path d="M451.4,17.7v-6.5h4v1h-2.9v1.6h2.3l0.2,1h-2.5v1.8h3v1H451.4z"/>
		<path d="M460.7,17.8l-1.9-2.6h-0.7v2.5H457v-6.5h2c1.5,0,2.4,0.7,2.4,2c0,1-0.5,1.6-1.4,1.8l1.8,2.4L460.7,17.8z M459,12.2h-0.8
			v2.1h0.8c0.8,0,1.3-0.4,1.3-1.1C460.3,12.6,459.8,12.2,459,12.2z"/>
		<path d="M465.9,17.7v-6.5h1.2v6.5H465.9z"/>
		<path d="M470.7,17.8c-0.8,0-1.6-0.2-2.2-0.5l0.2-1c0.6,0.3,1.4,0.6,2.1,0.6c0.7,0,1.3-0.3,1.3-0.9c0-0.5-0.3-0.7-1.3-1.1
			c-1.4-0.5-2-0.9-2-1.9c0-1.1,0.9-1.9,2.2-1.9c0.7,0,1.4,0.2,1.9,0.4l-0.2,1.1c-0.6-0.3-1.2-0.5-1.7-0.5c-0.6,0-1.1,0.3-1.1,0.8
			c0,0.5,0.4,0.7,1.4,1c1.4,0.5,2,0.9,2,1.9C473.1,17,472.1,17.8,470.7,17.8z"/>
		<path d="M479.3,15.2h-0.8v2.5h-1.1v-6.5h2.1c1.4,0,2.3,0.7,2.3,2C481.7,14.5,480.8,15.2,479.3,15.2z M479.3,12.2h-0.8v2.1h0.8
			c0.8,0,1.3-0.3,1.3-1C480.6,12.6,480.1,12.2,479.3,12.2z"/>
		<path d="M486.7,17.8l-1.9-2.6h-0.7v2.5H483v-6.5h2c1.5,0,2.4,0.7,2.4,2c0,1-0.5,1.6-1.4,1.8l1.8,2.4L486.7,17.8z M485,12.2h-0.8
			v2.1h0.8c0.8,0,1.3-0.4,1.3-1.1C486.2,12.6,485.8,12.2,485,12.2z"/>
		<path d="M491.7,17.8c-1.7,0-3.1-1.3-3.1-3.4c0-2.1,1.5-3.4,3.1-3.4c1.7,0,3.1,1.2,3.1,3.4C494.8,16.5,493.4,17.8,491.7,17.8z
			 M491.7,12.1c-1.2,0-1.9,1-1.9,2.4c0,1.3,0.8,2.4,1.9,2.4c1.2,0,1.9-1,1.9-2.4C493.7,13.1,492.9,12.1,491.7,12.1z"/>
		<path d="M499.1,17.8c-1.9,0-3.1-1.4-3.1-3.3c0-2,1.2-3.4,3.1-3.4c0.8,0,1.4,0.2,1.9,0.5l-0.2,1.1c-0.5-0.3-1-0.6-1.6-0.6
			c-1.2,0-2,0.9-2,2.4c0,1.5,0.8,2.4,2,2.4c0.6,0,1.2-0.2,1.7-0.6l0.2,1C500.5,17.6,499.8,17.8,499.1,17.8z"/>
		<path d="M502.5,17.7v-6.5h4v1h-2.9v1.6h2.3l0.2,1h-2.5v1.8h3v1H502.5z"/>
		<path d="M509.7,17.8c-0.8,0-1.6-0.2-2.2-0.5l0.2-1c0.6,0.3,1.4,0.6,2.1,0.6c0.7,0,1.3-0.3,1.3-0.9c0-0.5-0.3-0.7-1.3-1.1
			c-1.4-0.5-2-0.9-2-1.9c0-1.1,0.9-1.9,2.2-1.9c0.7,0,1.4,0.2,1.9,0.4l-0.2,1.1c-0.6-0.3-1.2-0.5-1.7-0.5c-0.6,0-1.1,0.3-1.1,0.8
			c0,0.5,0.4,0.7,1.4,1c1.4,0.5,2,0.9,2,1.9C512.1,17,511.1,17.8,509.7,17.8z"/>
		<path d="M515.3,17.8c-0.8,0-1.6-0.2-2.2-0.5l0.2-1c0.6,0.3,1.4,0.6,2.1,0.6c0.7,0,1.3-0.3,1.3-0.9c0-0.5-0.3-0.7-1.3-1.1
			c-1.4-0.5-2-0.9-2-1.9c0-1.1,0.9-1.9,2.2-1.9c0.7,0,1.4,0.2,1.9,0.4l-0.2,1.1c-0.6-0.3-1.2-0.5-1.7-0.5c-0.6,0-1.1,0.3-1.1,0.8
			c0,0.5,0.4,0.7,1.4,1c1.4,0.5,2,0.9,2,1.9C517.6,17,516.7,17.8,515.3,17.8z"/>
		<path d="M519.1,17.7v-6.5h4v1h-2.9v1.6h2.3l0.2,1h-2.5v1.8h3v1H519.1z"/>
		<path d="M526.6,17.7h-2v-6.5h2c2.3,0,3.6,1.4,3.6,3.2C530.2,16.3,528.9,17.7,526.6,17.7z M526.7,12.2h-0.9v4.4h0.9
			c1.5,0,2.3-0.8,2.3-2.2C529,13.1,528.1,12.2,526.7,12.2z"/>
	</g>
	<g>
		<path d="M65.6,58.9c-1.6-1.3-2.4-2.6-2.4-4.4c0-1.9,1.1-3.4,3-4.5l0.2,1.1c-1.1,0.8-1.8,1.9-1.8,3.4c0,1.5,0.7,2.7,2.3,4.2
			L65.6,58.9z"/>
		<path d="M68.9,60.7c-0.6,0-1,0-1.3-0.1l-0.2-1.3c0.5,0.1,0.9,0.2,1.6,0.2c1.9,0,3.2-0.9,3.2-2.2c0-1-0.7-1.4-2-1.4
			c-0.4,0-0.6,0-1,0l-0.3,0v-1.1l0.5-0.1c1.9-0.2,2.6-1,2.6-2c0-0.8-0.6-1.4-1.6-1.4c-1,0-1.9,0.4-2.7,1l-0.2-1.2c0.7-0.6,1.8-1,3-1
			c1.9,0,2.8,1.1,2.8,2.4c0,1.3-0.9,2.1-1.9,2.5c1.1,0.2,2.1,0.8,2.1,2.2C73.5,59.3,71.6,60.7,68.9,60.7z"/>
		<path d="M74.8,57.9v-1.1l3.3-2.5c0.8-0.6,1.2-1.1,1.2-1.7c0-0.7-0.5-1.2-1.4-1.2c-0.9,0-1.7,0.3-2.7,0.9L75,51.1
			c0.8-0.5,1.8-0.9,2.9-0.9c1.7,0,2.7,0.9,2.7,2.2c0,1.1-0.6,1.8-2,2.8l-2.2,1.5h4.1l0.2,1.2H74.8z"/>
		<path d="M83.4,60.7c-0.6,0-1,0-1.3-0.1l-0.2-1.3c0.5,0.1,0.9,0.2,1.6,0.2c1.9,0,3.2-0.9,3.2-2.2c0-1-0.7-1.4-2-1.4
			c-0.4,0-0.6,0-1,0l-0.3,0v-1.1l0.5-0.1c1.9-0.2,2.6-1,2.6-2c0-0.8-0.6-1.4-1.6-1.4c-1,0-1.9,0.4-2.7,1l-0.2-1.2c0.7-0.6,1.8-1,3-1
			c1.9,0,2.8,1.1,2.8,2.4c0,1.3-0.9,2.1-1.9,2.5c1.1,0.2,2.1,0.8,2.1,2.2C87.9,59.3,86,60.7,83.4,60.7z"/>
		<path d="M89.5,59l-0.2-1.1c1.1-0.7,1.8-1.9,1.8-3.4c0-1.5-0.7-2.7-2.3-4.2L90,50c1.6,1.3,2.4,2.6,2.4,4.4
			C92.4,56.4,91.4,57.9,89.5,59z"/>
		<path d="M102.8,57.9v2.6l-1.2,0.2v-2.8h-4.7v-1l4.4-6.7h1.6v6.5h1.6v1.1H102.8z M101.6,51.7l-3.4,5.1h3.4V51.7z"/>
		<path d="M108.7,58c-1.9,0-3.4-1.5-3.4-3.9c0-2.4,1.5-3.9,3.4-3.9c1.9,0,3.4,1.5,3.4,3.9C112.1,56.5,110.6,58,108.7,58z
			 M108.7,51.3c-1.3,0-2.1,1.3-2.1,2.8c0,1.5,0.7,2.8,2.1,2.8c1.4,0,2.1-1.3,2.1-2.8C110.8,52.6,110,51.3,108.7,51.3z"/>
		<path d="M119.2,57.9v2.6l-1.2,0.2v-2.8h-4.7v-1l4.4-6.7h1.6v6.5h1.6v1.1H119.2z M118,51.7l-3.4,5.1h3.4V51.7z"/>
		<path d="M122,54.3V53h3.7v1.3H122z"/>
		<path d="M130,56.8c-1.7,0-2.9-1.1-2.9-3.1c0-2,1.5-3.5,3.4-3.5c2,0,3.4,1.5,3.4,4.3c0,3.5-2,5.4-5.2,6.2l-0.2-1.2
			c2.4-0.6,3.5-1.8,3.9-3.4C131.6,56.5,130.9,56.8,130,56.8z M132.6,54.6c0-2.1-0.8-3.3-2.1-3.3c-1.2,0-2,1-2,2.3c0,1.3,0.6,2,1.8,2
			c0.9,0,1.6-0.3,2.3-0.7C132.6,54.8,132.6,54.7,132.6,54.6z"/>
		<path d="M136.4,60.7c-0.6,0-1,0-1.3-0.1l-0.2-1.3c0.5,0.1,0.9,0.2,1.6,0.2c1.9,0,3.2-0.9,3.2-2.2c0-1-0.7-1.4-2-1.4
			c-0.4,0-0.6,0-1,0l-0.3,0v-1.1l0.5-0.1c1.9-0.2,2.6-1,2.6-2c0-0.8-0.6-1.4-1.6-1.4c-1,0-1.9,0.4-2.7,1l-0.2-1.2c0.7-0.6,1.8-1,3-1
			c1.9,0,2.8,1.1,2.8,2.4c0,1.3-0.9,2.1-1.9,2.5c1.1,0.2,2.1,0.8,2.1,2.2C141,59.3,139.1,60.7,136.4,60.7z"/>
		<path d="M144.4,60.7l-1.3-0.3l3.7-8.8h-4.6l-0.2-1.2h6.2v1L144.4,60.7z"/>
		<path d="M149.6,57.9v-1.1l3.3-2.5c0.8-0.6,1.2-1.1,1.2-1.7c0-0.7-0.5-1.2-1.4-1.2c-0.9,0-1.7,0.3-2.7,0.9l-0.2-1.2
			c0.8-0.5,1.8-0.9,2.9-0.9c1.7,0,2.7,0.9,2.7,2.2c0,1.1-0.6,1.8-2,2.8l-2.2,1.5h4.1l0.2,1.2H149.6z"/>
	</g>
	<g>
		<path d="M65.9,111.5h-1v2.9h-1.3v-7.5h2.5c1.6,0,2.7,0.8,2.7,2.3C68.8,110.8,67.6,111.5,65.9,111.5z M65.9,108h-1v2.4h1
			c1,0,1.5-0.4,1.5-1.2C67.4,108.4,66.9,108,65.9,108z"/>
		<path d="M70.2,114.4v-7.5h1.3v6.4h2.9l0.2,1.2H70.2z"/>
		<path d="M76.2,114.4v-7.5h4.7v1.2h-3.3v1.9h2.7l0.2,1.2h-2.9v2.2H81v1.2H76.2z"/>
		<path d="M83.3,114.4h-1.3l3-7.6h1.5l2.9,7.5l-1.3,0.3l-0.7-2H84L83.3,114.4z M85.6,108.1L85.6,108.1l-1.2,3.3h2.5
			C86.9,111.4,85.6,108.1,85.6,108.1z"/>
		<path d="M92.8,114.5c-0.9,0-1.8-0.2-2.6-0.6l0.2-1.2c0.7,0.4,1.7,0.7,2.5,0.7c0.9,0,1.5-0.4,1.5-1c0-0.6-0.4-0.9-1.5-1.2
			c-1.6-0.6-2.4-1-2.4-2.2c0-1.3,1.1-2.2,2.5-2.2c0.9,0,1.6,0.2,2.2,0.4l-0.2,1.2c-0.7-0.4-1.4-0.6-2-0.6c-0.7,0-1.2,0.4-1.2,0.9
			c0,0.6,0.4,0.8,1.6,1.2c1.6,0.6,2.3,1.1,2.3,2.3C95.6,113.6,94.4,114.5,92.8,114.5z"/>
		<path d="M97.2,114.4v-7.5h4.7v1.2h-3.3v1.9h2.7l0.2,1.2h-2.9v2.2h3.5v1.2H97.2z"/>
		<path d="M114.7,114.4l-0.5-6.1l-2.2,6.1h-1.3l-2.2-6.1l-0.4,6.1h-1.2l0.6-7.5h1.9l2.1,6.1l2.1-6.1h1.9l0.6,7.5H114.7z"/>
		<path d="M118.6,114.4h-1.3l3-7.6h1.5l2.9,7.5l-1.3,0.3l-0.7-2h-3.3L118.6,114.4z M121,108.1L121,108.1l-1.2,3.3h2.5
			C122.2,111.4,121,108.1,121,108.1z"/>
		<path d="M126.2,114.4v-7.5h1.4v7.5H126.2z"/>
		<path d="M129.7,114.4v-7.5h1.3v6.4h2.9l0.2,1.2H129.7z"/>
		<path d="M139,114.4v-7.5h1.4v7.5H139z"/>
		<path d="M147.6,114.4l-3.8-5.6v5.6h-1.2v-7.5h1.3l3.6,5.3v-5.3h1.2v7.5H147.6z"/>
		<path d="M154.3,114.6H153l-2.9-7.5l1.4-0.3l2.2,6.1l2.2-6h1.4L154.3,114.6z"/>
		<path d="M161.7,114.6c-1.9,0-3.6-1.5-3.6-3.9c0-2.5,1.7-3.9,3.6-3.9c1.9,0,3.6,1.5,3.6,3.9C165.3,113.1,163.6,114.6,161.7,114.6z
			 M161.7,107.9c-1.4,0-2.3,1.2-2.3,2.8c0,1.5,0.9,2.8,2.3,2.8c1.4,0,2.2-1.2,2.2-2.8C163.9,109.1,163.1,107.9,161.7,107.9z"/>
		<path d="M167.1,114.4v-7.5h1.4v7.5H167.1z"/>
		<path d="M173.9,114.6c-2.2,0-3.6-1.6-3.6-3.9c0-2.4,1.5-3.9,3.6-3.9c0.9,0,1.6,0.2,2.2,0.6l-0.2,1.2c-0.5-0.4-1.1-0.7-1.9-0.7
			c-1.5,0-2.3,1.1-2.3,2.8c0,1.7,0.9,2.8,2.3,2.8c0.7,0,1.4-0.3,2-0.7l0.2,1.1C175.5,114.3,174.7,114.6,173.9,114.6z"/>
		<path d="M177.8,114.4v-7.5h4.7v1.2h-3.3v1.9h2.7l0.2,1.2h-2.9v2.2h3.5v1.2H177.8z"/>
		<path d="M186.2,114.5c-0.9,0-1.8-0.2-2.6-0.6l0.2-1.2c0.7,0.4,1.7,0.7,2.5,0.7c0.9,0,1.5-0.4,1.5-1c0-0.6-0.4-0.9-1.5-1.2
			c-1.6-0.6-2.4-1-2.4-2.2c0-1.3,1.1-2.2,2.5-2.2c0.9,0,1.6,0.2,2.2,0.4l-0.2,1.2c-0.7-0.4-1.4-0.6-2-0.6c-0.7,0-1.2,0.4-1.2,0.9
			c0,0.6,0.4,0.8,1.6,1.2c1.6,0.6,2.3,1.1,2.3,2.3C189,113.6,187.9,114.5,186.2,114.5z"/>
		<path d="M197,108.1v6.4h-1.4v-6.4h-2.4v-1.2h6l0.2,1.2H197z"/>
		<path d="M203.9,114.6c-1.9,0-3.6-1.5-3.6-3.9c0-2.5,1.7-3.9,3.6-3.9c1.9,0,3.6,1.5,3.6,3.9C207.5,113.1,205.8,114.6,203.9,114.6z
			 M203.9,107.9c-1.4,0-2.3,1.2-2.3,2.8c0,1.5,0.9,2.8,2.3,2.8c1.4,0,2.2-1.2,2.2-2.8C206.1,109.1,205.3,107.9,203.9,107.9z"/>
		<path d="M209.2,109.1v-1.8h1.5v1.8H209.2z M209.2,114.4v-1.8h1.5v1.8H209.2z"/>
	</g>
	<g>
		<path d="M298.6,57.9h-2.7v-7.6h2.8c1.7,0,2.7,0.7,2.7,2c0,0.9-0.5,1.4-1.1,1.7c0.8,0.3,1.4,0.8,1.4,1.8
			C301.7,57.2,300.4,57.9,298.6,57.9z M298.6,51.6h-1v1.8h0.9c0.8,0,1.2-0.3,1.2-1C299.7,51.9,299.3,51.6,298.6,51.6z M298.6,54.5
			h-1v2.1h1c0.8,0,1.4-0.3,1.4-1C300,54.9,299.5,54.5,298.6,54.5z"/>
		<path d="M303.2,57.9v-7.6h1.8v7.6H303.2z"/>
		<path d="M306.9,57.9v-7.6h1.8v6.1h2.7l0.2,1.5H306.9z"/>
		<path d="M312.9,57.9v-7.6h1.8v6.1h2.7l0.2,1.5H312.9z"/>
		<path d="M319,57.9v-7.6h1.8v7.6H319z"/>
		<path d="M327.6,57.9l-3.3-5v5h-1.6v-7.6h1.7l3.2,4.8v-4.8h1.6v7.6H327.6z"/>
		<path d="M334.4,58c-2.4,0-3.8-1.6-3.8-3.9c0-2.4,1.5-4,3.8-4c1,0,1.7,0.2,2.4,0.6l-0.2,1.5c-0.6-0.4-1.3-0.7-2.1-0.7
			c-1.3,0-2.1,0.9-2.1,2.5c0,1.6,0.7,2.5,2.1,2.5c0.5,0,0.8-0.1,1.1-0.3v-1.5h-1.4l-0.2-1.3h3.2v3.7C336.5,57.7,335.6,58,334.4,58z"
			/>
		<path d="M342.8,57.3c-0.9,0-1.6-0.6-1.6-1.9c0-2.5,1.7-4.3,3.5-4.3c0.8,0,1.6,0.2,2.2,0.4l-0.6,3.2c0,0.2-0.1,0.6-0.1,0.8
			c0,0.5,0.3,0.9,0.9,0.9c1,0,1.8-1.1,1.8-3.1c0-2.9-1.8-4.3-4.3-4.3c-2.9,0-5.5,2.6-5.5,6.1c0,3.1,1.8,4.4,4.3,4.4
			c1.2,0,2.3-0.3,3.2-0.7l0.1,0.5c-0.8,0.4-2,0.7-3.3,0.7c-3,0-4.9-1.7-4.9-4.9c0-3.6,2.7-6.7,6.2-6.7c2.9,0,4.9,1.8,4.9,4.9
			c0,2.3-1.1,3.9-2.8,3.9c-1,0-1.8-0.5-2-1.3C344.1,56.9,343.5,57.3,342.8,57.3z M345.3,52.4c-0.2-0.1-0.4-0.1-0.7-0.1
			c-0.9,0-1.9,1.2-1.9,2.8c0,0.7,0.3,0.9,0.7,0.9s0.8-0.3,1.6-1.2L345.3,52.4z"/>
		<path d="M358.9,57.9l-0.4-5.9l-1.8,5.9h-1.7l-1.8-5.9l-0.4,5.9h-1.5l0.6-7.6h2.4l1.7,5.5l1.7-5.5h2.4l0.5,7.6H358.9z"/>
		<path d="M362.4,57.9v-7.6h1.8v6.1h2.7l0.2,1.5H362.4z"/>
		<path d="M371.6,58h-1.9l-2.7-7.5l1.8-0.3l1.9,5.9l1.9-5.7h1.8L371.6,58z"/>
		<path d="M375.6,57.9v-7.6h5v1.4h-3.2v1.6h2.5l0.2,1.4h-2.7v1.8h3.3v1.4H375.6z"/>
		<path d="M385.5,58c-2.4,0-3.8-1.6-3.8-3.9c0-2.4,1.5-4,3.8-4c1,0,1.7,0.2,2.4,0.6l-0.2,1.5c-0.6-0.4-1.3-0.7-2.1-0.7
			c-1.3,0-2.1,0.9-2.1,2.5c0,1.6,0.7,2.5,2.1,2.5c0.5,0,0.8-0.1,1.1-0.3v-1.5h-1.4l-0.2-1.3h3.2v3.7C387.5,57.7,386.6,58,385.5,58z"
			/>
		<path d="M390.9,57.9h-1.7l2.8-7.7h2.1l2.7,7.5l-1.7,0.3l-0.6-1.8h-3.1L390.9,57.9z M393,51.7L393,51.7l-1.1,3.1h2.1L393,51.7z"/>
		<path d="M403,57.9l-3.3-5v5H398v-7.6h1.7l3.2,4.8v-4.8h1.6v7.6H403z"/>
		<path d="M410.9,58l-2.8-3.8v3.6h-1.8v-7.6h1.8v3.4l2.6-3.4h2l-2.8,3.5l3,3.9L410.9,58z"/>
		<path d="M413.9,57.9v-7.6h1.8v7.6H413.9z"/>
		<path d="M421,51.8v6.1h-1.8v-6.1h-2.2v-1.5h6.1l0.2,1.5H421z"/>
		<path d="M427.7,58c-2.3,0-3.7-1.5-3.7-3.9c0-2.4,1.5-4,3.7-4c0.9,0,1.6,0.2,2.2,0.5l-0.2,1.6c-0.5-0.4-1.1-0.6-1.8-0.6
			c-1.2,0-2.1,0.9-2.1,2.5c0,1.6,0.8,2.5,2.1,2.5c0.7,0,1.3-0.2,1.9-0.6l0.2,1.5C429.4,57.8,428.6,58,427.7,58z"/>
		<path d="M436.1,57.9v-3.2h-2.9v3.2h-1.8v-7.6h1.8v2.9h2.9v-2.9h1.8v7.6H436.1z"/>
		<path d="M439.7,57.9v-7.6h5v1.4h-3.2v1.6h2.5l0.2,1.4h-2.7v1.8h3.3v1.4H439.7z"/>
		<path d="M451.2,57.9l-3.3-5v5h-1.6v-7.6h1.7l3.2,4.8v-4.8h1.6v7.6H451.2z"/>
		<path d="M454.5,57.9v-2.2h1.9v2.2H454.5z"/>
		<path d="M461.6,58c-2.3,0-3.7-1.5-3.7-3.9c0-2.4,1.5-4,3.7-4c0.9,0,1.6,0.2,2.2,0.5l-0.2,1.6c-0.5-0.4-1.1-0.6-1.8-0.6
			c-1.2,0-2.1,0.9-2.1,2.5c0,1.6,0.8,2.5,2.1,2.5c0.7,0,1.3-0.2,1.9-0.6l0.2,1.5C463.2,57.8,462.4,58,461.6,58z"/>
		<path d="M468.4,58c-2,0-3.7-1.5-3.7-4c0-2.4,1.7-4,3.7-4c2,0,3.7,1.5,3.7,4C472.1,56.5,470.4,58,468.4,58z M468.4,51.6
			c-1.2,0-1.9,1.1-1.9,2.5c0,1.4,0.7,2.5,1.9,2.5c1.2,0,1.9-1.1,1.9-2.5C470.3,52.7,469.6,51.6,468.4,51.6z"/>
		<path d="M481.1,57.9l-0.4-5.9l-1.8,5.9h-1.7l-1.8-5.9l-0.4,5.9h-1.5l0.6-7.6h2.4l1.7,5.5l1.7-5.5h2.4l0.5,7.6H481.1z"/>
	</g>
	<g>
		<path d="M253,114.4l-0.4-5.9l-1.8,5.9H249l-1.8-5.9l-0.4,5.9h-1.5l0.6-7.6h2.4l1.7,5.5l1.7-5.5h2.4l0.6,7.6H253z"/>
		<path d="M256.4,114.4v-7.6h1.8v6.1h2.7l0.2,1.5H256.4z"/>
		<path d="M269.6,114.5h-1.9L265,107l1.8-0.3l1.9,5.9l1.9-5.7h1.8L269.6,114.5z"/>
		<path d="M273.6,114.4v-7.6h5v1.4h-3.2v1.6h2.5l0.2,1.4h-2.7v1.8h3.3v1.4H273.6z"/>
		<path d="M283.4,114.6c-2.4,0-3.8-1.6-3.8-3.9c0-2.4,1.5-4,3.8-4c1,0,1.7,0.2,2.4,0.6l-0.2,1.5c-0.6-0.4-1.3-0.7-2.1-0.7
			c-1.3,0-2.1,0.9-2.1,2.5c0,1.6,0.7,2.5,2.1,2.5c0.5,0,0.8-0.1,1.1-0.3v-1.5h-1.4l-0.2-1.3h3.2v3.7
			C285.5,114.3,284.6,114.6,283.4,114.6z"/>
		<path d="M288.9,114.4h-1.7l2.8-7.7h2.1l2.7,7.5l-1.7,0.3l-0.6-1.8h-3.1L288.9,114.4z M291,108.2L291,108.2l-1.1,3.1h2.1L291,108.2
			z"/>
		<path d="M300.9,114.4l-3.3-5v5H296v-7.6h1.7l3.2,4.8v-4.8h1.6v7.6H300.9z"/>
		<path d="M312.1,114.6l-2.8-3.8v3.6h-1.8v-7.6h1.8v3.4l2.6-3.4h2l-2.8,3.5l3,3.9L312.1,114.6z"/>
		<path d="M315,114.4v-7.6h1.8v7.6H315z"/>
		<path d="M322.1,108.3v6.1h-1.8v-6.1h-2.2v-1.5h6.1l0.2,1.5H322.1z"/>
		<path d="M328.9,114.6c-2.3,0-3.7-1.5-3.7-3.9c0-2.4,1.5-4,3.7-4c0.9,0,1.6,0.2,2.2,0.5l-0.2,1.6c-0.5-0.4-1.1-0.6-1.8-0.6
			c-1.2,0-2.1,0.9-2.1,2.5c0,1.6,0.8,2.5,2.1,2.5c0.7,0,1.3-0.2,1.9-0.6l0.2,1.5C330.5,114.3,329.7,114.6,328.9,114.6z"/>
		<path d="M337.2,114.4v-3.2h-2.9v3.2h-1.8v-7.6h1.8v2.9h2.9v-2.9h1.8v7.6H337.2z"/>
		<path d="M340.8,114.4v-7.6h5v1.4h-3.2v1.6h2.5l0.2,1.4h-2.7v1.8h3.3v1.4H340.8z"/>
		<path d="M352.4,114.4l-3.3-5v5h-1.6v-7.6h1.7l3.2,4.8v-4.8h1.6v7.6H352.4z"/>
		<path d="M358.7,111v-1.7h3.8v1.7H358.7z"/>
		<path d="M368.4,117.2c-0.6,0-1,0-1.4-0.1l-0.3-1.6c0.5,0.1,1.1,0.2,1.7,0.2c1.7,0,2.8-0.8,2.8-1.8c0-0.8-0.6-1.2-1.7-1.2
			c-0.3,0-0.7,0-1,0.1l-0.4,0v-1.5l0.6-0.1c1.7-0.2,2.2-0.9,2.2-1.7c0-0.7-0.5-1.2-1.4-1.2c-0.9,0-1.8,0.4-2.6,1l-0.2-1.5
			c0.8-0.6,1.9-1,3.1-1c1.9,0,2.9,1,2.9,2.5c0,1.3-0.9,2.1-1.8,2.5c1.1,0.2,2,0.8,2,2.2C373.1,115.9,371.1,117.2,368.4,117.2z"/>
		<path d="M374.3,114.4v-1.4l3.2-2.5c0.7-0.5,1-0.9,1-1.5c0-0.6-0.4-1-1.2-1c-0.8,0-1.7,0.3-2.6,0.9l-0.3-1.5
			c0.9-0.5,1.9-0.8,3.1-0.8c1.7,0,2.8,0.9,2.8,2.2c0,1.1-0.6,1.7-1.8,2.6l-1.9,1.4h3.7l0.2,1.5H374.3z"/>
		<path d="M385.9,107.9c1.7,0,2.9,1.1,2.9,3.1c0,2.1-1.5,3.6-3.5,3.6c-2.1,0-3.5-1.5-3.5-4.3c0-3.6,2.3-5.6,5.4-6.3l0.3,1.6
			c-2.2,0.5-3.4,1.6-3.8,3C384.3,108.2,385.1,107.9,385.9,107.9z M383.5,110.3c0,1.8,0.7,2.9,1.8,2.9c1,0,1.7-0.8,1.7-2
			c0-1.2-0.5-1.8-1.6-1.8c-0.7,0-1.4,0.3-2,0.6C383.5,110.1,383.5,110.2,383.5,110.3z"/>
		<path d="M393.4,114.6c-2,0-3.5-1.5-3.5-4c0-2.4,1.5-4,3.5-4c2,0,3.6,1.5,3.6,4C397,113.1,395.4,114.6,393.4,114.6z M393.4,108.1
			c-1.1,0-1.7,1-1.7,2.5c0,1.5,0.7,2.5,1.7,2.5c1.1,0,1.8-1,1.8-2.5C395.2,109.1,394.5,108.1,393.4,108.1z"/>
		<path d="M405,114.6c-2.3,0-3.7-1.5-3.7-3.9c0-2.4,1.5-4,3.7-4c0.9,0,1.6,0.2,2.2,0.5l-0.2,1.6c-0.5-0.4-1.1-0.6-1.8-0.6
			c-1.2,0-2.1,0.9-2.1,2.5c0,1.6,0.8,2.5,2.1,2.5c0.7,0,1.3-0.2,1.9-0.6l0.2,1.5C406.6,114.3,405.8,114.6,405,114.6z"/>
		<path d="M409.6,114.4H408l2.8-7.7h2.1l2.7,7.5l-1.7,0.3l-0.6-1.8h-3.1L409.6,114.4z M411.8,108.2L411.8,108.2l-1.1,3.1h2.1
			L411.8,108.2z"/>
		<path d="M419.1,114.5c-1,0-2-0.2-2.8-0.6l0.3-1.5c0.7,0.4,1.8,0.7,2.6,0.7c0.8,0,1.2-0.3,1.2-0.8c0-0.5-0.3-0.7-1.3-1
			c-1.7-0.5-2.6-1-2.6-2.3c0-1.4,1.1-2.3,2.7-2.3c1,0,1.8,0.2,2.4,0.5l-0.3,1.5c-0.7-0.3-1.4-0.6-2.1-0.6c-0.7,0-1.1,0.3-1.1,0.7
			c0,0.5,0.3,0.7,1.3,1c1.8,0.6,2.5,1.1,2.5,2.4C422,113.6,420.8,114.5,419.1,114.5z"/>
		<path d="M423.5,114.4v-7.6h1.8v7.6H423.5z"/>
		<path d="M430.6,108.3v6.1h-1.8v-6.1h-2.2v-1.5h6.1l0.2,1.5H430.6z"/>
		<path d="M434.7,114.4H433l2.8-7.7h2.1l2.7,7.5l-1.7,0.3l-0.6-1.8h-3.1L434.7,114.4z M436.8,108.2L436.8,108.2l-1.1,3.1h2.1
			L436.8,108.2z"/>
		<path d="M444.1,114.5c-1,0-2-0.2-2.8-0.6l0.3-1.5c0.7,0.4,1.8,0.7,2.6,0.7c0.8,0,1.2-0.3,1.2-0.8c0-0.5-0.3-0.7-1.3-1
			c-1.7-0.5-2.6-1-2.6-2.3c0-1.4,1.1-2.3,2.7-2.3c1,0,1.8,0.2,2.4,0.5l-0.3,1.5c-0.7-0.3-1.4-0.6-2.1-0.6c-0.7,0-1.1,0.3-1.1,0.7
			c0,0.5,0.3,0.7,1.3,1c1.8,0.6,2.5,1.1,2.5,2.4C447,113.6,445.9,114.5,444.1,114.5z"/>
		<path d="M452.6,114.4h-1.7l2.8-7.7h2.1l2.7,7.5l-1.7,0.3l-0.6-1.8h-3.1L452.6,114.4z M454.8,108.2L454.8,108.2l-1.1,3.1h2.1
			L454.8,108.2z"/>
		<path d="M463.4,114.5h-1.9l-2.7-7.5l1.8-0.3l1.9,5.9l1.9-5.7h1.8L463.4,114.5z"/>
		<path d="M467.4,114.4v-7.6h5v1.4h-3.2v1.6h2.5l0.2,1.4h-2.7v1.8h3.3v1.4H467.4z"/>
		<path d="M474.5,116.5l-1-0.3l0.7-4h2L474.5,116.5z"/>
		<path d="M480.8,114.4v-7.6h1.8v6.1h2.7l0.2,1.5H480.8z"/>
		<path d="M489.7,114.6c-2,0-3.7-1.5-3.7-4c0-2.4,1.7-4,3.7-4c2,0,3.7,1.5,3.7,4C493.4,113,491.8,114.6,489.7,114.6z M489.7,108.1
			c-1.2,0-1.9,1.1-1.9,2.5c0,1.4,0.7,2.5,1.9,2.5c1.2,0,1.9-1.1,1.9-2.5C491.6,109.2,490.9,108.1,489.7,108.1z"/>
		<path d="M497.2,114.5c-1,0-2-0.2-2.8-0.6l0.3-1.5c0.7,0.4,1.8,0.7,2.6,0.7c0.8,0,1.2-0.3,1.2-0.8c0-0.5-0.3-0.7-1.3-1
			c-1.7-0.5-2.6-1-2.6-2.3c0-1.4,1.1-2.3,2.7-2.3c1,0,1.8,0.2,2.4,0.5l-0.3,1.5c-0.7-0.3-1.4-0.6-2.1-0.6c-0.7,0-1.1,0.3-1.1,0.7
			c0,0.5,0.3,0.7,1.3,1c1.8,0.6,2.5,1.1,2.5,2.4C500.1,113.6,498.9,114.5,497.2,114.5z"/>
		<path d="M505.7,114.4H504l2.8-7.7h2.1l2.7,7.5l-1.7,0.3l-0.6-1.8h-3.1L505.7,114.4z M507.8,108.2L507.8,108.2l-1.1,3.1h2.1
			L507.8,108.2z"/>
		<path d="M517.8,114.4l-3.3-5v5h-1.6v-7.6h1.7l3.2,4.8v-4.8h1.6v7.6H517.8z"/>
		<path d="M524.5,114.6c-2.4,0-3.8-1.6-3.8-3.9c0-2.4,1.5-4,3.8-4c1,0,1.7,0.2,2.4,0.6l-0.2,1.5c-0.6-0.4-1.3-0.7-2.1-0.7
			c-1.3,0-2.1,0.9-2.1,2.5c0,1.6,0.7,2.5,2.1,2.5c0.5,0,0.8-0.1,1.1-0.3v-1.5h-1.4l-0.2-1.3h3.2v3.7
			C526.6,114.3,525.7,114.6,524.5,114.6z"/>
		<path d="M529,114.4v-7.6h5v1.4h-3.2v1.6h2.5l0.2,1.4h-2.7v1.8h3.3v1.4H529z"/>
		<path d="M535.6,114.4v-7.6h1.8v6.1h2.7l0.2,1.5H535.6z"/>
		<path d="M541.6,114.4v-7.6h5v1.4h-3.2v1.6h2.5l0.2,1.4h-2.7v1.8h3.3v1.4H541.6z"/>
		<path d="M550.5,114.5c-1,0-2-0.2-2.8-0.6l0.3-1.5c0.7,0.4,1.8,0.7,2.6,0.7c0.8,0,1.2-0.3,1.2-0.8c0-0.5-0.3-0.7-1.3-1
			c-1.7-0.5-2.6-1-2.6-2.3c0-1.4,1.1-2.3,2.7-2.3c1,0,1.8,0.2,2.4,0.5l-0.3,1.5c-0.7-0.3-1.4-0.6-2.1-0.6c-0.7,0-1.1,0.3-1.1,0.7
			c0,0.5,0.3,0.7,1.3,1c1.8,0.6,2.5,1.1,2.5,2.4C553.4,113.6,552.2,114.5,550.5,114.5z"/>
		<path d="M555.3,116.5l-1-0.3l0.7-4h2L555.3,116.5z"/>
		<path d="M565,114.6c-2.3,0-3.7-1.5-3.7-3.9c0-2.4,1.5-4,3.7-4c0.9,0,1.6,0.2,2.2,0.5l-0.2,1.6c-0.5-0.4-1.1-0.6-1.8-0.6
			c-1.2,0-2.1,0.9-2.1,2.5c0,1.6,0.8,2.5,2.1,2.5c0.7,0,1.3-0.2,1.9-0.6l0.2,1.5C566.6,114.3,565.8,114.6,565,114.6z"/>
		<path d="M569.6,114.4h-1.7l2.8-7.7h2.1l2.7,7.5l-1.7,0.3l-0.6-1.8h-3.1L569.6,114.4z M571.8,108.2L571.8,108.2l-1.1,3.1h2.1
			L571.8,108.2z"/>
		<path d="M582.4,113.4c-1.7,0-2.9-1.1-2.9-3.1c0-2.1,1.5-3.6,3.5-3.6c2.1,0,3.6,1.5,3.6,4.3c0,3.6-2.2,5.6-5.5,6.2l-0.2-1.6
			c2.2-0.5,3.4-1.5,3.8-2.9C584,113.2,583.2,113.4,582.4,113.4z M584.9,111c0-1.8-0.7-2.9-1.8-2.9c-1,0-1.7,0.8-1.7,2
			c0,1.2,0.5,1.8,1.6,1.8c0.7,0,1.4-0.2,2-0.6C584.9,111.2,584.9,111.1,584.9,111z"/>
		<path d="M591.3,114.6c-2,0-3.5-1.5-3.5-4c0-2.4,1.5-4,3.5-4c2,0,3.6,1.5,3.6,4C594.9,113.1,593.4,114.6,591.3,114.6z M591.3,108.1
			c-1.1,0-1.7,1-1.7,2.5c0,1.5,0.7,2.5,1.7,2.5c1.1,0,1.8-1,1.8-2.5C593.1,109.1,592.4,108.1,591.3,108.1z"/>
		<path d="M599.5,114.6c-2,0-3.5-1.5-3.5-4c0-2.4,1.5-4,3.5-4c2,0,3.6,1.5,3.6,4C603.1,113.1,601.5,114.6,599.5,114.6z M599.5,108.1
			c-1.1,0-1.7,1-1.7,2.5c0,1.5,0.7,2.5,1.7,2.5c1.1,0,1.8-1,1.8-2.5C601.3,109.1,600.6,108.1,599.5,108.1z"/>
		<path d="M605.6,117.2c-0.6,0-1,0-1.4-0.1l-0.3-1.6c0.5,0.1,1.1,0.2,1.7,0.2c1.7,0,2.8-0.8,2.8-1.8c0-0.8-0.6-1.2-1.7-1.2
			c-0.3,0-0.7,0-1,0.1l-0.4,0v-1.5l0.6-0.1c1.7-0.2,2.2-0.9,2.2-1.7c0-0.7-0.5-1.2-1.4-1.2c-0.9,0-1.8,0.4-2.6,1l-0.2-1.5
			c0.8-0.6,1.9-1,3.1-1c1.9,0,2.9,1,2.9,2.5c0,1.3-0.9,2.1-1.8,2.5c1.1,0.2,2,0.8,2,2.2C610.2,115.9,608.2,117.2,605.6,117.2z"/>
		<path d="M614.3,113.4c-1.7,0-2.9-1.1-2.9-3.1c0-2.1,1.5-3.6,3.5-3.6c2.1,0,3.6,1.5,3.6,4.3c0,3.6-2.2,5.6-5.5,6.2l-0.2-1.6
			c2.2-0.5,3.4-1.5,3.8-2.9C615.8,113.2,615.1,113.4,614.3,113.4z M616.7,111c0-1.8-0.7-2.9-1.8-2.9c-1,0-1.7,0.8-1.7,2
			c0,1.2,0.5,1.8,1.6,1.8c0.7,0,1.4-0.2,2-0.6C616.7,111.2,616.7,111.1,616.7,111z"/>
	</g>
	<line class="st3" x1="0" y1="25.7" x2="750" y2="25.7"/>
	<path d="M17.2,51.8c1.5,3,4,5.5,7,7l2.3-2.3c0.3-0.3,0.7-0.4,1.1-0.3c1.2,0.4,2.5,0.6,3.8,0.6c0.6,0,1.1,0.5,1.1,1.1v3.7
		c0,0.6-0.5,1.1-1.1,1.1c-10,0-18.1-8.1-18.1-18.1c0-0.6,0.5-1.1,1.1-1.1h3.7c0.6,0,1.1,0.5,1.1,1.1c0,1.3,0.2,2.6,0.6,3.8
		c0.1,0.4,0,0.8-0.3,1.1L17.2,51.8z"/>
	<line class="st3" x1="0" y1="81.9" x2="750" y2="81.9"/>
	<line class="st3" x1="45.6" y1="25.7" x2="45.6" y2="138.1"/>
	<line class="st3" x1="229.5" y1="25.7" x2="229.5" y2="138.1"/>
	<line class="st3" x1="279.3" y1="25.7" x2="279.3" y2="81.9"/>
	<path d="M263.6,44.6h-17c-1.2,0-2.1,1-2.1,2.1l0,12.7c0,1.2,1,2.1,2.1,2.1h17c1.2,0,2.1-1,2.1-2.1V46.7
		C265.7,45.6,264.7,44.6,263.6,44.6z M263.6,59.5h-17V48.9l8.5,5.3l8.5-5.3V59.5z M255.1,52l-8.5-5.3h17L255.1,52z"/>
	<path d="M32.4,104.3H21.8v6.4h-2.1v-8.5H26V98h-8.5v6.4h-2.1c-1.2,0-2.1,1-2.1,2.1v12.7c0,1.2,1,2.1,2.1,2.1h17
		c1.2,0,2.1-1,2.1-2.1v-12.7C34.5,105.3,33.6,104.3,32.4,104.3z"/>
	<g>
		<path class="st4" d="M315,167.9c0.1,0.2,0.2,0.3,0.3,0.5l0.4,0.4c0.1-0.1,0.3-0.2,0.5-0.3c0.2-0.1,0.3-0.3,0.5-0.4
			s0.3-0.3,0.3-0.5c0.1-0.2,0.1-0.4,0.1-0.6c0-0.3-0.1-0.6-0.3-0.8c-0.2-0.2-0.5-0.3-0.9-0.3c-0.3,0-0.6,0.1-0.8,0.3
			c-0.3,0.2-0.4,0.5-0.4,0.9c0,0.2,0,0.3,0.1,0.5C314.8,167.6,314.9,167.7,315,167.9z"/>
		<path class="st4" d="M428.1,179.7c0,0.3,0,0.6,0.2,0.8c0.2,0.2,0.4,0.3,0.8,0.3c0.6,0,1.1-0.4,1.6-1.1c0.5-0.7,1.1-1.8,1.6-3.2
			C429.7,177.5,428.3,178.6,428.1,179.7z"/>
		<path class="st4" d="M314.5,170.6c-0.2,0.2-0.4,0.3-0.6,0.5c-0.2,0.2-0.3,0.4-0.4,0.6c-0.1,0.2-0.2,0.5-0.2,0.8
			c0,0.3,0.1,0.5,0.2,0.7c0.1,0.2,0.3,0.4,0.5,0.6c0.2,0.2,0.4,0.3,0.7,0.4c0.2,0.1,0.5,0.1,0.8,0.1c0.5,0,0.9-0.1,1.3-0.3
			c0.4-0.2,0.7-0.5,1-0.9l-2.5-2.9C315,170.3,314.8,170.5,314.5,170.6z"/>
		<path class="st4" d="M425.4,167.8c0.1-0.7-0.1-1.1-0.7-1.1c-0.5,0-1.1,0.4-1.6,1.2c-0.6,0.8-0.9,1.8-1.1,3
			C424.1,170.3,425.2,169.3,425.4,167.8z"/>
		<path class="st4" d="M364.2,167.6c-0.6-0.2-1.3-0.3-2.3-0.3h-0.6v6.8h0.1c0.9,0,1.7,0,2.1-0.1c0.5-0.1,0.9-0.3,1.4-0.6
			c0.4-0.3,0.8-0.7,1-1.1c0.3-0.5,0.4-1,0.4-1.6c0-0.7-0.2-1.4-0.6-1.9C365.2,168.2,364.7,167.8,364.2,167.6z"/>
		<polygon class="st4" points="373.7,171.9 376.7,171.9 375.2,168.6 		"/>
		<polygon class="st4" points="272.6,171.9 275.6,171.9 274.1,168.6 		"/>
		<path class="st4" d="M527.4,167.7c0.1-0.7-0.1-1.1-0.6-1.1c-0.5,0-1.1,0.4-1.7,1.2c-0.6,0.8-1,1.8-1.2,3
			C526,170.2,527.1,169.2,527.4,167.7z"/>
		<path class="st4" d="M240.4,168.8c0-0.4-0.1-0.7-0.3-1c-0.2-0.3-0.5-0.4-0.9-0.5c-0.4-0.1-0.9-0.1-1.6-0.1v3.2
			C239.5,170.5,240.4,169.9,240.4,168.8z"/>
		<path class="st4" d="M518.9,160.5c-0.4,0-1.2,0.8-2.2,2.3c-1,1.5-2,3.3-2.9,5.5c3.3-3.2,5.1-5.5,5.3-7
			C519.3,160.7,519.2,160.5,518.9,160.5z"/>
		<path class="st4" d="M434.5,166.8c-0.8,0-1.6,0.6-2.4,1.7c-0.8,1.1-1.2,2.2-1.4,3.4c-0.1,0.5,0,0.9,0.2,1.2
			c0.2,0.3,0.5,0.4,0.8,0.4c0.6,0,1.1-0.4,1.6-1c0.5-0.7,1-1.5,1.3-2.5c0.4-1,0.6-1.7,0.6-2.1c0-0.4,0-0.7-0.2-0.9
			C435,166.9,434.8,166.8,434.5,166.8z"/>
		<path class="st4" d="M446.3,166.6c-0.8,0-1.6,0.7-2.5,2c-0.9,1.3-1.4,2.5-1.5,3.6c-0.1,0.4,0,0.7,0.2,1c0.2,0.3,0.4,0.4,0.7,0.4
			c0.8,0,1.6-0.7,2.5-2c0.9-1.3,1.4-2.5,1.5-3.6c0.1-0.4,0-0.8-0.2-1C446.9,166.7,446.6,166.6,446.3,166.6z"/>
		<polygon class="st4" points="226.1,171.9 229.1,171.9 227.6,168.6 		"/>
		<polygon class="st5" points="214.4,172.6 211.5,165.7 208.9,175.4 210.2,175.4 211.7,169.4 214.4,175.7 217,169.4 218.6,175.4 
			219.8,175.4 217.3,165.7 		"/>
		<path class="st5" d="M223.2,175.4h1.3l1.1-2.4h3.9l1.1,2.4h1.3l-4.4-9.7L223.2,175.4z M226.1,171.9l1.5-3.3l1.5,3.3H226.1z"/>
		<path class="st5" d="M241.1,170.4c0.4-0.5,0.6-1,0.6-1.6c0-0.8-0.3-1.4-0.9-1.9c-0.6-0.5-1.4-0.7-2.4-0.7h-2v9.3h1.3v-3.8h0.3
			l2.6,3.8h1.5l-2.7-4C240.1,171.2,240.7,170.8,241.1,170.4z M237.6,170.4v-3.2c0.7,0,1.2,0,1.6,0.1c0.4,0.1,0.7,0.3,0.9,0.5
			c0.2,0.3,0.3,0.6,0.3,1C240.4,169.9,239.5,170.5,237.6,170.4z"/>
		<path class="st5" d="M252.5,171.9h2.5c-0.5,1.6-1.6,2.4-3.5,2.4c-1.2,0-2.2-0.4-2.9-1.1c-0.7-0.7-1.1-1.6-1.1-2.5
			c0-1,0.4-1.9,1.1-2.6c0.7-0.7,1.6-1.1,2.7-1.1c1.2,0,2.3,0.5,3.3,1.4l0.9-0.9c-0.7-0.7-1.4-1.2-2.1-1.4c-0.7-0.3-1.4-0.4-2.3-0.4
			c-1.4,0-2.6,0.5-3.6,1.4c-1,1-1.5,2.1-1.5,3.5c0,1.3,0.5,2.5,1.4,3.5c1,1,2.2,1.5,3.8,1.5c0.7,0,1.3-0.1,1.8-0.2
			c0.5-0.2,1-0.4,1.4-0.8c0.4-0.4,0.8-0.8,1.1-1.2c0.3-0.5,0.4-0.9,0.5-1.3c0.1-0.4,0.1-0.9,0.1-1.5h-4V171.9z"/>
		<polygon class="st5" points="261,175.4 266.1,175.4 266.1,174.1 262.2,174.1 262.2,170.9 266.1,170.9 266.1,169.6 262.2,169.6 
			262.2,167.3 266.1,167.3 266.1,166.1 261,166.1 		"/>
		<path class="st5" d="M269.7,175.4h1.3l1.1-2.4h3.9l1.1,2.4h1.3l-4.4-9.7L269.7,175.4z M272.6,171.9l1.5-3.3l1.5,3.3H272.6z"/>
		<path class="st5" d="M288.1,172c0,0.8-0.2,1.4-0.6,1.8s-1,0.6-1.7,0.6c-0.7,0-1.3-0.2-1.7-0.7c-0.4-0.5-0.6-1.1-0.6-2v-5.7h-1.3
			v5.5c0,1.3,0.3,2.4,1,3.1c0.7,0.7,1.5,1,2.7,1c1.1,0,1.9-0.3,2.6-1c0.6-0.7,1-1.6,1-2.7v-5.8h-1.3V172z"/>
		<polygon class="st5" points="300.8,166.1 299.4,166.1 297.3,169.4 295.2,166.1 293.8,166.1 296.6,170.6 293.7,175.4 295.2,175.4 
			297.3,171.8 299.5,175.4 300.9,175.4 298,170.6 		"/>
		<path class="st5" d="M319.4,172.3c0.1-0.2,0.1-0.4,0.2-0.6c0.1-0.2,0.1-0.4,0.1-0.6c0-0.2,0.1-0.5,0.1-0.8h-1.2
			c0,0.5-0.1,1.1-0.3,1.7l-1.9-2.3c0.3-0.1,0.5-0.3,0.7-0.5c0.2-0.2,0.5-0.4,0.6-0.6c0.2-0.2,0.3-0.5,0.4-0.8
			c0.1-0.3,0.2-0.6,0.2-0.9c0-0.4-0.1-0.7-0.2-0.9c-0.1-0.3-0.3-0.5-0.6-0.7c-0.2-0.2-0.5-0.3-0.8-0.4c-0.3-0.1-0.6-0.1-1-0.1
			c-0.4,0-0.7,0.1-1,0.2c-0.3,0.1-0.6,0.3-0.8,0.5c-0.2,0.2-0.4,0.4-0.5,0.7c-0.1,0.3-0.2,0.5-0.2,0.8c0,0.3,0,0.5,0.1,0.7
			c0.1,0.2,0.2,0.4,0.3,0.6c0.1,0.2,0.2,0.4,0.4,0.6c0.1,0.2,0.3,0.4,0.4,0.6c-0.3,0.2-0.7,0.4-1,0.6c-0.3,0.2-0.6,0.4-0.8,0.7
			c-0.2,0.3-0.4,0.5-0.5,0.9c-0.1,0.3-0.2,0.7-0.2,1.1c0,0.2,0,0.5,0.1,0.8c0.1,0.3,0.2,0.6,0.5,1c0.2,0.3,0.6,0.6,1,0.8
			c0.4,0.2,1,0.3,1.7,0.3c0.6,0,1.2-0.1,1.7-0.4c0.6-0.2,1-0.6,1.3-1.1l1.1,1.3h1.7l-2.1-2.4C319.2,172.7,319.3,172.5,319.4,172.3z
			 M315,166.1c0.3-0.2,0.5-0.3,0.8-0.3c0.4,0,0.7,0.1,0.9,0.3c0.2,0.2,0.3,0.5,0.3,0.8c0,0.2,0,0.4-0.1,0.6
			c-0.1,0.2-0.2,0.4-0.3,0.5s-0.3,0.3-0.5,0.4c-0.2,0.1-0.3,0.2-0.5,0.3l-0.4-0.4c-0.1-0.1-0.2-0.3-0.3-0.5
			c-0.1-0.2-0.2-0.3-0.2-0.5c-0.1-0.2-0.1-0.3-0.1-0.5C314.6,166.5,314.8,166.3,315,166.1z M316.7,174.1c-0.4,0.2-0.8,0.3-1.3,0.3
			c-0.3,0-0.5,0-0.8-0.1c-0.2-0.1-0.5-0.2-0.7-0.4c-0.2-0.2-0.3-0.3-0.5-0.6c-0.1-0.2-0.2-0.5-0.2-0.7c0-0.3,0.1-0.6,0.2-0.8
			c0.1-0.2,0.2-0.4,0.4-0.6c0.2-0.2,0.4-0.4,0.6-0.5c0.2-0.1,0.5-0.3,0.7-0.4l2.5,2.9C317.4,173.5,317.1,173.8,316.7,174.1z"/>
		<polygon class="st5" points="333.5,166.1 332.2,166.1 332.2,175.4 336.5,175.4 336.5,174.1 333.5,174.1 		"/>
		<rect x="340.8" y="166.1" class="st5" width="1.3" height="9.3"/>
		<polygon class="st5" points="353.8,172.7 347,165.7 347,175.4 348.2,175.4 348.2,168.7 355.1,175.8 355.1,166.1 353.8,166.1 		"/>
		<path class="st5" d="M362.3,166.1H360v9.3h2.3c1.7,0,3-0.5,3.9-1.4c0.9-0.9,1.3-2,1.3-3.2c0-1.2-0.4-2.3-1.3-3.2
			C365.4,166.5,364.1,166.1,362.3,166.1z M365.9,172.3c-0.3,0.5-0.6,0.9-1,1.1c-0.4,0.3-0.9,0.5-1.4,0.6c-0.5,0.1-1.2,0.1-2.1,0.1
			h-0.1v-6.8h0.6c0.9,0,1.7,0.1,2.3,0.3c0.6,0.2,1,0.6,1.4,1.2c0.4,0.6,0.6,1.2,0.6,1.9C366.2,171.3,366.1,171.8,365.9,172.3z"/>
		<path class="st5" d="M370.8,175.4h1.3l1.1-2.4h3.9l1.1,2.4h1.3l-4.4-9.7L370.8,175.4z M373.7,171.9l1.5-3.3l1.5,3.3H373.7z"/>
		<path class="st5" d="M382.2,167.5h0.8c0,0.5-0.3,1-0.7,1.5l0.6,0.5c0.3-0.3,0.5-0.6,0.7-1c0.2-0.4,0.3-0.7,0.3-1v-1.7h-1.6V167.5z
			"/>
		<path class="st5" d="M393.9,171.1c-0.2-0.3-0.5-0.5-0.8-0.7c-0.3-0.2-0.8-0.5-1.4-0.7c-0.6-0.3-1-0.5-1.3-0.7
			c-0.2-0.2-0.4-0.5-0.4-0.7c0-0.3,0.1-0.6,0.4-0.8s0.7-0.3,1.1-0.3c0.4,0,0.7,0.1,1,0.2c0.2,0.1,0.5,0.3,0.7,0.6l1-0.8
			c-0.3-0.4-0.8-0.8-1.3-1s-1-0.3-1.5-0.3c-0.8,0-1.4,0.2-1.9,0.7c-0.5,0.5-0.8,1-0.8,1.7c0,0.3,0,0.5,0.1,0.8
			c0.1,0.2,0.2,0.5,0.4,0.7c0.2,0.2,0.4,0.5,0.7,0.6c0.3,0.2,0.7,0.4,1.2,0.6c0.5,0.2,0.9,0.4,1.1,0.6c0.2,0.2,0.4,0.4,0.6,0.6
			c0.2,0.3,0.2,0.5,0.2,0.8c0,0.4-0.2,0.8-0.5,1c-0.3,0.3-0.7,0.4-1.2,0.4c-1,0-1.7-0.5-2.1-1.6l-1.3,0.4c0.3,0.9,0.8,1.5,1.4,1.9
			c0.6,0.4,1.3,0.6,2.1,0.6c0.8,0,1.5-0.3,2-0.8c0.6-0.5,0.8-1.2,0.8-2c0-0.3-0.1-0.6-0.2-0.9C394.3,171.6,394.1,171.4,393.9,171.1z
			"/>
		<path class="st5" d="M541.1,171.6c-1.5,1.5-2.5,2.2-3.1,2.2c-0.4,0-0.5-0.2-0.4-0.7c0.1-0.3,0.4-1.1,1.1-2.3
			c1-1.7,1.5-2.9,1.6-3.6c0.1-0.4,0-0.8-0.2-1.1c-0.2-0.3-0.5-0.4-0.9-0.4c-0.6,0-1.3,0.3-2.1,0.8c-0.8,0.5-2,1.5-3.5,2.9
			c0.3-0.9,1-2.2,1.8-3.7c0,0,0,0-0.1,0c-0.5,0.1-2.7,0.5-2.8,0.5l-0.1,0.1c-0.9,1.4-1.6,2.6-2,3.7c-0.2,0.5-0.4,1.1-0.6,1.7l0,0
			c-1.1,0.9-1.9,1.5-2.4,1.8c-0.5,0.3-1,0.4-1.5,0.4c-1.3,0-2-0.7-2-2.2c3.5-1,5.5-2.3,5.7-3.9c0.1-0.6,0-1.1-0.4-1.4
			c-0.4-0.4-0.9-0.5-1.6-0.5c-1.4,0-2.7,0.7-4.1,2c-1.2,1.2-2,2.5-2.3,4c-1.6,1.4-2.6,2.2-3.1,2.2c-0.1,0-0.2-0.1-0.3-0.2
			c-0.1-0.1-0.1-0.3-0.1-0.4c0.1-0.4,0.5-1.3,1.3-2.7c0.8-1.4,1.3-2.5,1.4-3.2c0.1-0.5,0-0.8-0.2-1.1c-0.2-0.3-0.5-0.4-0.9-0.4
			c-0.4,0-0.7,0.1-1.1,0.2c-0.4,0.2-1.1,0.5-2.2,1.1c1.3-1.4,2.3-2.6,3-3.6c2.7-3.9-0.5-6.4-3.6-2.7c-1.8,2.1-2.9,4-3.8,6
			c-0.8,1.5-1.3,3.2-1.8,4.9c-0.8,0.7-1.5,1.2-2.1,1.6c-0.6,0.4-1.2,0.5-1.8,0.5c-0.7,0-1.3-0.3-1.6-0.8c-0.3-0.5-0.4-1.3-0.3-2.2
			c0.2-1.1,0.6-2,1.2-2.8s1.2-1.2,1.8-1.2c0.2,0,0.4,0.1,0.5,0.3c0.1,0.2,0.1,0.5,0.1,0.8c0,0.1-0.1,0.3-0.2,0.6
			c-0.1,0.3-0.2,0.5-0.2,0.6c0,0.2,0,0.2,0.1,0.2c0.1,0,0.2,0,0.4-0.1l1.4-0.6c0.2-0.1,0.4-0.2,0.5-0.3c0.1-0.1,0.2-0.3,0.2-0.5
			c0.1-0.6,0-1.1-0.4-1.5c-0.4-0.4-0.9-0.6-1.6-0.6c-1.4,0-2.8,0.7-4.2,2.1c-1.2,1.2-2,2.5-2.4,3.9c-0.9,0.8-1.5,1.3-1.9,1.5
			c-0.4,0.2-0.8,0.4-1.2,0.4c-0.3,0-0.5-0.1-0.6-0.3c-0.1-0.2-0.2-0.5-0.1-0.9c0.1-0.5,0.4-1.2,0.8-2.1l1.2-2.6l1.8-0.1l0,0
			c0.1-0.2,0.7-1.7,0.7-1.7l0,0l-1.6,0.1l1.9-4l0,0l-3.1,0.6l-0.1,0l-1.7,3.6l-0.9,0l0,0l-0.9,1.8l0,0l0.9,0l-0.8,1.7
			c-0.4,0.8-0.7,1.5-0.8,2.1c-0.8,0.7-1.3,1.2-1.7,1.4c-0.3,0.2-0.7,0.3-1,0.3c-0.2,0-0.3-0.1-0.4-0.2c-0.1-0.2-0.1-0.4-0.1-0.6
			c0.1-0.6,0.5-1.7,1.3-3.2l1.8-3.6l0,0l-0.1,0l-2.9,0.6l-0.1,0.1c-1.2,2.1-2,3.9-2.5,5.4l0-0.1c-1.5,1.5-2.6,2.2-3.4,2.2
			c-0.7,0-1-0.4-0.8-1.3c0-0.2,0.1-0.5,0.2-0.8c0.1-0.4,0.2-0.7,0.2-0.8c0.2-0.9,0.1-1.6-0.2-2.1c-0.3-0.5-0.7-1-1.4-1.4
			c0.5-0.2,0.9-0.5,1.4-1c0.5-0.5,1-1.5,1.6-2.9c0.6-1.4,1.2-2.1,1.9-2.1c0.3,0,0.6,0.1,0.7,0.4c0.1,0.3,0.2,0.4,0.3,0.4
			c0.2,0,0.4-0.3,0.8-0.8c0.4-0.6,0.6-0.9,0.6-1.1c0.1-0.3-0.1-0.6-0.3-0.8c-0.3-0.3-0.6-0.4-0.9-0.4c-1.5,0-2.9,1.5-4.2,4.6
			c-0.5,1.2-1,2.1-1.4,2.5c-0.4,0.5-0.9,0.7-1.3,0.7l-0.5,0c-0.5,0-0.8,0.2-0.8,0.7c-0.1,0.3,0.1,0.5,0.5,0.5c0.2,0,0.3,0,0.4,0
			c0.2,0.3,0.3,0.8,0.2,1.5c0,0.2-0.2,0.7-0.4,1.6c-0.3,0.9-0.4,1.4-0.4,1.5c-0.2,0.9,0,1.6,0.4,2.2c0.4,0.6,1,0.9,1.8,0.9
			c0.8,0,1.5-0.2,2.3-0.7c0.7-0.4,1.6-1.1,2.7-2c0,0,0,0.1,0,0.1c-0.1,0.8-0.1,1.4,0.2,1.9c0.2,0.5,0.6,0.8,1.1,0.8
			c0.9,0,2.3-0.9,4.4-2.7c-0.1,0.8,0,1.4,0.3,1.9c0.3,0.6,0.8,0.8,1.5,0.8c0.6,0,1.3-0.2,2.1-0.7c0.8-0.4,1.7-1.1,2.8-2.1
			c0,0.7,0.2,1.3,0.6,1.8c0.5,0.6,1.3,1,2.3,1c0.9,0,1.8-0.2,2.7-0.7c0.9-0.4,1.8-1.1,2.9-2c0,0,0,0.1,0,0.1
			c-0.2,0.9-0.3,1.8-0.3,2.6l0,0l2.6-0.6l0,0c0.3-2,0.8-3.7,1.3-5.1c0.8-0.7,1.5-1.3,2.1-1.7c0.7-0.4,1.1-0.6,1.4-0.6
			c0.3,0,0.4,0.2,0.4,0.5c0,0.3-0.3,0.9-0.9,1.8c-1,1.7-1.6,3-1.7,3.9c-0.1,0.5,0,1,0.3,1.3c0.3,0.4,0.7,0.5,1.2,0.5
			c1.2,0,2.8-0.9,5-2.8c0,0.7,0.2,1.3,0.6,1.8c0.5,0.7,1.3,1,2.3,1c0.9,0,1.8-0.2,2.7-0.7c0.8-0.4,1.8-1.1,2.9-2
			c0,0.1-0.1,0.3-0.1,0.4c-0.1,0.5-0.2,1.3-0.3,2.3l2.6-0.6c0.1-0.7,0.2-1.2,0.3-1.6c0.1-0.5,0.3-1.1,0.5-1.8
			c0.1-0.4,0.4-0.7,0.7-1.1l0.8-0.7c0.3-0.3,0.6-0.5,0.8-0.7c0.3-0.3,0.5-0.5,0.8-0.6c0.2-0.2,0.5-0.3,0.6-0.4
			c0.2-0.1,0.3-0.2,0.5-0.2c0.2,0,0.3,0.1,0.2,0.4c0,0.2-0.3,0.8-0.8,1.7c-1,1.7-1.5,2.9-1.7,3.8c-0.1,0.6,0,1.1,0.2,1.4
			c0.2,0.4,0.6,0.5,1.1,0.5c1.3,0,2.9-0.9,5-2.8l0,0C540.9,172.7,541.1,171.6,541.1,171.6L541.1,171.6z M525.1,167.8
			c0.6-0.8,1.1-1.2,1.7-1.2c0.5,0,0.7,0.4,0.6,1.1c-0.3,1.5-1.4,2.5-3.5,3.1C524.1,169.6,524.5,168.6,525.1,167.8z M513.8,168.2
			c0.9-2.1,1.8-3.9,2.9-5.5c1-1.5,1.8-2.3,2.2-2.3c0.3,0,0.3,0.2,0.3,0.7C518.9,162.7,517.1,165,513.8,168.2z"/>
		<path class="st5" d="M483,162.2c0.3-0.6,0.8-1.2,1.3-1.8c0.5-0.5,0.8-0.9,0.8-0.9c0-0.1-0.1-0.2-0.3-0.3c-0.2-0.1-0.4-0.1-0.5-0.1
			c-0.1,0-0.2,0.1-0.4,0.2c-0.4,0.4-0.9,0.6-1.3,0.6c-0.3,0-0.8-0.1-1.4-0.4s-1.2-0.4-1.6-0.4c-1.2,0-2.4,0.5-3.6,1.6
			c-1.2,1.1-1.9,2.2-2.1,3.4c-0.1,0.5,0,0.9,0.2,1.4c0.2,0.5,0.4,0.7,0.7,0.7c0.2,0,0.6-0.2,1-0.5c0.4-0.4,0.6-0.6,0.6-0.7
			c0-0.1-0.1-0.2-0.2-0.4c-0.5-0.5-0.7-1.1-0.6-1.7c0.1-0.6,0.4-1,0.8-1.4c0.4-0.4,0.9-0.6,1.4-0.6c0.3,0,0.7,0.1,1.3,0.4
			c0.6,0.2,1.1,0.4,1.5,0.4c0.6,0,1.3-0.2,2.2-0.5c-2.2,1.8-3.6,3.2-4.2,4.4c-0.6,1.1-1.2,2.5-1.7,4c-1.1,3.6-2.5,5.4-4.1,5.4
			c-1,0-1.4-0.8-1.1-2.4c0.1-0.6,0-0.9-0.4-0.9c-0.2,0-0.6,0.2-1.2,0.7c-0.6,0.5-0.9,0.8-1,1.1c-0.1,0.6,0.2,1.2,0.9,1.6
			c0.7,0.5,1.6,0.7,2.6,0.7c1.1,0,2.1-0.3,3.2-0.8c1-0.6,2-1.4,2.8-2.6c0.8-1.1,1.7-3.1,2.7-5.9l0.5-1.4
			C482.2,163.7,482.6,162.8,483,162.2z"/>
		<path class="st5" d="M495.5,161.9L495.5,161.9l0.1-0.1l0,0c0.2-0.5,0.5-0.9,0.9-1.3c-0.2,0-0.4,0.1-0.6,0.1
			c-1.7,0.5-3.2,1.8-3.7,3.5l0.1,0C493.6,164.1,494.9,163.1,495.5,161.9z"/>
		<path class="st5" d="M421,160.5c-0.2-0.8-0.4-1.1-0.6-1.1c-0.2,0-0.7,0.2-1.5,0.6c-0.7,0.4-1.1,0.7-1.2,1c0,0.2,0.1,0.5,0.2,0.9
			c0.6,1.4,0.8,2.8,0.6,4c-0.2,1.3-0.6,2.6-1.4,4c-0.7,1.4-1.6,2.5-2.5,3.4c-0.9,0.8-1.8,1.2-2.5,1.2c-0.5,0-0.9-0.2-1.1-0.6
			c-0.3-0.4-0.4-0.8-0.3-1.4c0.1-0.8,0.6-2,1.4-3.6c0.8-1.6,1.4-2.7,1.6-3.5c0.3-0.7,0.4-1.4,0.5-2c0.2-1.3,0-2.3-0.5-3.1
			c-0.5-0.8-1.3-1.2-2.3-1.3c-1.3-0.1-2.6,0.4-3.8,1.6c-1.2,1.2-1.9,2.4-2,3.8c-0.1,0.5,0,1.1,0.2,1.5c0.2,0.5,0.5,0.7,0.8,0.8
			c0.3,0,0.6-0.1,1-0.4c0.4-0.3,0.6-0.6,0.6-0.9c0-0.2-0.1-0.4-0.4-0.8c-0.3-0.4-0.4-0.9-0.3-1.5c0.1-0.8,0.5-1.5,1.1-2.2
			c0.7-0.6,1.3-0.9,1.9-0.9c0.4,0,0.7,0.2,0.9,0.6c0.2,0.3,0.2,0.8,0.2,1.4c-0.1,0.9-0.7,2.4-1.8,4.4c-1.1,2.1-1.8,3.8-2,4.9
			c-0.2,1.2,0,2.3,0.6,3.1c0.6,0.8,1.4,1.3,2.5,1.3c1.3,0.1,2.7-0.5,4.2-1.8c1.4-1.3,2.7-3,3.8-5.2s1.8-4.1,2-5.9
			C421.2,162,421.1,161.2,421,160.5z"/>
		<path class="st5" d="M463.3,172.4c-1.4,1.3-2.4,1.9-3,1.9c-0.4,0-0.5-0.3-0.5-0.7c0-0.3,0.4-1.1,1-2.2c0.9-1.6,1.4-2.8,1.5-3.5
			c0.1-0.4,0-0.8-0.2-1.2c-0.2-0.3-0.5-0.5-0.9-0.5c-0.6-0.1-1.3,0.1-2.1,0.6c-0.8,0.5-2,1.4-3.4,2.7c0.3-0.9,0.9-2.1,1.7-3.7
			l-0.1,0c-0.9,0.1-1.8,0.2-2.7,0.4l-0.1,0c-0.8,1.4-1.5,2.6-1.9,3.7c-0.2,0.6-0.4,1.2-0.6,1.8c-0.7,0.6-1.3,1.1-1.7,1.4
			c-0.4,0.3-0.8,0.5-1.1,0.5c-0.5,0-0.7-0.3-0.6-1c0.1-0.6,0.5-1.8,1.3-3.5c0.5-1.1,1-2.2,1.5-3.3c0-0.1,0-0.2-1.1,0.3
			c-1.3,0.6-1.6,0.7-2.1,0.9c-0.3-0.9-0.9-1.3-1.9-1.3c-0.8,0-1.7,0.3-2.8,1c-1.1,0.7-2,1.5-2.8,2.6c-0.6,0.8-1,1.7-1.3,2.5
			c-1.2,1.3-2.4,2.1-3.5,2.5c0.6-1.9,1.3-3.9,1.9-5.8c0.3-0.9,0.6-1.8,1.1-2.7c0-0.1-0.1-0.1-0.3,0c-0.3,0.1-0.6,0.3-0.9,0.4
			c-0.6,0.3-1.1,0.5-1.5,0.6c-0.5-0.6-1.1-0.9-1.9-0.9c-1.4,0-2.8,0.8-4.2,2.2c-1.1,1.1-1.8,2.3-2.2,3.5c0,0,0-0.1,0-0.1
			c-1.1,1-1.9,1.6-2.4,1.9c-0.5,0.3-1,0.4-1.5,0.4c-1.3,0-2-0.7-2.1-2.2c3.6-1,5.5-2.4,5.7-4c0.1-0.6-0.1-1.1-0.5-1.4
			c-0.4-0.4-0.9-0.5-1.7-0.5c-1.4,0-2.8,0.7-4.1,2c-1.3,1.3-2.1,2.8-2.3,4.4c-0.1,1.1,0.1,2,0.6,2.6c0.6,0.7,1.4,1,2.4,1
			c1,0,1.9-0.3,2.7-0.7c0.8-0.5,1.8-1.2,2.9-2.1c-0.1,0.8,0,1.4,0.3,2c0.3,0.6,0.8,0.9,1.5,0.8c0.6,0,1.1-0.2,1.7-0.6
			c0.6-0.4,1.3-1,2.2-1.9c-0.3,0.8-0.5,1.5-0.8,2.3c-1.9,0.7-3.2,1.3-4.1,2c-0.8,0.7-1.3,1.4-1.4,2.2c-0.1,0.6,0,1.1,0.4,1.5
			c0.3,0.4,0.8,0.5,1.4,0.5c1.1,0,2.3-0.6,3.4-1.7c1.1-1.1,2.2-2.7,3.1-4.7c1.4-0.5,2.6-1.3,3.8-2.3c0,0.7,0.1,1.3,0.4,1.8
			c0.4,0.6,0.9,0.9,1.6,0.9c0.7,0,1.4-0.3,2.2-0.8c0.7-0.5,1.6-1.3,2.5-2.4c-0.4,2.1,0.1,3.2,1.3,3.2c0.5,0,1-0.2,1.6-0.5
			c0.6-0.3,1.5-1.1,2.8-2.1c0,0.1,0,0.2-0.1,0.3c-0.1,0.5-0.1,1.3-0.2,2.3l0.1,0c0.9-0.2,1.7-0.4,2.6-0.5l0,0
			c0.1-0.7,0.2-1.2,0.2-1.6c0.1-0.5,0.3-1.1,0.5-1.8c0.1-0.4,0.3-0.7,0.7-1.1c0.3-0.2,0.5-0.5,0.8-0.7c0.3-0.3,0.5-0.5,0.8-0.7
			c0.3-0.2,0.5-0.4,0.7-0.6c0.2-0.2,0.5-0.3,0.6-0.4c0.2-0.1,0.3-0.1,0.4-0.1c0.2,0,0.3,0.1,0.2,0.4c0,0.2-0.3,0.8-0.8,1.7
			c-0.9,1.6-1.4,2.9-1.5,3.7c-0.1,0.6,0,1.1,0.3,1.5c0.3,0.4,0.7,0.6,1.2,0.6c1.3,0.1,2.9-0.7,4.9-2.3l0,0
			C463.2,173.3,463.3,172.8,463.3,172.4L463.3,172.4L463.3,172.4z M423.1,167.9c0.6-0.8,1.1-1.2,1.6-1.2c0.5,0,0.8,0.4,0.7,1.1
			c-0.2,1.5-1.3,2.5-3.4,3.1C422.2,169.6,422.5,168.6,423.1,167.9z M430.7,179.8c-0.5,0.7-1,1.1-1.6,1.1c-0.3,0-0.6-0.1-0.8-0.3
			c-0.2-0.2-0.2-0.5-0.2-0.8c0.2-1.2,1.6-2.2,4.2-3.2C431.7,178,431.2,179.1,430.7,179.8z M434.7,170.1c-0.4,1-0.8,1.8-1.3,2.5
			c-0.5,0.7-1.1,1-1.6,1c-0.4,0-0.6-0.1-0.8-0.4c-0.2-0.3-0.2-0.7-0.2-1.2c0.2-1.1,0.6-2.3,1.4-3.4c0.8-1.1,1.6-1.7,2.4-1.7
			c0.3,0,0.5,0.1,0.6,0.3c0.2,0.2,0.2,0.5,0.2,0.9C435.3,168.4,435,169.1,434.7,170.1z M447.2,167.9c-0.1,1.1-0.7,2.3-1.5,3.6
			c-0.9,1.3-1.7,2-2.5,2c-0.3,0-0.6-0.1-0.7-0.4c-0.2-0.3-0.2-0.6-0.2-1c0.1-1.1,0.7-2.3,1.5-3.6c0.9-1.3,1.7-2,2.5-2
			c0.3,0,0.6,0.1,0.7,0.4C447.2,167.2,447.2,167.5,447.2,167.9z"/>
	</g>
	<path class="st5" d="M750,178.8L750,178.8c0-0.1,0-0.1,0-0.2l0,0c-0.2-1.2-1.2-2.1-2.5-2.2h-9.4v-6.6c4.6-0.2,8.4-3.3,9.6-7.5l0,0
		c0-0.2,0.1-0.3,0.1-0.5l0,0c0.5-1.6,1.2-3.1,2.2-4.5c-0.7,0.1-1.4,0.2-2.1,0.4c-5,1.4-8.9,5.4-10.3,10.3c-1.4-5-5.3-8.9-10.3-10.3
		c-0.7-0.2-1.4-0.3-2.1-0.4c1,1.4,1.8,3,2.3,4.7c0,0,0,0.1,0,0.1c1.2,4.3,5,7.5,9.7,7.7v0.2h0v6.4h-9.4c-0.7,0-1.2,0.3-1.7,0.7
		c-0.4,0.4-0.7,1-0.8,1.6v0c0,0.1,0,0.2,0,0.3c0,1.4,1.1,2.6,2.6,2.6c0,0,0.1,0,0.1,0h0c0,0,0.1,0,0.1,0h0c0,0,0.1,0,0.1,0l0,0
		c0,0,0,0,0.1,0l0.1,0l0,0c0,0,0,0,0.1,0l0,0c0,0,0.1,0,0.1,0l0,0c0.6-0.2,1.1-0.5,1.4-1l0,0c0,0,0-0.1,0.1-0.1l0,0l0-0.1
		c0,0,0-0.1,0-0.1l0,0c0.1-0.3,0.2-0.6,0.3-0.9l0,0v0c0-0.2-0.2-0.4-0.4-0.4c0,0-0.1,0-0.1,0c-0.2,0-0.3,0.2-0.3,0.4
		c0,0.4-0.2,0.7-0.4,0.9c-0.3,0.4-0.8,0.6-1.3,0.6c0,0-0.1,0-0.1,0c0,0,0,0-0.1,0c-0.9,0-1.7-0.8-1.7-1.8c0-0.9,0.7-1.7,1.6-1.7
		c0,0,0.1,0,0.1,0h19.6c0,0,0.1,0,0.1,0c0.9,0.1,1.6,0.8,1.6,1.7c0,0.9-0.7,1.7-1.7,1.8c0,0,0,0-0.1,0c0,0-0.1,0-0.1,0
		c-0.5,0-1-0.3-1.3-0.6c-0.2-0.3-0.4-0.6-0.4-0.9h0c0-0.2-0.1-0.3-0.3-0.4c0,0-0.1,0-0.1,0c-0.2,0-0.4,0.2-0.4,0.4h0l0,0l0,0
		c0,0.3,0.1,0.6,0.3,0.9l0,0c0,0,0,0.1,0,0.1l0,0.1l0,0c0,0,0,0.1,0.1,0.1l0,0c0.3,0.5,0.8,0.8,1.4,1h0c0,0,0.1,0,0.1,0l0,0
		c0,0,0,0,0.1,0l0,0l0.1,0l0.1,0l0,0c0,0,0.1,0,0.1,0h0c0,0,0.1,0,0.1,0h0c0,0,0.1,0,0.1,0c0.7,0,1.3-0.3,1.8-0.7
		c0.5-0.5,0.7-1.1,0.7-1.8C750,179,750,178.9,750,178.8L750,178.8z"/>
</g>
<g id="Layer_2">
</g>
</svg>
